{
.appVersion = "983";
DisplayStrings = (
"/koKai-thai/saraIi-thai/maiEk-thai/koKai-thai/saraIi-thai/maiTho-thai/koKai-thai/saraIi-thai/maiTri-thai/koKai-thai/saraIi-thai/maiChattawa-thai/koKai-thai/saraI-thai/thanthakhat-thai/koKai-thai/thanthakhat-thai/koKai-thai/maiEk-thai/koKai-thai/maiTho-thai/koKai-thai/maiTri-thai/koKai-thai/maiChattawa-thai/poPla-thai/saraI-thai/poPla-thai/saraIi-thai/poPla-thai/saraUe-thai/poPla-thai/saraUee-thai/poPla-thai/maiEk-thai/poPla-thai/maiTho-thai/poPla-thai/maiTri-thai/poPla-thai/maiChattawa-thai",
"/maiChattawa-thai.narrow"
);
copyright = "Copyright © 2018 by Cadson Demak Co.,Ltd.. All rights reserved.";
customParameters = (
{
name = vendorID;
value = CDK;
},
{
name = description;
value = "Copyright (c) 2018, Cadson Demak (info@cadsondemak.com)";
},
{
name = license;

glyphs = (
{
glyphname = A;
lastChange = "2017-12-18 12:10:38 +0000";
layers = (
{
layerId = "0B1DFD06-3317-40CA-B510-4969A0718C16";
paths = (
{
closed = 1;
nodes = (
"785 0 LINE",
"412 722 LINE",
"395 722 LINE",
"0 0 LINE",
"48 0 LINE",
"238 358 LINE",
"502 358 LINE",
"691 0 LINE"
);
},
{
closed = 1;
nodes = (
"485 394 LINE",
"259 394 LINE",
"376 613 LINE"
);
}
);
width = 785;
}
);
note = A;
unicode = 0041;
},
{
glyphname = B;
lastChange = "2017-12-18 12:10:38 +0000";
layers = (
{
layerId = "0B1DFD06-3317-40CA-B510-4969A0718C16";
paths = (
{
closed = 1;
nodes = (
"764 340 OFFCURVE",
"581 369 OFFCURVE",
"467 377 CURVE",
"557 382 OFFCURVE",
"697 430 OFFCURVE",
"697 539 CURVE SMOOTH",
"697 676 OFFCURVE",
"527 700 OFFCURVE",
"424 700 CURVE SMOOTH",
"75 700 LINE",
"75 0 LINE",
"409 0 LINE SMOOTH",
"536 0 OFFCURVE",
"764 21 OFFCURVE",
"764 192 CURVE SMOOTH"
);
},
{
closed = 1;
nodes = (
"610 418 OFFCURVE",
"463 394 OFFCURVE",
"376 394 CURVE SMOOTH",
"156 394 LINE",
"156 662 LINE",
"372 662 LINE SMOOTH",
"463 662 OFFCURVE",
"610 655 OFFCURVE",
"610 532 CURVE SMOOTH"
);
},
{
closed = 1;
nodes = (
"670 75 OFFCURVE",
"548 36 OFFCURVE",
"455 36 CURVE SMOOTH",
"156 36 LINE",
"156 357 LINE",
"376 357 LINE SMOOTH",
"494 357 OFFCURVE",
"670 342 OFFCURVE",
"670 186 CURVE SMOOTH"
);
}
);
width = 801;
}
);
note = B;
unicode = 0042;
},
{
glyphname = C;
lastChange = "2017-12-18 12:10:38 +0000";
layers = (
{
layerId = "0B1DFD06-3317-40CA-B510-4969A0718C16";
paths = (
{
closed = 1;
nodes = (
"701 201 LINE",
"667 85 OFFCURVE",
"575 10 OFFCURVE",
"452 10 CURVE SMOOTH",
"261 10 OFFCURVE",
"133 171 OFFCURVE",
"133 355 CURVE SMOOTH",
"133 542 OFFCURVE",
"262 688 OFFCURVE",
"452 688 CURVE SMOOTH",
"575 688 OFFCURVE",
"667 613 OFFCURVE",
"701 497 CURVE",
"804 497 LINE",
"748 646 OFFCURVE",
"610 722 OFFCURVE",
"454 722 CURVE SMOOTH",
"232 722 OFFCURVE",
"37 578 OFFCURVE",
"37 343 CURVE SMOOTH",
"37 120 OFFCURVE",
"244 -22 OFFCURVE",
"452 -22 CURVE SMOOTH",
"610 -22 OFFCURVE",
"746 52 OFFCURVE",
"804 201 CURVE"
);
}
);
width = 842;
}
);
note = C;
unicode = 0043;
},
{
glyphname = D;
lastChange = "2017-12-18 12:10:38 +0000";
layers = (
{
layerId = "0B1DFD06-3317-40CA-B510-4969A0718C16";
paths = (
{
closed = 1;
nodes = (
"797 640 OFFCURVE",
"542 700 OFFCURVE",
"324 700 CURVE SMOOTH",
"75 700 LINE",
"75 0 LINE",
"330 0 LINE SMOOTH",
"584 0 OFFCURVE",
"797 78 OFFCURVE",
"797 372 CURVE SMOOTH"
);
},
{
closed = 1;
nodes = (
"698 126 OFFCURVE",
"580 36 OFFCURVE",
"345 36 CURVE SMOOTH",
"156 36 LINE",
"156 662 LINE",
"345 662 LINE SMOOTH",
"542 662 OFFCURVE",
"698 595 OFFCURVE",
"698 372 CURVE SMOOTH"
);
}
);
width = 834;
}
);
note = D;
unicode = 0044;
},
{
glyphname = E;
lastChange = "2017-12-18 12:10:38 +0000";
layers = (
{
layerId = "0B1DFD06-3317-40CA-B510-4969A0718C16";
paths = (
{
closed = 1;
nodes = (
"661 0 LINE",
"661 36 LINE",
"156 36 LINE",
"156 358 LINE",
"553 358 LINE",
"553 394 LINE",
"156 394 LINE",
"156 662 LINE",
"661 662 LINE",
"661 700 LINE",
"75 700 LINE",
"75 0 LINE"
);
}
);
width = 676;
}
);
note = E;
unicode = 0045;
},
{
glyphname = F;
lastChange = "2017-12-18 12:10:38 +0000";
layers = (
{
layerId = "0B1DFD06-3317-40CA-B510-4969A0718C16";
paths = (
{
closed = 1;
nodes = (
"661 662 LINE",
"661 700 LINE",
"75 700 LINE",
"75 0 LINE",
"156 0 LINE",
"156 358 LINE",
"553 358 LINE",
"553 394 LINE",
"156 394 LINE",
"156 662 LINE"
);
}
);
width = 676;
}
);
note = F;
unicode = 0046;
},
{
glyphname = G;
lastChange = "2017-12-18 12:10:38 +0000";
layers = (
{
layerId = "0B1DFD06-3317-40CA-B510-4969A0718C16";
paths = (
{
closed = 1;
nodes = (
"804 497 LINE",
"742 658 OFFCURVE",
"611 722 OFFCURVE",
"445 722 CURVE SMOOTH",
"226 722 OFFCURVE",
"37 571 OFFCURVE",
"37 343 CURVE SMOOTH",
"37 129 OFFCURVE",
"237 -22 OFFCURVE",
"440 -22 CURVE SMOOTH",
"562 -22 OFFCURVE",
"697 9 OFFCURVE",
"783 99 CURVE",
"783 358 LINE",
"454 358 LINE",
"454 321 LINE",
"704 321 LINE",
"704 115 LINE",
"641 48 OFFCURVE",
"530 12 OFFCURVE",
"440 12 CURVE SMOOTH",
"247 12 OFFCURVE",
"136 180 OFFCURVE",
"136 358 CURVE SMOOTH",
"136 538 OFFCURVE",
"258 688 OFFCURVE",
"445 688 CURVE SMOOTH",
"566 688 OFFCURVE",
"673 620 OFFCURVE",
"701 497 CURVE"
);
}
);
width = 842;
}
);
note = G;
unicode = 0047;
},
{
glyphname = H;
lastChange = "2017-12-18 12:10:38 +0000";
layers = (
{
layerId = "0B1DFD06-3317-40CA-B510-4969A0718C16";
paths = (
{
closed = 1;
nodes = (
"745 0 LINE",
"745 700 LINE",
"665 700 LINE",
"665 394 LINE",
"156 394 LINE",
"156 700 LINE",
"75 700 LINE",
"75 0 LINE",
"156 0 LINE",
"156 358 LINE",
"665 358 LINE",
"665 0 LINE"
);
}
);
width = 819;
}
);
note = H;
unicode = 0048;
},
{
glyphname = I;
lastChange = "2017-12-18 12:10:38 +0000";
layers = (
{
layerId = "0B1DFD06-3317-40CA-B510-4969A0718C16";
paths = (
{
closed = 1;
nodes = (
"156 0 LINE",
"156 700 LINE",
"75 700 LINE",
"75 0 LINE"
);
}
);
width = 231;
}
);
note = I;
unicode = 0049;
},
{
glyphname = J;
lastChange = "2017-12-18 12:10:38 +0000";
layers = (
{
layerId = "0B1DFD06-3317-40CA-B510-4969A0718C16";
paths = (
{
closed = 1;
nodes = (
"445 700 LINE",
"363 700 LINE",
"363 195 LINE SMOOTH",
"363 103 OFFCURVE",
"325 3 OFFCURVE",
"219 3 CURVE SMOOTH",
"139 3 OFFCURVE",
"85 54 OFFCURVE",
"81 133 CURVE",
"-6 133 LINE",
"3 19 OFFCURVE",
"123 -30 OFFCURVE",
"223 -30 CURVE SMOOTH",
"364 -30 OFFCURVE",
"445 79 OFFCURVE",
"445 213 CURVE SMOOTH"
);
}
);
width = 520;
}
);
note = J;
unicode = 004A;
},
{
glyphname = K;
lastChange = "2017-12-18 12:10:38 +0000";
layers = (
{
layerId = "0B1DFD06-3317-40CA-B510-4969A0718C16";
paths = (
{
closed = 1;
nodes = (
"719 0 LINE",
"385 490 LINE",
"641 700 LINE",
"571 700 LINE",
"156 358 LINE",
"156 700 LINE",
"75 700 LINE",
"75 0 LINE",
"156 0 LINE",
"156 303 LINE",
"325 440 LINE",
"622 0 LINE"
);
}
);
width = 734;
}
);
note = K;
unicode = 004B;
},
{
glyphname = L;
lastChange = "2017-12-18 12:10:38 +0000";
layers = (
{
layerId = "0B1DFD06-3317-40CA-B510-4969A0718C16";
paths = (
{
closed = 1;
nodes = (
"590 0 LINE",
"590 36 LINE",
"156 36 LINE",
"156 700 LINE",
"75 700 LINE",
"75 0 LINE"
);
}
);
width = 598;
}
);
note = L;
unicode = 004C;
},
{
glyphname = M;
lastChange = "2017-12-18 12:10:38 +0000";
layers = (
{
layerId = "0B1DFD06-3317-40CA-B510-4969A0718C16";
paths = (
{
closed = 1;
nodes = (
"848 0 LINE",
"848 700 LINE",
"753 700 LINE",
"461 114 LINE",
"178 700 LINE",
"75 700 LINE",
"75 0 LINE",
"121 0 LINE",
"121 620 LINE",
"430 -13 LINE",
"442 -13 LINE",
"767 640 LINE",
"767 0 LINE"
);
}
);
width = 923;
}
);
note = M;
unicode = 004D;
},
{
glyphname = N;
lastChange = "2017-12-18 12:10:38 +0000";
layers = (
{
layerId = "0B1DFD06-3317-40CA-B510-4969A0718C16";
paths = (
{
closed = 1;
nodes = (
"725 -21 LINE",
"725 700 LINE",
"679 700 LINE",
"679 136 LINE",
"165 700 LINE",
"75 700 LINE",
"75 0 LINE",
"121 0 LINE",
"121 628 LINE",
"715 -21 LINE"
);
}
);
width = 800;
}
);
note = N;
unicode = 004E;
},
{
glyphname = O;
lastChange = "2017-12-18 12:10:38 +0000";
layers = (
{
layerId = "0B1DFD06-3317-40CA-B510-4969A0718C16";
paths = (
{
closed = 1;
nodes = (
"854 571 OFFCURVE",
"656 722 OFFCURVE",
"446 722 CURVE SMOOTH",
"238 722 OFFCURVE",
"37 568 OFFCURVE",
"37 348 CURVE SMOOTH",
"37 127 OFFCURVE",
"234 -25 OFFCURVE",
"445 -25 CURVE SMOOTH",
"656 -25 OFFCURVE",
"854 127 OFFCURVE",
"854 349 CURVE SMOOTH"
);
},
{
closed = 1;
nodes = (
"753 163 OFFCURVE",
"643 3 OFFCURVE",
"445 3 CURVE SMOOTH",
"247 3 OFFCURVE",
"136 162 OFFCURVE",
"136 348 CURVE SMOOTH",
"136 535 OFFCURVE",
"249 694 OFFCURVE",
"446 694 CURVE SMOOTH",
"643 694 OFFCURVE",
"753 535 OFFCURVE",
"753 349 CURVE SMOOTH"
);
}
);
width = 891;
}
);
note = O;
unicode = 004F;
},
{
glyphname = P;
lastChange = "2017-12-18 12:10:38 +0000";
layers = (
{
layerId = "0B1DFD06-3317-40CA-B510-4969A0718C16";
paths = (
{
closed = 1;
nodes = (
"704 698 OFFCURVE",
"430 700 OFFCURVE",
"301 700 CURVE SMOOTH",
"75 700 LINE",
"75 0 LINE",
"156 0 LINE",
"156 319 LINE",
"301 319 OFFCURVE",
"704 285 OFFCURVE",
"704 515 CURVE SMOOTH"
);
},
{
closed = 1;
nodes = (
"611 360 OFFCURVE",
"413 358 OFFCURVE",
"300 358 CURVE SMOOTH",
"156 358 LINE",
"156 662 LINE",
"303 662 LINE SMOOTH",
"397 662 OFFCURVE",
"611 653 OFFCURVE",
"611 517 CURVE SMOOTH"
);
}
);
width = 742;
}
);
note = P;
unicode = 0050;
},
{
glyphname = Q;
lastChange = "2017-12-18 12:10:38 +0000";
layers = (
{
layerId = "0B1DFD06-3317-40CA-B510-4969A0718C16";
paths = (
{
closed = 1;
nodes = (
"854 569 OFFCURVE",
"656 722 OFFCURVE",
"446 722 CURVE SMOOTH",
"237 722 OFFCURVE",
"37 568 OFFCURVE",
"37 348 CURVE SMOOTH",
"37 148 OFFCURVE",
"210 -3 OFFCURVE",
"401 -24 CURVE",
"433 -166 OFFCURVE",
"613 -268 OFFCURVE",
"761 -220 CURVE",
"771 -187 LINE",
"661 -207 OFFCURVE",
"533 -151 OFFCURVE",
"514 -21 CURVE",
"695 12 OFFCURVE",
"854 159 OFFCURVE",
"854 349 CURVE SMOOTH"
);
},
{
closed = 1;
nodes = (
"753 163 OFFCURVE",
"643 3 OFFCURVE",
"445 3 CURVE SMOOTH",
"247 3 OFFCURVE",
"136 162 OFFCURVE",
"136 348 CURVE SMOOTH",
"136 535 OFFCURVE",
"249 694 OFFCURVE",
"446 694 CURVE SMOOTH",
"643 694 OFFCURVE",
"753 535 OFFCURVE",
"753 349 CURVE SMOOTH"
);
}
);
width = 891;
}
);
note = Q;
unicode = 0051;
},
{
glyphname = R;
lastChange = "2017-12-18 12:10:38 +0000";
layers = (
{
layerId = "0B1DFD06-3317-40CA-B510-4969A0718C16";
paths = (
{
closed = 1;
nodes = (
"768 0 LINE",
"653 106 OFFCURVE",
"707 331 OFFCURVE",
"503 339 CURVE",
"593 357 OFFCURVE",
"710 406 OFFCURVE",
"710 515 CURVE SMOOTH",
"710 703 OFFCURVE",
"442 700 OFFCURVE",
"310 700 CURVE SMOOTH",
"75 700 LINE",
"75 0 LINE",
"156 0 LINE",
"156 319 LINE",
"440 319 LINE SMOOTH",
"595 319 OFFCURVE",
"581 91 OFFCURVE",
"662 0 CURVE"
);
},
{
closed = 1;
nodes = (
"608 363 OFFCURVE",
"451 358 OFFCURVE",
"334 358 CURVE SMOOTH",
"156 358 LINE",
"156 662 LINE",
"316 662 LINE SMOOTH",
"421 662 OFFCURVE",
"608 661 OFFCURVE",
"608 517 CURVE SMOOTH"
);
}
);
width = 798;
}
);
note = R;
unicode = 0052;
},
{
glyphname = S;
lastChange = "2017-12-18 12:10:38 +0000";
layers = (
{
layerId = "0B1DFD06-3317-40CA-B510-4969A0718C16";
paths = (
{
closed = 1;
nodes = (
"688 451 OFFCURVE",
"148 336 OFFCURVE",
"148 547 CURVE SMOOTH",
"148 658 OFFCURVE",
"271 686 OFFCURVE",
"360 686 CURVE SMOOTH",
"455 686 OFFCURVE",
"565 653 OFFCURVE",
"584 544 CURVE",
"671 544 LINE",
"647 682 OFFCURVE",
"478 719 OFFCURVE",
"361 719 CURVE SMOOTH",
"240 719 OFFCURVE",
"58 676 OFFCURVE",
"58 524 CURVE SMOOTH",
"58 273 OFFCURVE",
"599 391 OFFCURVE",
"599 174 CURVE SMOOTH",
"599 49 OFFCURVE",
"461 10 OFFCURVE",
"360 10 CURVE SMOOTH",
"244 10 OFFCURVE",
"144 84 OFFCURVE",
"136 202 CURVE",
"37 202 LINE",
"51 42 OFFCURVE",
"219 -24 OFFCURVE",
"360 -24 CURVE SMOOTH",
"505 -24 OFFCURVE",
"688 21 OFFCURVE",
"688 199 CURVE SMOOTH"
);
}
);
width = 725;
}
);
note = S;
unicode = 0053;
},
{
glyphname = T;
lastChange = "2017-12-18 12:10:38 +0000";
layers = (
{
layerId = "0B1DFD06-3317-40CA-B510-4969A0718C16";
paths = (
{
closed = 1;
nodes = (
"673 662 LINE",
"673 700 LINE",
"15 700 LINE",
"15 662 LINE",
"301 662 LINE",
"301 0 LINE",
"385 0 LINE",
"385 662 LINE"
);
}
);
width = 688;
}
);
note = T;
unicode = 0054;
},
{
glyphname = U;
lastChange = "2017-12-18 12:10:38 +0000";
layers = (
{
layerId = "0B1DFD06-3317-40CA-B510-4969A0718C16";
paths = (
{
closed = 1;
nodes = (
"783 700 LINE",
"704 700 LINE",
"704 268 LINE SMOOTH",
"704 108 OFFCURVE",
"583 9 OFFCURVE",
"428 9 CURVE SMOOTH",
"274 9 OFFCURVE",
"156 108 OFFCURVE",
"156 268 CURVE SMOOTH",
"156 700 LINE",
"75 700 LINE",
"75 285 LINE SMOOTH",
"75 72 OFFCURVE",
"232 -24 OFFCURVE",
"428 -24 CURVE SMOOTH",
"626 -24 OFFCURVE",
"783 70 OFFCURVE",
"783 285 CURVE SMOOTH"
);
}
);
width = 858;
}
);
note = U;
unicode = 0055;
},
{
glyphname = V;
lastChange = "2017-12-18 12:10:38 +0000";
layers = (
{
layerId = "0B1DFD06-3317-40CA-B510-4969A0718C16";
paths = (
{
closed = 1;
nodes = (
"762 700 LINE",
"715 700 LINE",
"400 97 LINE",
"99 700 LINE",
"7 700 LINE",
"367 -19 LINE",
"382 -19 LINE"
);
}
);
width = 770;
}
);
note = V;
unicode = 0056;
},
{
glyphname = W;
lastChange = "2017-12-18 12:10:38 +0000";
layers = (
{
layerId = "0B1DFD06-3317-40CA-B510-4969A0718C16";
paths = (
{
closed = 1;
nodes = (
"1017 700 LINE",
"975 700 LINE",
"758 130 LINE",
"527 700 LINE",
"529 700 LINE",
"509 700 LINE",
"310 141 LINE",
"96 700 LINE",
"7 700 LINE",
"282 -19 LINE",
"297 -19 LINE",
"496 551 LINE",
"728 -19 LINE",
"742 -19 LINE"
);
}
);
width = 1025;
}
);
note = W;
unicode = 0057;
},
{
glyphname = X;
lastChange = "2017-12-18 12:10:38 +0000";
layers = (
{
layerId = "0B1DFD06-3317-40CA-B510-4969A0718C16";
paths = (
{
closed = 1;
nodes = (
"646 -1 LINE",
"370 376 LINE",
"644 700 LINE",
"601 700 LINE",
"349 403 LINE",
"132 700 LINE",
"40 700 LINE",
"300 343 LINE",
"7 -1 LINE",
"51 -1 LINE",
"319 316 LINE",
"556 -1 LINE"
);
}
);
width = 653;
}
);
note = X;
unicode = 0058;
},
{
glyphname = Y;
lastChange = "2017-12-18 12:10:38 +0000";
layers = (
{
layerId = "0B1DFD06-3317-40CA-B510-4969A0718C16";
paths = (
{
closed = 1;
nodes = (
"713 700 LINE",
"665 700 LINE",
"370 342 LINE",
"96 700 LINE",
"7 700 LINE",
"309 300 LINE",
"309 0 LINE",
"392 0 LINE",
"392 315 LINE"
);
}
);
width = 721;
}
);
note = Y;
unicode = 0059;
},
{
glyphname = Z;
lastChange = "2017-12-18 12:10:38 +0000";
layers = (
{
layerId = "0B1DFD06-3317-40CA-B510-4969A0718C16";
paths = (
{
closed = 1;
nodes = (
"628 700 LINE",
"61 700 LINE",
"49 662 LINE",
"509 662 LINE",
"15 0 LINE",
"602 0 LINE",
"614 36 LINE",
"136 36 LINE"
);
}
);
width = 643;
}
);
note = Z;
unicode = 005A;
},
{
glyphname = a;
lastChange = "2017-12-18 12:11:47 +0000";
layers = (
{
layerId = "0B1DFD06-3317-40CA-B510-4969A0718C16";
paths = (
{
closed = 1;
nodes = (
"557 0 LINE",
"506 103 OFFCURVE",
"536 232 OFFCURVE",
"532 343 CURVE SMOOTH",
"526 452 OFFCURVE",
"485 538 OFFCURVE",
"297 538 CURVE SMOOTH",
"186 538 OFFCURVE",
"84 499 OFFCURVE",
"57 377 CURVE",
"139 377 LINE",
"139 454 OFFCURVE",
"229 500 OFFCURVE",
"297 500 CURVE SMOOTH",
"397 500 OFFCURVE",
"464 448 OFFCURVE",
"464 345 CURVE SMOOTH",
"464 324 LINE",
"337 324 OFFCURVE",
"30 334 OFFCURVE",
"30 148 CURVE SMOOTH",
"30 31 OFFCURVE",
"150 -15 OFFCURVE",
"249 -15 CURVE SMOOTH",
"343 -15 OFFCURVE",
"416 9 OFFCURVE",
"470 87 CURVE",
"472 57 OFFCURVE",
"478 31 OFFCURVE",
"488 0 CURVE"
);
},
{
closed = 1;
nodes = (
"464 286 LINE",
"464 238 LINE SMOOTH",
"464 123 OFFCURVE",
"400 19 OFFCURVE",
"276 19 CURVE SMOOTH",
"199 19 OFFCURVE",
"117 64 OFFCURVE",
"117 147 CURVE SMOOTH",
"117 265 OFFCURVE",
"267 286 OFFCURVE",
"363 286 CURVE SMOOTH"
);
}
);
width = 602;
}
);
note = a;
unicode = 0061;
},
{
glyphname = b;
lastChange = "2017-12-18 12:11:47 +0000";
layers = (
{
layerId = "0B1DFD06-3317-40CA-B510-4969A0718C16";
paths = (
{
closed = 1;
nodes = (
"623 421 OFFCURVE",
"517 539 OFFCURVE",
"354 539 CURVE SMOOTH",
"258 539 OFFCURVE",
"177 500 OFFCURVE",
"136 415 CURVE",
"136 725 LINE",
"67 725 LINE",
"67 0 LINE",
"136 0 LINE",
"136 94 LINE",
"183 18 OFFCURVE",
"264 -16 OFFCURVE",
"354 -16 CURVE SMOOTH",
"508 -16 OFFCURVE",
"623 112 OFFCURVE",
"623 262 CURVE SMOOTH"
);
},
{
closed = 1;
nodes = (
"541 141 OFFCURVE",
"466 21 OFFCURVE",
"336 21 CURVE SMOOTH",
"211 21 OFFCURVE",
"136 145 OFFCURVE",
"136 259 CURVE SMOOTH",
"136 372 OFFCURVE",
"211 503 OFFCURVE",
"336 503 CURVE SMOOTH",
"469 503 OFFCURVE",
"541 379 OFFCURVE",
"541 259 CURVE SMOOTH"
);
}
);
width = 653;
}
);
note = b;
unicode = 0062;
},
{
glyphname = c;
lastChange = "2017-12-18 12:11:47 +0000";
layers = (
{
layerId = "0B1DFD06-3317-40CA-B510-4969A0718C16";
paths = (
{
closed = 1;
nodes = (
"586 377 LINE",
"554 493 OFFCURVE",
"433 538 OFFCURVE",
"328 538 CURVE SMOOTH",
"169 538 OFFCURVE",
"30 424 OFFCURVE",
"30 261 CURVE SMOOTH",
"30 97 OFFCURVE",
"169 -16 OFFCURVE",
"328 -16 CURVE SMOOTH",
"433 -16 OFFCURVE",
"554 28 OFFCURVE",
"586 144 CURVE",
"500 144 LINE",
"472 64 OFFCURVE",
"406 22 OFFCURVE",
"322 22 CURVE SMOOTH",
"187 22 OFFCURVE",
"117 144 OFFCURVE",
"117 267 CURVE SMOOTH",
"117 383 OFFCURVE",
"195 500 OFFCURVE",
"322 500 CURVE SMOOTH",
"406 500 OFFCURVE",
"470 457 OFFCURVE",
"499 377 CURVE"
);
}
);
width = 616;
}
);
note = c;
unicode = 0063;
},
{
glyphname = d;
lastChange = "2017-12-18 12:11:47 +0000";
layers = (
{
layerId = "0B1DFD06-3317-40CA-B510-4969A0718C16";
paths = (
{
closed = 1;
nodes = (
"586 0 LINE",
"586 725 LINE",
"517 725 LINE",
"517 415 LINE",
"476 500 OFFCURVE",
"395 539 OFFCURVE",
"300 539 CURVE SMOOTH",
"136 539 OFFCURVE",
"30 421 OFFCURVE",
"30 262 CURVE SMOOTH",
"30 112 OFFCURVE",
"145 -16 OFFCURVE",
"300 -16 CURVE SMOOTH",
"389 -16 OFFCURVE",
"470 18 OFFCURVE",
"517 94 CURVE",
"517 0 LINE"
);
},
{
closed = 1;
nodes = (
"517 144 OFFCURVE",
"443 21 OFFCURVE",
"318 21 CURVE SMOOTH",
"187 21 OFFCURVE",
"114 141 OFFCURVE",
"114 259 CURVE SMOOTH",
"114 379 OFFCURVE",
"184 503 OFFCURVE",
"318 503 CURVE SMOOTH",
"443 503 OFFCURVE",
"517 373 OFFCURVE",
"517 259 CURVE SMOOTH"
);
}
);
width = 653;
}
);
note = d;
unicode = 0064;
},
{
glyphname = e;
lastChange = "2017-12-18 12:11:47 +0000";
layers = (
{
layerId = "0B1DFD06-3317-40CA-B510-4969A0718C16";
paths = (
{
closed = 1;
nodes = (
"605 325 LINE",
"592 470 OFFCURVE",
"461 538 OFFCURVE",
"330 538 CURVE SMOOTH",
"163 538 OFFCURVE",
"37 421 OFFCURVE",
"37 255 CURVE SMOOTH",
"37 90 OFFCURVE",
"186 -16 OFFCURVE",
"342 -16 CURVE SMOOTH",
"460 -16 OFFCURVE",
"592 52 OFFCURVE",
"601 186 CURVE",
"527 186 LINE",
"518 93 OFFCURVE",
"433 21 OFFCURVE",
"343 21 CURVE SMOOTH",
"207 21 OFFCURVE",
"127 127 OFFCURVE",
"127 256 CURVE SMOOTH",
"127 279 OFFCURVE",
"124 303 OFFCURVE",
"132 325 CURVE"
);
},
{
closed = 1;
nodes = (
"145 363 LINE",
"166 443 OFFCURVE",
"238 502 OFFCURVE",
"324 502 CURVE SMOOTH",
"412 502 OFFCURVE",
"488 446 OFFCURVE",
"515 363 CURVE"
);
}
);
width = 643;
}
);
note = e;
unicode = 0065;
},
{
glyphname = f;
lastChange = "2017-12-18 12:11:47 +0000";
layers = (
{
layerId = "0B1DFD06-3317-40CA-B510-4969A0718C16";
paths = (
{
closed = 1;
nodes = (
"334 724 LINE",
"313 725 LINE SMOOTH",
"175 731 OFFCURVE",
"111 617 OFFCURVE",
"109 496 CURVE",
"39 496 LINE",
"22 457 LINE",
"109 457 LINE",
"109 0 LINE",
"180 0 LINE",
"180 457 LINE",
"264 457 LINE",
"280 496 LINE",
"180 496 LINE",
"180 577 LINE SMOOTH",
"180 632 OFFCURVE",
"223 667 OFFCURVE",
"277 667 CURVE SMOOTH",
"295 667 OFFCURVE",
"313 662 OFFCURVE",
"334 653 CURVE"
);
}
);
width = 312;
}
);
note = f;
unicode = 0066;
},
{
glyphname = g;
lastChange = "2017-12-18 12:11:47 +0000";
layers = (
{
layerId = "0B1DFD06-3317-40CA-B510-4969A0718C16";
paths = (
{
closed = 1;
nodes = (
"607 64 OFFCURVE",
"500 90 OFFCURVE",
"397 102 CURVE SMOOTH",
"346 108 OFFCURVE",
"294 109 OFFCURVE",
"256 115 CURVE SMOOTH",
"216 121 OFFCURVE",
"193 129 OFFCURVE",
"193 144 CURVE SMOOTH",
"193 153 OFFCURVE",
"198 159 OFFCURVE",
"207 162 CURVE",
"219 168 OFFCURVE",
"265 169 OFFCURVE",
"280 171 CURVE",
"395 177 OFFCURVE",
"562 195 OFFCURVE",
"562 352 CURVE SMOOTH",
"562 428 OFFCURVE",
"500 482 OFFCURVE",
"436 511 CURVE",
"460 530 OFFCURVE",
"494 541 OFFCURVE",
"524 541 CURVE SMOOTH",
"547 541 OFFCURVE",
"569 535 OFFCURVE",
"595 527 CURVE",
"595 607 LINE",
"577 607 LINE SMOOTH",
"502 608 OFFCURVE",
"445 584 OFFCURVE",
"400 521 CURVE",
"370 532 OFFCURVE",
"339 535 OFFCURVE",
"307 535 CURVE SMOOTH",
"204 535 OFFCURVE",
"52 478 OFFCURVE",
"52 352 CURVE SMOOTH",
"52 280 OFFCURVE",
"126 207 OFFCURVE",
"195 184 CURVE",
"159 180 OFFCURVE",
"111 160 OFFCURVE",
"111 123 CURVE SMOOTH",
"111 88 OFFCURVE",
"142 70 OFFCURVE",
"172 61 CURVE",
"111 49 OFFCURVE",
"13 21 OFFCURVE",
"13 -54 CURVE SMOOTH",
"13 -168 OFFCURVE",
"208 -199 OFFCURVE",
"291 -199 CURVE SMOOTH",
"394 -199 OFFCURVE",
"607 -175 OFFCURVE",
"607 -31 CURVE SMOOTH"
);
},
{
closed = 1;
nodes = (
"479 247 OFFCURVE",
"407 205 OFFCURVE",
"309 205 CURVE SMOOTH",
"210 205 OFFCURVE",
"136 246 OFFCURVE",
"136 351 CURVE SMOOTH",
"136 455 OFFCURVE",
"211 497 OFFCURVE",
"309 497 CURVE SMOOTH",
"407 497 OFFCURVE",
"479 455 OFFCURVE",
"479 351 CURVE SMOOTH"
);
},
{
closed = 1;
nodes = (
"535 -141 OFFCURVE",
"377 -166 OFFCURVE",
"315 -166 CURVE SMOOTH",
"246 -166 OFFCURVE",
"93 -150 OFFCURVE",
"93 -60 CURVE SMOOTH",
"93 45 OFFCURVE",
"235 46 OFFCURVE",
"315 46 CURVE SMOOTH",
"389 46 OFFCURVE",
"535 37 OFFCURVE",
"535 -60 CURVE SMOOTH"
);
}
);
width = 644;
}
);
note = g;
unicode = 0067;
},
{
glyphname = h;
lastChange = "2017-12-18 12:11:47 +0000";
layers = (
{
layerId = "0B1DFD06-3317-40CA-B510-4969A0718C16";
paths = (
{
closed = 1;
nodes = (
"560 0 LINE",
"560 354 LINE SMOOTH",
"560 490 OFFCURVE",
"437 538 OFFCURVE",
"321 538 CURVE SMOOTH",
"246 538 OFFCURVE",
"171 490 OFFCURVE",
"136 425 CURVE",
"136 686 LINE",
"67 686 LINE",
"67 0 LINE",
"136 0 LINE",
"136 295 LINE SMOOTH",
"136 400 OFFCURVE",
"208 500 OFFCURVE",
"321 500 CURVE SMOOTH",
"407 500 OFFCURVE",
"488 457 OFFCURVE",
"488 363 CURVE SMOOTH",
"488 0 LINE"
);
}
);
width = 628;
}
);
note = h;
unicode = 0068;
},
{
glyphname = i;
lastChange = "2017-12-18 12:11:47 +0000";
layers = (
{
layerId = "0B1DFD06-3317-40CA-B510-4969A0718C16";
paths = (
{
closed = 1;
nodes = (
"184 668 OFFCURVE",
"162 691 OFFCURVE",
"133 691 CURVE SMOOTH",
"106 691 OFFCURVE",
"82 668 OFFCURVE",
"82 641 CURVE SMOOTH",
"82 613 OFFCURVE",
"106 590 OFFCURVE",
"133 590 CURVE SMOOTH",
"162 590 OFFCURVE",
"184 613 OFFCURVE",
"184 641 CURVE SMOOTH"
);
},
{
closed = 1;
nodes = (
"166 0 LINE",
"166 523 LINE",
"97 523 LINE",
"97 0 LINE"
);
}
);
width = 267;
}
);
note = i;
unicode = 0069;
},
{
glyphname = j;
lastChange = "2017-12-18 12:11:47 +0000";
layers = (
{
layerId = "0B1DFD06-3317-40CA-B510-4969A0718C16";
paths = (
{
closed = 1;
nodes = (
"207 667 OFFCURVE",
"183 691 OFFCURVE",
"154 691 CURVE SMOOTH",
"124 691 OFFCURVE",
"100 667 OFFCURVE",
"100 638 CURVE SMOOTH",
"100 610 OFFCURVE",
"124 586 OFFCURVE",
"154 586 CURVE SMOOTH",
"183 586 OFFCURVE",
"207 610 OFFCURVE",
"207 638 CURVE SMOOTH"
);
},
{
closed = 1;
nodes = (
"190 523 LINE",
"115 523 LINE",
"115 48 LINE SMOOTH",
"115 -27 OFFCURVE",
"106 -136 OFFCURVE",
"13 -136 CURVE SMOOTH",
"-12 -136 OFFCURVE",
"-33 -129 OFFCURVE",
"-52 -103 CURVE",
"-84 -157 LINE",
"-57 -177 OFFCURVE",
"-16 -184 OFFCURVE",
"12 -184 CURVE SMOOTH",
"154 -184 OFFCURVE",
"190 -45 OFFCURVE",
"190 64 CURVE SMOOTH"
);
}
);
width = 282;
}
);
note = j;
unicode = 006A;
},
{
glyphname = k;
lastChange = "2017-12-18 12:11:47 +0000";
layers = (
{
layerId = "0B1DFD06-3317-40CA-B510-4969A0718C16";
paths = (
{
closed = 1;
nodes = (
"572 0 LINE",
"313 367 LINE",
"508 523 LINE",
"443 523 LINE",
"151 286 LINE",
"151 725 LINE",
"82 725 LINE",
"82 0 LINE",
"151 0 LINE",
"151 238 LINE",
"261 325 LINE",
"493 0 LINE"
);
}
);
width = 587;
}
);
note = k;
unicode = 006B;
},
{
glyphname = l;
lastChange = "2017-12-18 12:11:47 +0000";
layers = (
{
layerId = "0B1DFD06-3317-40CA-B510-4969A0718C16";
paths = (
{
closed = 1;
nodes = (
"151 0 LINE",
"151 725 LINE",
"82 725 LINE",
"82 0 LINE"
);
}
);
width = 234;
}
);
note = l;
unicode = 006C;
},
{
glyphname = m;
lastChange = "2017-12-18 12:11:47 +0000";
layers = (
{
layerId = "0B1DFD06-3317-40CA-B510-4969A0718C16";
paths = (
{
closed = 1;
nodes = (
"918 0 LINE",
"918 343 LINE SMOOTH",
"918 475 OFFCURVE",
"819 536 OFFCURVE",
"697 536 CURVE SMOOTH",
"601 536 OFFCURVE",
"547 488 OFFCURVE",
"517 404 CURVE",
"488 488 OFFCURVE",
"424 536 OFFCURVE",
"331 536 CURVE SMOOTH",
"244 536 OFFCURVE",
"175 499 OFFCURVE",
"136 424 CURVE",
"136 521 LINE",
"67 521 LINE",
"67 0 LINE",
"136 0 LINE",
"136 31 OFFCURVE",
"132 76 OFFCURVE",
"130 129 CURVE SMOOTH",
"129 181 OFFCURVE",
"130 240 OFFCURVE",
"138 295 CURVE SMOOTH",
"153 406 OFFCURVE",
"198 499 OFFCURVE",
"313 499 CURVE SMOOTH",
"433 499 OFFCURVE",
"463 386 OFFCURVE",
"463 288 CURVE SMOOTH",
"463 0 LINE",
"535 0 LINE",
"535 267 LINE SMOOTH",
"535 376 OFFCURVE",
"557 499 OFFCURVE",
"691 499 CURVE SMOOTH",
"779 499 OFFCURVE",
"846 440 OFFCURVE",
"846 352 CURVE SMOOTH",
"846 0 LINE"
);
}
);
width = 986;
}
);
note = m;
unicode = 006D;
},
{
glyphname = n;
lastChange = "2017-12-18 12:11:47 +0000";
layers = (
{
layerId = "0B1DFD06-3317-40CA-B510-4969A0718C16";
paths = (
{
closed = 1;
nodes = (
"560 0 LINE",
"560 352 LINE SMOOTH",
"560 488 OFFCURVE",
"437 536 OFFCURVE",
"321 536 CURVE SMOOTH",
"246 536 OFFCURVE",
"171 490 OFFCURVE",
"136 424 CURVE",
"136 521 LINE",
"67 521 LINE",
"67 0 LINE",
"136 0 LINE",
"136 294 LINE SMOOTH",
"136 400 OFFCURVE",
"208 499 OFFCURVE",
"321 499 CURVE SMOOTH",
"407 499 OFFCURVE",
"488 455 OFFCURVE",
"488 361 CURVE SMOOTH",
"488 0 LINE"
);
}
);
width = 628;
}
);
note = n;
unicode = 006E;
},
{
glyphname = o;
lastChange = "2017-12-18 12:11:47 +0000";
layers = (
{
layerId = "0B1DFD06-3317-40CA-B510-4969A0718C16";
paths = (
{
closed = 1;
nodes = (
"629 430 OFFCURVE",
"500 535 OFFCURVE",
"334 535 CURVE SMOOTH",
"169 535 OFFCURVE",
"37 428 OFFCURVE",
"37 259 CURVE SMOOTH",
"37 91 OFFCURVE",
"169 -15 OFFCURVE",
"333 -15 CURVE SMOOTH",
"496 -15 OFFCURVE",
"629 91 OFFCURVE",
"629 259 CURVE SMOOTH"
);
},
{
closed = 1;
nodes = (
"545 123 OFFCURVE",
"484 22 OFFCURVE",
"336 22 CURVE SMOOTH",
"186 22 OFFCURVE",
"123 124 OFFCURVE",
"123 261 CURVE SMOOTH",
"123 397 OFFCURVE",
"184 497 OFFCURVE",
"334 497 CURVE SMOOTH",
"482 497 OFFCURVE",
"545 397 OFFCURVE",
"545 259 CURVE SMOOTH"
);
}
);
width = 667;
}
);
note = o;
unicode = 006F;
},
{
glyphname = p;
lastChange = "2017-12-18 12:11:47 +0000";
layers = (
{
layerId = "0B1DFD06-3317-40CA-B510-4969A0718C16";
paths = (
{
closed = 1;
nodes = (
"623 409 OFFCURVE",
"508 535 OFFCURVE",
"354 535 CURVE SMOOTH",
"264 535 OFFCURVE",
"181 500 OFFCURVE",
"135 422 CURVE",
"123 520 LINE",
"67 520 LINE",
"67 -193 LINE",
"136 -193 LINE",
"136 105 LINE",
"177 19 OFFCURVE",
"258 -19 OFFCURVE",
"354 -19 CURVE SMOOTH",
"517 -19 OFFCURVE",
"623 99 OFFCURVE",
"623 258 CURVE SMOOTH"
);
},
{
closed = 1;
nodes = (
"541 141 OFFCURVE",
"467 16 OFFCURVE",
"336 16 CURVE SMOOTH",
"210 16 OFFCURVE",
"136 147 OFFCURVE",
"136 261 CURVE SMOOTH",
"136 375 OFFCURVE",
"211 497 OFFCURVE",
"336 497 CURVE SMOOTH",
"466 497 OFFCURVE",
"541 379 OFFCURVE",
"541 261 CURVE SMOOTH"
);
}
);
width = 653;
}
);
note = p;
unicode = 0070;
},
{
glyphname = q;
lastChange = "2017-12-18 12:11:47 +0000";
layers = (
{
layerId = "0B1DFD06-3317-40CA-B510-4969A0718C16";
paths = (
{
closed = 1;
nodes = (
"586 -193 LINE",
"586 520 LINE",
"530 520 LINE",
"518 422 LINE",
"472 500 OFFCURVE",
"389 535 OFFCURVE",
"300 535 CURVE SMOOTH",
"145 535 OFFCURVE",
"30 409 OFFCURVE",
"30 258 CURVE SMOOTH",
"30 99 OFFCURVE",
"136 -19 OFFCURVE",
"300 -19 CURVE SMOOTH",
"395 -19 OFFCURVE",
"476 19 OFFCURVE",
"517 105 CURVE",
"517 -193 LINE"
);
},
{
closed = 1;
nodes = (
"517 145 OFFCURVE",
"445 16 OFFCURVE",
"318 16 CURVE SMOOTH",
"186 16 OFFCURVE",
"114 141 OFFCURVE",
"114 261 CURVE SMOOTH",
"114 379 OFFCURVE",
"187 497 OFFCURVE",
"318 497 CURVE SMOOTH",
"443 497 OFFCURVE",
"517 376 OFFCURVE",
"517 261 CURVE SMOOTH"
);
}
);
width = 653;
}
);
note = q;
unicode = 0071;
},
{
glyphname = r;
lastChange = "2017-12-18 12:11:47 +0000";
layers = (
{
layerId = "0B1DFD06-3317-40CA-B510-4969A0718C16";
paths = (
{
closed = 1;
nodes = (
"343 532 LINE",
"321 533 LINE SMOOTH",
"246 538 OFFCURVE",
"162 479 OFFCURVE",
"136 406 CURVE",
"136 521 LINE",
"67 521 LINE",
"67 0 LINE",
"136 0 LINE",
"136 270 LINE SMOOTH",
"136 369 OFFCURVE",
"175 470 OFFCURVE",
"289 470 CURVE SMOOTH",
"303 470 OFFCURVE",
"316 467 OFFCURVE",
"333 461 CURVE"
);
}
);
width = 358;
}
);
note = r;
unicode = 0072;
},
{
glyphname = s;
lastChange = "2017-12-18 12:11:47 +0000";
layers = (
{
layerId = "0B1DFD06-3317-40CA-B510-4969A0718C16";
paths = (
{
closed = 1;
nodes = (
"541 252 OFFCURVE",
"436 270 OFFCURVE",
"337 288 CURVE SMOOTH",
"294 295 OFFCURVE",
"240 303 OFFCURVE",
"199 321 CURVE SMOOTH",
"162 337 OFFCURVE",
"138 361 OFFCURVE",
"138 404 CURVE SMOOTH",
"138 482 OFFCURVE",
"228 497 OFFCURVE",
"292 497 CURVE SMOOTH",
"372 497 OFFCURVE",
"448 454 OFFCURVE",
"463 370 CURVE",
"536 370 LINE",
"515 488 OFFCURVE",
"398 535 OFFCURVE",
"294 535 CURVE SMOOTH",
"204 535 OFFCURVE",
"66 503 OFFCURVE",
"66 389 CURVE SMOOTH",
"66 279 OFFCURVE",
"169 255 OFFCURVE",
"270 238 CURVE SMOOTH",
"294 234 OFFCURVE",
"319 229 OFFCURVE",
"343 225 CURVE SMOOTH",
"366 220 OFFCURVE",
"388 216 OFFCURVE",
"406 208 CURVE SMOOTH",
"443 193 OFFCURVE",
"467 171 OFFCURVE",
"467 130 CURVE SMOOTH",
"467 39 OFFCURVE",
"366 19 OFFCURVE",
"289 19 CURVE SMOOTH",
"211 19 OFFCURVE",
"124 64 OFFCURVE",
"111 148 CURVE",
"37 148 LINE",
"60 31 OFFCURVE",
"187 -18 OFFCURVE",
"289 -18 CURVE SMOOTH",
"397 -18 OFFCURVE",
"541 15 OFFCURVE",
"541 150 CURVE SMOOTH"
);
}
);
width = 578;
}
);
note = s;
unicode = 0073;
},
{
glyphname = t;
lastChange = "2017-12-18 12:11:47 +0000";
layers = (
{
layerId = "0B1DFD06-3317-40CA-B510-4969A0718C16";
paths = (
{
closed = 1;
nodes = (
"325 55 LINE",
"298 42 OFFCURVE",
"276 33 OFFCURVE",
"250 33 CURVE SMOOTH",
"189 33 OFFCURVE",
"178 84 OFFCURVE",
"178 135 CURVE SMOOTH",
"178 457 LINE",
"280 457 LINE",
"280 493 LINE",
"178 493 LINE",
"178 641 LINE",
"159 641 LINE",
"102 493 LINE",
"30 493 LINE",
"30 457 LINE",
"109 457 LINE",
"109 157 LINE SMOOTH",
"109 69 OFFCURVE",
"139 -9 OFFCURVE",
"243 -9 CURVE SMOOTH",
"271 -9 OFFCURVE",
"298 -3 OFFCURVE",
"325 9 CURVE"
);
}
);
width = 328;
}
);
note = t;
unicode = 0074;
},
{
glyphname = u;
lastChange = "2017-12-18 12:11:47 +0000";
layers = (
{
layerId = "0B1DFD06-3317-40CA-B510-4969A0718C16";
paths = (
{
closed = 1;
nodes = (
"560 0 LINE",
"560 521 LINE",
"491 521 LINE",
"491 228 LINE SMOOTH",
"491 123 OFFCURVE",
"419 21 OFFCURVE",
"307 21 CURVE SMOOTH",
"220 21 OFFCURVE",
"139 66 OFFCURVE",
"139 159 CURVE SMOOTH",
"139 521 LINE",
"67 521 LINE",
"67 168 LINE SMOOTH",
"67 31 OFFCURVE",
"190 -16 OFFCURVE",
"307 -16 CURVE SMOOTH",
"379 -16 OFFCURVE",
"457 34 OFFCURVE",
"491 97 CURVE",
"491 0 LINE"
);
}
);
width = 628;
}
);
note = u;
unicode = 0075;
},
{
glyphname = v;
lastChange = "2017-12-18 12:11:47 +0000";
layers = (
{
layerId = "0B1DFD06-3317-40CA-B510-4969A0718C16";
paths = (
{
closed = 1;
nodes = (
"562 521 LINE",
"521 521 LINE",
"304 93 LINE",
"82 521 LINE",
"4 521 LINE",
"280 -16 LINE",
"291 -16 LINE"
);
}
);
width = 566;
}
);
note = v;
unicode = 0076;
},
{
glyphname = w;
lastChange = "2017-12-18 12:11:47 +0000";
layers = (
{
layerId = "0B1DFD06-3317-40CA-B510-4969A0718C16";
paths = (
{
closed = 1;
nodes = (
"873 521 LINE",
"833 521 LINE",
"644 94 LINE",
"458 527 LINE",
"448 527 LINE",
"274 91 LINE",
"79 521 LINE",
"4 521 LINE",
"252 -16 LINE",
"262 -16 LINE",
"439 401 LINE",
"619 -16 LINE",
"629 -16 LINE"
);
}
);
width = 878;
}
);
note = w;
unicode = 0077;
},
{
glyphname = x;
lastChange = "2017-12-18 12:11:47 +0000";
layers = (
{
layerId = "0B1DFD06-3317-40CA-B510-4969A0718C16";
paths = (
{
closed = 1;
nodes = (
"527 0 LINE",
"288 282 LINE",
"491 521 LINE",
"446 521 LINE",
"265 307 LINE",
"85 521 LINE",
"4 521 LINE",
"225 261 LINE",
"4 0 LINE",
"49 0 LINE",
"247 234 LINE",
"446 0 LINE"
);
}
);
width = 532;
}
);
note = x;
unicode = 0078;
},
{
glyphname = y;
lastChange = "2017-12-18 12:11:47 +0000";
layers = (
{
layerId = "0B1DFD06-3317-40CA-B510-4969A0718C16";
paths = (
{
closed = 1;
nodes = (
"186 -198 OFFCURVE",
"250 -106 OFFCURVE",
"297 -15 CURVE SMOOTH",
"566 521 LINE",
"524 521 LINE",
"307 88 LINE",
"82 521 LINE",
"4 521 LINE",
"238 69 LINE SMOOTH",
"249 48 OFFCURVE",
"256 28 OFFCURVE",
"256 6 CURVE SMOOTH",
"256 -58 OFFCURVE",
"175 -150 OFFCURVE",
"108 -150 CURVE SMOOTH",
"82 -150 OFFCURVE",
"61 -142 OFFCURVE",
"42 -117 CURVE",
"10 -171 LINE",
"37 -190 OFFCURVE",
"75 -198 OFFCURVE",
"103 -198 CURVE SMOOTH"
);
}
);
width = 571;
}
);
note = y;
unicode = 0079;
},
{
glyphname = z;
lastChange = "2017-12-18 12:11:47 +0000";
layers = (
{
layerId = "0B1DFD06-3317-40CA-B510-4969A0718C16";
paths = (
{
closed = 1;
nodes = (
"517 521 LINE",
"75 521 LINE",
"63 484 LINE",
"406 484 LINE",
"15 0 LINE",
"484 0 LINE",
"500 39 LINE",
"127 39 LINE"
);
}
);
width = 532;
}
);
note = z;
unicode = 007A;
},
{
glyphname = AE;
lastChange = "2017-12-18 12:12:00 +0000";
layers = (
{
layerId = "0B1DFD06-3317-40CA-B510-4969A0718C16";
paths = (
{
closed = 1;
nodes = (
"1056 0 LINE",
"1056 36 LINE",
"625 36 LINE",
"625 358 LINE",
"950 358 LINE",
"950 394 LINE",
"625 394 LINE",
"625 662 LINE",
"1056 662 LINE",
"1056 700 LINE",
"478 700 LINE",
"0 0 LINE",
"52 0 LINE",
"295 358 LINE",
"542 358 LINE",
"542 0 LINE"
);
},
{
closed = 1;
nodes = (
"542 394 LINE",
"321 394 LINE",
"503 662 LINE",
"542 662 LINE"
);
}
);
width = 1071;
}
);
note = AE;
unicode = 00C6;
},
{
glyphname = Eth;
lastChange = "2017-12-18 12:12:18 +0000";
layers = (
{
layerId = "0B1DFD06-3317-40CA-B510-4969A0718C16";
paths = (
{
closed = 1;
nodes = (
"822 554 OFFCURVE",
"701 700 OFFCURVE",
"349 700 CURVE SMOOTH",
"100 700 LINE",
"100 394 LINE",
"16 394 LINE",
"16 358 LINE",
"100 358 LINE",
"100 0 LINE",
"355 0 LINE SMOOTH",
"719 0 OFFCURVE",
"822 165 OFFCURVE",
"822 372 CURVE SMOOTH"
);
},
{
closed = 1;
nodes = (
"724 162 OFFCURVE",
"640 34 OFFCURVE",
"370 36 CURVE SMOOTH",
"181 36 LINE",
"181 358 LINE",
"383 358 LINE",
"383 394 LINE",
"181 394 LINE",
"181 662 LINE",
"370 662 LINE SMOOTH",
"640 662 OFFCURVE",
"724 536 OFFCURVE",
"724 372 CURVE SMOOTH"
);
}
);
width = 860;
}
);
note = Eth;
unicode = 00D0;
},
{
glyphname = Dcroat;
lastChange = "2017-12-18 12:12:31 +0000";
layers = (
{
layerId = "0B1DFD06-3317-40CA-B510-4969A0718C16";
paths = (
{
closed = 1;
nodes = (
"822 554 OFFCURVE",
"701 700 OFFCURVE",
"349 700 CURVE SMOOTH",
"100 700 LINE",
"100 394 LINE",
"16 394 LINE",
"16 358 LINE",
"100 358 LINE",
"100 0 LINE",
"355 0 LINE SMOOTH",
"719 0 OFFCURVE",
"822 165 OFFCURVE",
"822 372 CURVE SMOOTH"
);
},
{
closed = 1;
nodes = (
"724 162 OFFCURVE",
"640 34 OFFCURVE",
"370 36 CURVE SMOOTH",
"181 36 LINE",
"181 358 LINE",
"383 358 LINE",
"383 394 LINE",
"181 394 LINE",
"181 662 LINE",
"370 662 LINE SMOOTH",
"640 662 OFFCURVE",
"724 536 OFFCURVE",
"724 372 CURVE SMOOTH"
);
}
);
width = 860;
}
);
note = Dcroat;
rightKerningGroup = D;
unicode = 0110;
},
{
glyphname = Eacute;
lastChange = "2017-12-18 10:26:13 +0000";
layers = (
{
background = {
paths = (
{
closed = 1;
nodes = (
"554 0 LINE",
"571 179 LINE",
"544 179 LINE",
"538 124 OFFCURVE",
"520 40 OFFCURVE",
"456 40 CURVE SMOOTH",
"201 40 LINE",
"201 659 LINE",
"441 659 LINE SMOOTH",
"516 659 OFFCURVE",
"525 567 OFFCURVE",
"528 527 CURVE",
"555 527 LINE",
"555 700 LINE",
"16 700 LINE",
"16 673 LINE",
"44 673 LINE SMOOTH",
"83 673 OFFCURVE",
"103 662 OFFCURVE",
"103 637 CURVE SMOOTH",
"103 62 LINE SMOOTH",
"103 37 OFFCURVE",
"83 26 OFFCURVE",
"44 26 CURVE SMOOTH",
"16 26 LINE",
"16 0 LINE"
);
},
{
closed = 1;
nodes = (
"455 251 LINE",
"455 485 LINE",
"431 485 LINE",
"427 436 OFFCURVE",
"424 388 OFFCURVE",
"379 388 CURVE SMOOTH",
"162 388 LINE",
"162 348 LINE",
"379 348 LINE SMOOTH",
"424 348 OFFCURVE",
"427 300 OFFCURVE",
"431 251 CURVE"
);
},
{
closed = 1;
nodes = (
"398 865 LINE SMOOTH",
"420 877 OFFCURVE",
"432 890 OFFCURVE",
"432 907 CURVE SMOOTH",
"432 922 OFFCURVE",
"420 937 OFFCURVE",
"398 937 CURVE SMOOTH",
"377 937 OFFCURVE",
"362 921 OFFCURVE",
"354 914 CURVE SMOOTH",
"239 807 LINE",
"256 782 LINE"
);
}
);
};
components = (
{
name = E;
},
{
name = acute;
transform = "{1, 0, 0, 1, 56, 230}";
}
);
layerId = "0B1DFD06-3317-40CA-B510-4969A0718C16";
width = 607;
}
);
note = Eacute;
unicode = 00C9;
},
{
glyphname = Ebreve;
lastChange = "2017-12-18 10:26:13 +0000";
layers = (
{
background = {
paths = (
{
closed = 1;
nodes = (
"554 0 LINE",
"571 179 LINE",
"544 179 LINE",
"538 124 OFFCURVE",
"520 40 OFFCURVE",
"456 40 CURVE SMOOTH",
"201 40 LINE",
"201 659 LINE",
"441 659 LINE SMOOTH",
"516 659 OFFCURVE",
"525 567 OFFCURVE",
"528 527 CURVE",
"555 527 LINE",
"555 700 LINE",
"16 700 LINE",
"16 673 LINE",
"44 673 LINE SMOOTH",
"83 673 OFFCURVE",
"103 662 OFFCURVE",
"103 637 CURVE SMOOTH",
"103 62 LINE SMOOTH",
"103 37 OFFCURVE",
"83 26 OFFCURVE",
"44 26 CURVE SMOOTH",
"16 26 LINE",
"16 0 LINE"
);
},
{
closed = 1;
nodes = (
"455 251 LINE",
"455 485 LINE",
"431 485 LINE",
"427 436 OFFCURVE",
"424 388 OFFCURVE",
"379 388 CURVE SMOOTH",
"162 388 LINE",
"162 348 LINE",
"379 348 LINE SMOOTH",
"424 348 OFFCURVE",
"427 300 OFFCURVE",
"431 251 CURVE"
);
},
{
closed = 1;
nodes = (
"432 776 OFFCURVE",
"474 832 OFFCURVE",
"478 907 CURVE",
"445 907 LINE",
"439 848 OFFCURVE",
"397 822 OFFCURVE",
"333 822 CURVE SMOOTH",
"269 822 OFFCURVE",
"226 848 OFFCURVE",
"219 907 CURVE",
"186 907 LINE",
"190 829 OFFCURVE",
"232 776 OFFCURVE",
"333 776 CURVE SMOOTH"
);
}
);
};
components = (
{
name = E;
},
{
name = breve;
transform = "{1, 0, 0, 1, 68, 230}";
}
);
layerId = "0B1DFD06-3317-40CA-B510-4969A0718C16";
width = 607;
}
);
note = Ebreve;
unicode = 0114;
},
{
glyphname = Ecaron;
lastChange = "2017-12-18 10:26:13 +0000";
layers = (
{
background = {
paths = (
{
closed = 1;
nodes = (
"554 0 LINE",
"571 179 LINE",
"544 179 LINE",
"538 124 OFFCURVE",
"520 40 OFFCURVE",
"456 40 CURVE SMOOTH",
"201 40 LINE",
"201 659 LINE",
"441 659 LINE SMOOTH",
"516 659 OFFCURVE",
"525 567 OFFCURVE",
"528 527 CURVE",
"555 527 LINE",
"555 700 LINE",
"16 700 LINE",
"16 673 LINE",
"44 673 LINE SMOOTH",
"83 673 OFFCURVE",
"103 662 OFFCURVE",
"103 637 CURVE SMOOTH",
"103 62 LINE SMOOTH",
"103 37 OFFCURVE",
"83 26 OFFCURVE",
"44 26 CURVE SMOOTH",
"16 26 LINE",
"16 0 LINE"
);
},
{
closed = 1;
nodes = (
"455 251 LINE",
"455 485 LINE",
"431 485 LINE",
"427 436 OFFCURVE",
"424 388 OFFCURVE",
"379 388 CURVE SMOOTH",
"162 388 LINE",
"162 348 LINE",
"379 348 LINE SMOOTH",
"424 348 OFFCURVE",
"427 300 OFFCURVE",
"431 251 CURVE"
);
},
{
closed = 1;
nodes = (
"357 782 LINE",
"481 911 LINE",
"462 932 LINE",
"354 847 LINE",
"346 840 OFFCURVE",
"337 836 OFFCURVE",
"331 836 CURVE SMOOTH",
"325 836 OFFCURVE",
"317 840 OFFCURVE",
"307 847 CURVE",
"199 932 LINE",
"180 911 LINE",
"304 782 LINE"
);
}
);
};
components = (
{
name = E;
},
{
name = caron;
transform = "{1, 0, 0, 1, 68, 230}";
}
);
layerId = "0B1DFD06-3317-40CA-B510-4969A0718C16";
width = 607;
}
);
note = Ecaron;
unicode = 011A;
},
{
glyphname = Ecircumflex;
lastChange = "2017-12-18 10:26:13 +0000";
layers = (
{
background = {
paths = (
{
closed = 1;
nodes = (
"554 0 LINE",
"571 179 LINE",
"544 179 LINE",
"538 124 OFFCURVE",
"520 40 OFFCURVE",
"456 40 CURVE SMOOTH",
"201 40 LINE",
"201 659 LINE",
"441 659 LINE SMOOTH",
"516 659 OFFCURVE",
"525 567 OFFCURVE",
"528 527 CURVE",
"555 527 LINE",
"555 700 LINE",
"16 700 LINE",
"16 673 LINE",
"44 673 LINE SMOOTH",
"83 673 OFFCURVE",
"103 662 OFFCURVE",
"103 637 CURVE SMOOTH",
"103 62 LINE SMOOTH",
"103 37 OFFCURVE",
"83 26 OFFCURVE",
"44 26 CURVE SMOOTH",
"16 26 LINE",
"16 0 LINE"
);
},
{
closed = 1;
nodes = (
"455 251 LINE",
"455 485 LINE",
"431 485 LINE",
"427 436 OFFCURVE",
"424 388 OFFCURVE",
"379 388 CURVE SMOOTH",
"162 388 LINE",
"162 348 LINE",
"379 348 LINE SMOOTH",
"424 348 OFFCURVE",
"427 300 OFFCURVE",
"431 251 CURVE"
);
},
{
closed = 1;
nodes = (
"304 868 LINE SMOOTH",
"312 874 OFFCURVE",
"322 879 OFFCURVE",
"328 879 CURVE SMOOTH",
"334 879 OFFCURVE",
"342 874 OFFCURVE",
"351 868 CURVE",
"459 782 LINE",
"478 803 LINE",
"354 932 LINE",
"301 932 LINE",
"177 803 LINE",
"196 782 LINE"
);
}
);
};
components = (
{
name = E;
},
{
name = circumflex;
transform = "{1, 0, 0, 1, 68, 230}";
}
);
layerId = "0B1DFD06-3317-40CA-B510-4969A0718C16";
width = 607;
}
);
note = Ecircumflex;
unicode = 00CA;
},
{
glyphname = Ecircumflexacute;
lastChange = "2017-12-18 10:26:13 +0000";
layers = (
{
background = {
paths = (
{
closed = 1;
nodes = (
"554 0 LINE",
"571 179 LINE",
"544 179 LINE",
"538 124 OFFCURVE",
"520 40 OFFCURVE",
"456 40 CURVE SMOOTH",
"201 40 LINE",
"201 659 LINE",
"441 659 LINE SMOOTH",
"516 659 OFFCURVE",
"525 567 OFFCURVE",
"528 527 CURVE",
"555 527 LINE",
"555 700 LINE",
"16 700 LINE",
"16 673 LINE",
"44 673 LINE SMOOTH",
"83 673 OFFCURVE",
"103 662 OFFCURVE",
"103 637 CURVE SMOOTH",
"103 62 LINE SMOOTH",
"103 37 OFFCURVE",
"83 26 OFFCURVE",
"44 26 CURVE SMOOTH",
"16 26 LINE",
"16 0 LINE"
);
},
{
closed = 1;
nodes = (
"455 251 LINE",
"455 485 LINE",
"431 485 LINE",
"427 436 OFFCURVE",
"424 388 OFFCURVE",
"379 388 CURVE SMOOTH",
"162 388 LINE",
"162 348 LINE",
"379 348 LINE SMOOTH",
"424 348 OFFCURVE",
"427 300 OFFCURVE",
"431 251 CURVE"
);
},
{
closed = 1;
nodes = (
"290 862 LINE SMOOTH",
"300 870 OFFCURVE",
"310 878 OFFCURVE",
"318 878 CURVE SMOOTH",
"324 878 OFFCURVE",
"332 873 OFFCURVE",
"341 867 CURVE",
"447 781 LINE",
"466 803 LINE",
"344 932 LINE",
"293 932 LINE",
"171 803 LINE",
"189 781 LINE"
);
},
{
closed = 1;
nodes = (
"555 960 LINE SMOOTH",
"578 972 OFFCURVE",
"591 988 OFFCURVE",
"591 1003 CURVE SMOOTH",
"591 1017 OFFCURVE",
"580 1034 OFFCURVE",
"557 1034 CURVE SMOOTH",
"538 1034 OFFCURVE",
"521 1018 OFFCURVE",
"511 1008 CURVE SMOOTH",
"415 915 LINE",
"433 893 LINE"
);
}
);
};
components = (
{
name = E;
},
{
name = circumflexacute;
transform = "{1, 0, 0, 1, 564, 230}";
}
);
layerId = "0B1DFD06-3317-40CA-B510-4969A0718C16";
width = 607;
}
);
note = Ecircumflexacute;
unicode = 1EBE;
},
{
glyphname = Ecircumflexdotbelow;
lastChange = "2017-12-18 10:26:13 +0000";
layers = (
{
background = {
paths = (
{
closed = 1;
nodes = (
"554 0 LINE",
"571 179 LINE",
"544 179 LINE",
"538 124 OFFCURVE",
"520 40 OFFCURVE",
"456 40 CURVE SMOOTH",
"201 40 LINE",
"201 659 LINE",
"441 659 LINE SMOOTH",
"516 659 OFFCURVE",
"525 567 OFFCURVE",
"528 527 CURVE",
"555 527 LINE",
"555 700 LINE",
"16 700 LINE",
"16 673 LINE",
"44 673 LINE SMOOTH",
"83 673 OFFCURVE",
"103 662 OFFCURVE",
"103 637 CURVE SMOOTH",
"103 62 LINE SMOOTH",
"103 37 OFFCURVE",
"83 26 OFFCURVE",
"44 26 CURVE SMOOTH",
"16 26 LINE",
"16 0 LINE"
);
},
{
closed = 1;
nodes = (
"350 -159 OFFCURVE",
"368 -140 OFFCURVE",
"368 -112 CURVE SMOOTH",
"368 -84 OFFCURVE",
"350 -64 OFFCURVE",
"322 -64 CURVE SMOOTH",
"294 -64 OFFCURVE",
"275 -84 OFFCURVE",
"275 -112 CURVE SMOOTH",
"275 -140 OFFCURVE",
"294 -159 OFFCURVE",
"322 -159 CURVE SMOOTH"
);
},
{
closed = 1;
nodes = (
"455 251 LINE",
"455 485 LINE",
"431 485 LINE",
"427 436 OFFCURVE",
"424 388 OFFCURVE",
"379 388 CURVE SMOOTH",
"162 388 LINE",
"162 348 LINE",
"379 348 LINE SMOOTH",
"424 348 OFFCURVE",
"427 300 OFFCURVE",
"431 251 CURVE"
);
},
{
closed = 1;
nodes = (
"294 868 LINE SMOOTH",
"302 874 OFFCURVE",
"312 879 OFFCURVE",
"318 879 CURVE SMOOTH",
"324 879 OFFCURVE",
"332 874 OFFCURVE",
"341 868 CURVE",
"449 782 LINE",
"468 803 LINE",
"344 932 LINE",
"291 932 LINE",
"167 803 LINE",
"186 782 LINE"
);
}
);
};
components = (
{
name = E;
},
{
name = dotbelowcomb;
transform = "{1, 0, 0, 1, 565, 0}";
},
{
name = circumflex;
transform = "{1, 0, 0, 1, 68, 230}";
}
);
layerId = "0B1DFD06-3317-40CA-B510-4969A0718C16";
width = 607;
}
);
note = Ecircumflexdotbelow;
unicode = 1EC6;
},
{
glyphname = Ecircumflexgrave;
lastChange = "2017-12-18 10:26:13 +0000";
layers = (
{
background = {
paths = (
{
closed = 1;
nodes = (
"554 0 LINE",
"571 179 LINE",
"544 179 LINE",
"538 124 OFFCURVE",
"520 40 OFFCURVE",
"456 40 CURVE SMOOTH",
"201 40 LINE",
"201 659 LINE",
"441 659 LINE SMOOTH",
"516 659 OFFCURVE",
"525 567 OFFCURVE",
"528 527 CURVE",
"555 527 LINE",
"555 700 LINE",
"16 700 LINE",
"16 673 LINE",
"44 673 LINE SMOOTH",
"83 673 OFFCURVE",
"103 662 OFFCURVE",
"103 637 CURVE SMOOTH",
"103 62 LINE SMOOTH",
"103 37 OFFCURVE",
"83 26 OFFCURVE",
"44 26 CURVE SMOOTH",
"16 26 LINE",
"16 0 LINE"
);
},
{
closed = 1;
nodes = (
"455 251 LINE",
"455 485 LINE",
"431 485 LINE",
"427 436 OFFCURVE",
"424 388 OFFCURVE",
"379 388 CURVE SMOOTH",
"162 388 LINE",
"162 348 LINE",
"379 348 LINE SMOOTH",
"424 348 OFFCURVE",
"427 300 OFFCURVE",
"431 251 CURVE"
);
},
{
closed = 1;
nodes = (
"227 915 LINE",
"132 1008 LINE SMOOTH",
"122 1018 OFFCURVE",
"105 1034 OFFCURVE",
"85 1034 CURVE SMOOTH",
"63 1034 OFFCURVE",
"52 1017 OFFCURVE",
"52 1003 CURVE SMOOTH",
"52 988 OFFCURVE",
"65 972 OFFCURVE",
"88 960 CURVE SMOOTH",
"210 893 LINE"
);
},
{
closed = 1;
nodes = (
"290 862 LINE SMOOTH",
"300 870 OFFCURVE",
"310 878 OFFCURVE",
"318 878 CURVE SMOOTH",
"324 878 OFFCURVE",
"332 873 OFFCURVE",
"341 867 CURVE",
"447 781 LINE",
"466 803 LINE",
"344 932 LINE",
"293 932 LINE",
"171 803 LINE",
"189 781 LINE"
);
}
);
};
components = (
{
name = E;
},
{
name = circumflexgrave;
transform = "{1, 0, 0, 1, 564, 230}";
}
);
layerId = "0B1DFD06-3317-40CA-B510-4969A0718C16";
width = 607;
}
);
note = Ecircumflexgrave;
unicode = 1EC0;
},
{
glyphname = Ecircumflexhookabove;
lastChange = "2017-12-18 10:26:13 +0000";
layers = (
{
background = {
paths = (
{
closed = 1;
nodes = (
"554 0 LINE",
"571 179 LINE",
"544 179 LINE",
"538 124 OFFCURVE",
"520 40 OFFCURVE",
"456 40 CURVE SMOOTH",
"201 40 LINE",
"201 659 LINE",
"441 659 LINE SMOOTH",
"516 659 OFFCURVE",
"525 567 OFFCURVE",
"528 527 CURVE",
"555 527 LINE",
"555 700 LINE",
"16 700 LINE",
"16 673 LINE",
"44 673 LINE SMOOTH",
"83 673 OFFCURVE",
"103 662 OFFCURVE",
"103 637 CURVE SMOOTH",
"103 62 LINE SMOOTH",
"103 37 OFFCURVE",
"83 26 OFFCURVE",
"44 26 CURVE SMOOTH",
"16 26 LINE",
"16 0 LINE"
);
},
{
closed = 1;
nodes = (
"455 251 LINE",
"455 485 LINE",
"431 485 LINE",
"427 436 OFFCURVE",
"424 388 OFFCURVE",
"379 388 CURVE SMOOTH",
"162 388 LINE",
"162 348 LINE",
"379 348 LINE SMOOTH",
"424 348 OFFCURVE",
"427 300 OFFCURVE",
"431 251 CURVE"
);
},
{
closed = 1;
nodes = (
"286 858 LINE",
"297 868 OFFCURVE",
"309 878 OFFCURVE",
"318 878 CURVE SMOOTH",
"324 878 OFFCURVE",
"332 873 OFFCURVE",
"341 867 CURVE",
"447 781 LINE",
"466 803 LINE",
"344 932 LINE",
"293 932 LINE",
"171 803 LINE",
"189 781 LINE"
);
},
{
closed = 1;
nodes = (
"493 898 LINE",
"474 905 OFFCURVE",
"464 912 OFFCURVE",
"464 926 CURVE SMOOTH",
"464 954 OFFCURVE",
"544 965 OFFCURVE",
"544 1010 CURVE SMOOTH",
"544 1047 OFFCURVE",
"502 1063 OFFCURVE",
"460 1063 CURVE SMOOTH",
"429 1063 OFFCURVE",
"384 1053 OFFCURVE",
"384 1022 CURVE SMOOTH",
"384 1010 OFFCURVE",
"395 1001 OFFCURVE",
"405 1001 CURVE SMOOTH",
"434 1001 OFFCURVE",
"421 1040 OFFCURVE",
"464 1040 CURVE SMOOTH",
"483 1040 OFFCURVE",
"494 1028 OFFCURVE",
"494 1013 CURVE SMOOTH",
"494 973 OFFCURVE",
"421 965 OFFCURVE",
"421 925 CURVE SMOOTH",
"421 901 OFFCURVE",
"437 880 OFFCURVE",
"484 880 CURVE"
);
}
);
};
components = (
{
name = E;
},
{
name = circumflexhookabove;
transform = "{1, 0, 0, 1, 564, 230}";
}
);
layerId = "0B1DFD06-3317-40CA-B510-4969A0718C16";
width = 607;
}
);
note = Ecircumflexhookabove;
unicode = 1EC2;
},
{
glyphname = Ecircumflextilde;
lastChange = "2017-12-18 10:26:13 +0000";
layers = (
{
background = {
paths = (
{
closed = 1;
nodes = (
"554 0 LINE",
"571 179 LINE",
"544 179 LINE",
"538 124 OFFCURVE",
"520 40 OFFCURVE",
"456 40 CURVE SMOOTH",
"201 40 LINE",
"201 659 LINE",
"441 659 LINE SMOOTH",
"516 659 OFFCURVE",
"525 567 OFFCURVE",
"528 527 CURVE",
"555 527 LINE",
"555 700 LINE",
"16 700 LINE",
"16 673 LINE",
"44 673 LINE SMOOTH",
"83 673 OFFCURVE",
"103 662 OFFCURVE",
"103 637 CURVE SMOOTH",
"103 62 LINE SMOOTH",
"103 37 OFFCURVE",
"83 26 OFFCURVE",
"44 26 CURVE SMOOTH",
"16 26 LINE",
"16 0 LINE"
);
},
{
closed = 1;
nodes = (
"455 251 LINE",
"455 485 LINE",
"431 485 LINE",
"427 436 OFFCURVE",
"424 388 OFFCURVE",
"379 388 CURVE SMOOTH",
"162 388 LINE",
"162 348 LINE",
"379 348 LINE SMOOTH",
"424 348 OFFCURVE",
"427 300 OFFCURVE",
"431 251 CURVE"
);
},
{
closed = 1;
nodes = (
"290 862 LINE SMOOTH",
"300 870 OFFCURVE",
"310 878 OFFCURVE",
"318 878 CURVE SMOOTH",
"324 878 OFFCURVE",
"332 873 OFFCURVE",
"341 867 CURVE",
"447 781 LINE",
"466 803 LINE",
"344 932 LINE",
"293 932 LINE",
"171 803 LINE",
"189 781 LINE"
);
},
{
closed = 1;
nodes = (
"193 997 OFFCURVE",
"211 1018 OFFCURVE",
"242 1018 CURVE SMOOTH",
"291 1018 OFFCURVE",
"338 964 OFFCURVE",
"387 964 CURVE SMOOTH",
"440 964 OFFCURVE",
"469 1012 OFFCURVE",
"481 1063 CURVE",
"460 1075 LINE",
"447 1035 OFFCURVE",
"431 1012 OFFCURVE",
"398 1012 CURVE SMOOTH",
"351 1012 OFFCURVE",
"302 1065 OFFCURVE",
"253 1065 CURVE SMOOTH",
"202 1065 OFFCURVE",
"170 1021 OFFCURVE",
"160 970 CURVE",
"180 958 LINE"
);
}
);
};
components = (
{
name = E;
},
{
name = circumflextilde;
transform = "{1, 0, 0, 1, 564, 230}";
}
);
layerId = "0B1DFD06-3317-40CA-B510-4969A0718C16";
width = 607;
}
);
note = Ecircumflextilde;
unicode = 1EC4;
},
{
glyphname = Edieresis;
lastChange = "2017-12-18 10:26:13 +0000";
layers = (
{
background = {
paths = (
{
closed = 1;
nodes = (
"554 0 LINE",
"571 179 LINE",
"544 179 LINE",
"538 124 OFFCURVE",
"520 40 OFFCURVE",
"456 40 CURVE SMOOTH",
"201 40 LINE",
"201 659 LINE",
"441 659 LINE SMOOTH",
"516 659 OFFCURVE",
"525 567 OFFCURVE",
"528 527 CURVE",
"555 527 LINE",
"555 700 LINE",
"16 700 LINE",
"16 673 LINE",
"44 673 LINE SMOOTH",
"83 673 OFFCURVE",
"103 662 OFFCURVE",
"103 637 CURVE SMOOTH",
"103 62 LINE SMOOTH",
"103 37 OFFCURVE",
"83 26 OFFCURVE",
"44 26 CURVE SMOOTH",
"16 26 LINE",
"16 0 LINE"
);
},
{
closed = 1;
nodes = (
"455 251 LINE",
"455 485 LINE",
"431 485 LINE",
"427 436 OFFCURVE",
"424 388 OFFCURVE",
"379 388 CURVE SMOOTH",
"162 388 LINE",
"162 348 LINE",
"379 348 LINE SMOOTH",
"424 348 OFFCURVE",
"427 300 OFFCURVE",
"431 251 CURVE"
);
},
{
closed = 1;
nodes = (
"254 781 OFFCURVE",
"272 800 OFFCURVE",
"272 827 CURVE SMOOTH",
"272 855 OFFCURVE",
"254 875 OFFCURVE",
"225 875 CURVE SMOOTH",
"197 875 OFFCURVE",
"179 855 OFFCURVE",
"179 827 CURVE SMOOTH",
"179 800 OFFCURVE",
"197 781 OFFCURVE",
"225 781 CURVE SMOOTH"
);
},
{
closed = 1;
nodes = (
"470 781 OFFCURVE",
"488 800 OFFCURVE",
"488 827 CURVE SMOOTH",
"488 855 OFFCURVE",
"470 875 OFFCURVE",
"441 875 CURVE SMOOTH",
"412 875 OFFCURVE",
"394 855 OFFCURVE",
"394 827 CURVE SMOOTH",
"394 800 OFFCURVE",
"412 781 OFFCURVE",
"441 781 CURVE SMOOTH"
);
}
);
};
components = (
{
name = E;
},
{
name = dieresis;
transform = "{1, 0, 0, 1, 68, 230}";
}
);
layerId = "0B1DFD06-3317-40CA-B510-4969A0718C16";
width = 607;
}
);
note = Edieresis;
unicode = 00CB;
},
{
glyphname = Edotaccent;
lastChange = "2017-12-18 10:26:13 +0000";
layers = (
{
background = {
paths = (
{
closed = 1;
nodes = (
"554 0 LINE",
"571 179 LINE",
"544 179 LINE",
"538 124 OFFCURVE",
"520 40 OFFCURVE",
"456 40 CURVE SMOOTH",
"201 40 LINE",
"201 659 LINE",
"441 659 LINE SMOOTH",
"516 659 OFFCURVE",
"525 567 OFFCURVE",
"528 527 CURVE",
"555 527 LINE",
"555 700 LINE",
"16 700 LINE",
"16 673 LINE",
"44 673 LINE SMOOTH",
"83 673 OFFCURVE",
"103 662 OFFCURVE",
"103 637 CURVE SMOOTH",
"103 62 LINE SMOOTH",
"103 37 OFFCURVE",
"83 26 OFFCURVE",
"44 26 CURVE SMOOTH",
"16 26 LINE",
"16 0 LINE"
);
},
{
closed = 1;
nodes = (
"455 251 LINE",
"455 485 LINE",
"431 485 LINE",
"427 436 OFFCURVE",
"424 388 OFFCURVE",
"379 388 CURVE SMOOTH",
"162 388 LINE",
"162 348 LINE",
"379 348 LINE SMOOTH",
"424 348 OFFCURVE",
"427 300 OFFCURVE",
"431 251 CURVE"
);
},
{
closed = 1;
nodes = (
"362 765 OFFCURVE",
"380 784 OFFCURVE",
"380 811 CURVE SMOOTH",
"380 839 OFFCURVE",
"362 858 OFFCURVE",
"334 858 CURVE SMOOTH",
"305 858 OFFCURVE",
"287 839 OFFCURVE",
"287 811 CURVE SMOOTH",
"287 784 OFFCURVE",
"305 765 OFFCURVE",
"334 765 CURVE SMOOTH"
);
}
);
};
components = (
{
name = E;
},
{
name = dotaccent;
transform = "{1, 0, 0, 1, 68, 230}";
}
);
layerId = "0B1DFD06-3317-40CA-B510-4969A0718C16";
width = 607;
}
);
note = Edotaccent;
unicode = 0116;
},
{
glyphname = Edotbelow;
lastChange = "2017-12-18 10:26:13 +0000";
layers = (
{
background = {
paths = (
{
closed = 1;
nodes = (
"554 0 LINE",
"571 179 LINE",
"544 179 LINE",
"538 124 OFFCURVE",
"520 40 OFFCURVE",
"456 40 CURVE SMOOTH",
"201 40 LINE",
"201 659 LINE",
"441 659 LINE SMOOTH",
"516 659 OFFCURVE",
"525 567 OFFCURVE",
"528 527 CURVE",
"555 527 LINE",
"555 700 LINE",
"16 700 LINE",
"16 673 LINE",
"44 673 LINE SMOOTH",
"83 673 OFFCURVE",
"103 662 OFFCURVE",
"103 637 CURVE SMOOTH",
"103 62 LINE SMOOTH",
"103 37 OFFCURVE",
"83 26 OFFCURVE",
"44 26 CURVE SMOOTH",
"16 26 LINE",
"16 0 LINE"
);
},
{
closed = 1;
nodes = (
"343 -159 OFFCURVE",
"361 -140 OFFCURVE",
"361 -112 CURVE SMOOTH",
"361 -84 OFFCURVE",
"343 -64 OFFCURVE",
"315 -64 CURVE SMOOTH",
"287 -64 OFFCURVE",
"268 -84 OFFCURVE",
"268 -112 CURVE SMOOTH",
"268 -140 OFFCURVE",
"287 -159 OFFCURVE",
"315 -159 CURVE SMOOTH"
);
},
{
closed = 1;
nodes = (
"455 251 LINE",
"455 485 LINE",
"431 485 LINE",
"427 436 OFFCURVE",
"424 388 OFFCURVE",
"379 388 CURVE SMOOTH",
"162 388 LINE",
"162 348 LINE",
"379 348 LINE SMOOTH",
"424 348 OFFCURVE",
"427 300 OFFCURVE",
"431 251 CURVE"
);
}
);
};
components = (
{
name = E;
},
{
name = dotbelowcomb;
transform = "{1, 0, 0, 1, 565, 0}";
}
);
layerId = "0B1DFD06-3317-40CA-B510-4969A0718C16";
width = 607;
}
);
note = Edotbelow;
unicode = 1EB8;
},
{
glyphname = Egrave;
lastChange = "2017-12-18 10:26:13 +0000";
layers = (
{
background = {
paths = (
{
closed = 1;
nodes = (
"554 0 LINE",
"571 179 LINE",
"544 179 LINE",
"538 124 OFFCURVE",
"520 40 OFFCURVE",
"456 40 CURVE SMOOTH",
"201 40 LINE",
"201 659 LINE",
"441 659 LINE SMOOTH",
"516 659 OFFCURVE",
"525 567 OFFCURVE",
"528 527 CURVE",
"555 527 LINE",
"555 700 LINE",
"16 700 LINE",
"16 673 LINE",
"44 673 LINE SMOOTH",
"83 673 OFFCURVE",
"103 662 OFFCURVE",
"103 637 CURVE SMOOTH",
"103 62 LINE SMOOTH",
"103 37 OFFCURVE",
"83 26 OFFCURVE",
"44 26 CURVE SMOOTH",
"16 26 LINE",
"16 0 LINE"
);
},
{
closed = 1;
nodes = (
"455 251 LINE",
"455 485 LINE",
"431 485 LINE",
"427 436 OFFCURVE",
"424 388 OFFCURVE",
"379 388 CURVE SMOOTH",
"162 388 LINE",
"162 348 LINE",
"379 348 LINE SMOOTH",
"424 348 OFFCURVE",
"427 300 OFFCURVE",
"431 251 CURVE"
);
},
{
closed = 1;
nodes = (
"425 807 LINE",
"310 913 LINE",
"301 922 OFFCURVE",
"285 937 OFFCURVE",
"265 937 CURVE SMOOTH",
"245 937 OFFCURVE",
"233 924 OFFCURVE",
"233 908 CURVE SMOOTH",
"233 890 OFFCURVE",
"245 876 OFFCURVE",
"264 865 CURVE SMOOTH",
"407 782 LINE"
);
}
);
};
components = (
{
name = E;
},
{
name = grave;
transform = "{1, 0, 0, 1, 68, 230}";
}
);
layerId = "0B1DFD06-3317-40CA-B510-4969A0718C16";
width = 607;
}
);
note = Egrave;
unicode = 00C8;
},
{
glyphname = Ehookabove;
lastChange = "2017-12-18 10:26:13 +0000";
layers = (
{
background = {
paths = (
{
closed = 1;
nodes = (
"554 0 LINE",
"571 179 LINE",
"544 179 LINE",
"538 124 OFFCURVE",
"520 40 OFFCURVE",
"456 40 CURVE SMOOTH",
"201 40 LINE",
"201 659 LINE",
"441 659 LINE SMOOTH",
"516 659 OFFCURVE",
"525 567 OFFCURVE",
"528 527 CURVE",
"555 527 LINE",
"555 700 LINE",
"16 700 LINE",
"16 673 LINE",
"44 673 LINE SMOOTH",
"83 673 OFFCURVE",
"103 662 OFFCURVE",
"103 637 CURVE SMOOTH",
"103 62 LINE SMOOTH",
"103 37 OFFCURVE",
"83 26 OFFCURVE",
"44 26 CURVE SMOOTH",
"16 26 LINE",
"16 0 LINE"
);
},
{
closed = 1;
nodes = (
"455 251 LINE",
"455 485 LINE",
"431 485 LINE",
"427 436 OFFCURVE",
"424 388 OFFCURVE",
"379 388 CURVE SMOOTH",
"162 388 LINE",
"162 348 LINE",
"379 348 LINE SMOOTH",
"424 348 OFFCURVE",
"427 300 OFFCURVE",
"431 251 CURVE"
);
},
{
closed = 1;
nodes = (
"367 798 LINE",
"348 805 OFFCURVE",
"336 811 OFFCURVE",
"336 828 CURVE SMOOTH",
"336 861 OFFCURVE",
"425 876 OFFCURVE",
"425 927 CURVE SMOOTH",
"425 969 OFFCURVE",
"389 991 OFFCURVE",
"336 991 CURVE SMOOTH",
"289 991 OFFCURVE",
"248 974 OFFCURVE",
"248 940 CURVE SMOOTH",
"248 923 OFFCURVE",
"256 915 OFFCURVE",
"271 915 CURVE SMOOTH",
"294 915 OFFCURVE",
"296 934 OFFCURVE",
"299 942 CURVE SMOOTH",
"304 956 OFFCURVE",
"321 962 OFFCURVE",
"337 962 CURVE SMOOTH",
"358 962 OFFCURVE",
"371 947 OFFCURVE",
"371 930 CURVE SMOOTH",
"371 885 OFFCURVE",
"289 874 OFFCURVE",
"289 828 CURVE SMOOTH",
"289 801 OFFCURVE",
"307 778 OFFCURVE",
"358 778 CURVE"
);
}
);
};
components = (
{
name = E;
},
{
name = hookabovecomb;
transform = "{1, 0, 0, 1, 565, 230}";
}
);
layerId = "0B1DFD06-3317-40CA-B510-4969A0718C16";
width = 607;
}
);
note = Ehookabove;
unicode = 1EBA;
},
{
glyphname = Emacron;
lastChange = "2017-12-18 10:26:13 +0000";
layers = (
{
background = {
paths = (
{
closed = 1;
nodes = (
"554 0 LINE",
"571 179 LINE",
"544 179 LINE",
"538 124 OFFCURVE",
"520 40 OFFCURVE",
"456 40 CURVE SMOOTH",
"201 40 LINE",
"201 659 LINE",
"441 659 LINE SMOOTH",
"516 659 OFFCURVE",
"525 567 OFFCURVE",
"528 527 CURVE",
"555 527 LINE",
"555 700 LINE",
"16 700 LINE",
"16 673 LINE",
"44 673 LINE SMOOTH",
"83 673 OFFCURVE",
"103 662 OFFCURVE",
"103 637 CURVE SMOOTH",
"103 62 LINE SMOOTH",
"103 37 OFFCURVE",
"83 26 OFFCURVE",
"44 26 CURVE SMOOTH",
"16 26 LINE",
"16 0 LINE"
);
},
{
closed = 1;
nodes = (
"455 251 LINE",
"455 485 LINE",
"431 485 LINE",
"427 436 OFFCURVE",
"424 388 OFFCURVE",
"379 388 CURVE SMOOTH",
"162 388 LINE",
"162 348 LINE",
"379 348 LINE SMOOTH",
"424 348 OFFCURVE",
"427 300 OFFCURVE",
"431 251 CURVE"
);
},
{
closed = 1;
nodes = (
"495 782 LINE",
"495 824 LINE",
"162 824 LINE",
"162 782 LINE"
);
}
);
};
components = (
{
name = E;
},
{
name = macron;
transform = "{1, 0, 0, 1, 68, 230}";
}
);
layerId = "0B1DFD06-3317-40CA-B510-4969A0718C16";
width = 607;
}
);
note = Emacron;
unicode = 0112;
},
{
glyphname = Eogonek;
lastChange = "2017-12-18 10:26:13 +0000";
layers = (
{
background = {
paths = (
{
closed = 1;
nodes = (
"554 0 LINE",
"571 179 LINE",
"544 179 LINE",
"538 124 OFFCURVE",
"520 40 OFFCURVE",
"456 40 CURVE SMOOTH",
"201 40 LINE",
"201 659 LINE",
"441 659 LINE SMOOTH",
"516 659 OFFCURVE",
"525 567 OFFCURVE",
"528 527 CURVE",
"555 527 LINE",
"555 700 LINE",
"16 700 LINE",
"16 673 LINE",
"44 673 LINE SMOOTH",
"83 673 OFFCURVE",
"103 662 OFFCURVE",
"103 637 CURVE SMOOTH",
"103 62 LINE SMOOTH",
"103 37 OFFCURVE",
"83 26 OFFCURVE",
"44 26 CURVE SMOOTH",
"16 26 LINE",
"16 0 LINE"
);
},
{
closed = 1;
nodes = (
"496 -196 OFFCURVE",
"524 -189 OFFCURVE",
"549 -172 CURVE",
"543 -152 LINE",
"527 -158 OFFCURVE",
"510 -162 OFFCURVE",
"497 -162 CURVE SMOOTH",
"464 -162 OFFCURVE",
"437 -146 OFFCURVE",
"437 -106 CURVE SMOOTH",
"437 -66 OFFCURVE",
"464 -26 OFFCURVE",
"510 4 CURVE",
"469 4 LINE",
"416 -22 OFFCURVE",
"376 -64 OFFCURVE",
"376 -114 CURVE SMOOTH",
"376 -147 OFFCURVE",
"395 -196 OFFCURVE",
"470 -196 CURVE SMOOTH"
);
},
{
closed = 1;
nodes = (
"455 251 LINE",
"455 485 LINE",
"431 485 LINE",
"427 436 OFFCURVE",
"424 388 OFFCURVE",
"379 388 CURVE SMOOTH",
"162 388 LINE",
"162 348 LINE",
"379 348 LINE SMOOTH",
"424 348 OFFCURVE",
"427 300 OFFCURVE",
"431 251 CURVE"
);
}
);
};
components = (
{
name = E;
},
{
name = ogonek;
transform = "{1, 0, 0, 1, 256, 0}";
}
);
layerId = "0B1DFD06-3317-40CA-B510-4969A0718C16";
width = 607;
}
);
note = Eogonek;
unicode = 0118;
},
{
glyphname = Etilde;
lastChange = "2017-12-18 10:26:13 +0000";
layers = (
{
background = {
paths = (
{
closed = 1;
nodes = (
"554 0 LINE",
"571 179 LINE",
"544 179 LINE",
"538 124 OFFCURVE",
"520 40 OFFCURVE",
"456 40 CURVE SMOOTH",
"201 40 LINE",
"201 659 LINE",
"441 659 LINE SMOOTH",
"516 659 OFFCURVE",
"525 567 OFFCURVE",
"528 527 CURVE",
"555 527 LINE",
"555 700 LINE",
"16 700 LINE",
"16 673 LINE",
"44 673 LINE SMOOTH",
"83 673 OFFCURVE",
"103 662 OFFCURVE",
"103 637 CURVE SMOOTH",
"103 62 LINE SMOOTH",
"103 37 OFFCURVE",
"83 26 OFFCURVE",
"44 26 CURVE SMOOTH",
"16 26 LINE",
"16 0 LINE"
);
},
{
closed = 1;
nodes = (
"455 251 LINE",
"455 485 LINE",
"431 485 LINE",
"427 436 OFFCURVE",
"424 388 OFFCURVE",
"379 388 CURVE SMOOTH",
"162 388 LINE",
"162 348 LINE",
"379 348 LINE SMOOTH",
"424 348 OFFCURVE",
"427 300 OFFCURVE",
"431 251 CURVE"
);
},
{
closed = 1;
nodes = (
"190 817 OFFCURVE",
"208 838 OFFCURVE",
"241 838 CURVE SMOOTH",
"292 838 OFFCURVE",
"341 784 OFFCURVE",
"392 784 CURVE SMOOTH",
"450 784 OFFCURVE",
"480 832 OFFCURVE",
"492 884 CURVE",
"471 895 LINE",
"455 855 OFFCURVE",
"439 833 OFFCURVE",
"405 833 CURVE SMOOTH",
"356 833 OFFCURVE",
"304 886 OFFCURVE",
"253 886 CURVE SMOOTH",
"199 886 OFFCURVE",
"166 842 OFFCURVE",
"154 790 CURVE",
"176 779 LINE"
);
}
);
};
components = (
{
name = E;
},
{
name = tilde;
transform = "{1, 0, 0, 1, 68, 230}";
}
);
layerId = "0B1DFD06-3317-40CA-B510-4969A0718C16";
width = 607;
}
);
note = Etilde;
unicode = 1EBC;
},
{
glyphname = Hbar;
lastChange = "2017-12-18 10:26:13 +0000";
layers = (
{
components = (
{
name = H;
}
);
layerId = "0B1DFD06-3317-40CA-B510-4969A0718C16";
paths = (
{
closed = 1;
nodes = (
"719 504 LINE",
"719 544 LINE",
"43 544 LINE",
"43 504 LINE"
);
}
);
width = 773;
}
);
note = Hbar;
unicode = 0126;
},
{
color = 0;
glyphname = IJ;
lastChange = "2017-12-18 11:12:59 +0000";
layers = (
{
layerId = "0B1DFD06-3317-40CA-B510-4969A0718C16";
paths = (
{
closed = 1;
nodes = (
"472 -114 OFFCURVE",
"561 -45 OFFCURVE",
"561 89 CURVE SMOOTH",
"561 637 LINE SMOOTH",
"561 662 OFFCURVE",
"581 673 OFFCURVE",
"619 673 CURVE SMOOTH",
"649 673 LINE",
"649 700 LINE",
"376 700 LINE",
"376 673 LINE",
"405 673 LINE SMOOTH",
"444 673 OFFCURVE",
"463 662 OFFCURVE",
"463 637 CURVE SMOOTH",
"463 90 LINE SMOOTH",
"463 -8 OFFCURVE",
"424 -75 OFFCURVE",
"339 -93 CURVE",
"343 -114 LINE"
);
},
{
closed = 1;
nodes = (
"298 0 LINE",
"298 26 LINE",
"270 26 LINE SMOOTH",
"231 26 OFFCURVE",
"211 37 OFFCURVE",
"211 62 CURVE SMOOTH",
"211 637 LINE SMOOTH",
"211 662 OFFCURVE",
"231 673 OFFCURVE",
"270 673 CURVE SMOOTH",
"298 673 LINE",
"298 700 LINE",
"26 700 LINE",
"26 673 LINE",
"55 673 LINE SMOOTH",
"93 673 OFFCURVE",
"113 662 OFFCURVE",
"113 637 CURVE SMOOTH",
"113 62 LINE SMOOTH",
"113 37 OFFCURVE",
"93 26 OFFCURVE",
"55 26 CURVE SMOOTH",
"26 26 LINE",
"26 0 LINE"
);
}
);
width = 675;
}
);
note = IJ;
rightKerningGroup = J;
unicode = 0132;
},
{
glyphname = Lslash;
lastChange = "2017-12-18 12:12:47 +0000";
layers = (
{
layerId = "0B1DFD06-3317-40CA-B510-4969A0718C16";
paths = (
{
closed = 1;
nodes = (
"28 328 LINE",
"28 307 LINE",
"389 464 LINE",
"389 485 LINE"
);
},
{
closed = 1;
nodes = (
"629 0 LINE",
"629 36 LINE",
"195 36 LINE",
"195 700 LINE",
"112 700 LINE",
"112 0 LINE"
);
}
);
width = 643;
}
);
note = Lslash;
unicode = 0141;
},
{
glyphname = Mdotbelow;
lastChange = "2017-12-18 11:12:53 +0000";
layers = (
{
components = (
{
name = M;
}
);
layerId = "0B1DFD06-3317-40CA-B510-4969A0718C16";
paths = (
{
closed = 1;
nodes = (
"479 -159 OFFCURVE",
"497 -140 OFFCURVE",
"497 -112 CURVE SMOOTH",
"497 -84 OFFCURVE",
"479 -64 OFFCURVE",
"451 -64 CURVE SMOOTH",
"423 -64 OFFCURVE",
"404 -84 OFFCURVE",
"404 -112 CURVE SMOOTH",
"404 -140 OFFCURVE",
"423 -159 OFFCURVE",
"451 -159 CURVE SMOOTH"
);
}
);
width = 903;
}
);
note = Mdotbelow;
unicode = 1E42;
},
{
glyphname = Nacute;
lastChange = "2017-12-18 10:26:13 +0000";
layers = (
{
background = {
paths = (
{
closed = 1;
nodes = (
"247 0 LINE",
"247 26 LINE",
"217 26 LINE SMOOTH",
"179 26 OFFCURVE",
"159 37 OFFCURVE",
"159 62 CURVE SMOOTH",
"159 642 LINE",
"587 0 LINE",
"645 0 LINE",
"645 637 LINE SMOOTH",
"645 662 OFFCURVE",
"665 673 OFFCURVE",
"703 673 CURVE SMOOTH",
"733 673 LINE",
"733 700 LINE",
"508 700 LINE",
"508 673 LINE",
"537 673 LINE SMOOTH",
"576 673 OFFCURVE",
"595 662 OFFCURVE",
"595 637 CURVE SMOOTH",
"595 126 LINE",
"217 700 LINE",
"22 700 LINE",
"22 673 LINE",
"51 673 LINE SMOOTH",
"90 673 OFFCURVE",
"109 662 OFFCURVE",
"109 637 CURVE SMOOTH",
"109 62 LINE SMOOTH",
"109 37 OFFCURVE",
"90 26 OFFCURVE",
"51 26 CURVE SMOOTH",
"22 26 LINE",
"22 0 LINE"
);
},
{
closed = 1;
nodes = (
"458 865 LINE SMOOTH",
"480 877 OFFCURVE",
"492 890 OFFCURVE",
"492 907 CURVE SMOOTH",
"492 922 OFFCURVE",
"480 937 OFFCURVE",
"458 937 CURVE SMOOTH",
"437 937 OFFCURVE",
"422 921 OFFCURVE",
"414 914 CURVE SMOOTH",
"299 807 LINE",
"316 782 LINE"
);
}
);
};
components = (
{
name = N;
},
{
name = acute;
transform = "{1, 0, 0, 1, 120, 230}";
}
);
layerId = "0B1DFD06-3317-40CA-B510-4969A0718C16";
width = 755;
}
);
note = Nacute;
unicode = 0143;
},
{
glyphname = Ncaron;
lastChange = "2017-12-18 10:26:13 +0000";
layers = (
{
background = {
paths = (
{
closed = 1;
nodes = (
"247 0 LINE",
"247 26 LINE",
"217 26 LINE SMOOTH",
"179 26 OFFCURVE",
"159 37 OFFCURVE",
"159 62 CURVE SMOOTH",
"159 642 LINE",
"587 0 LINE",
"645 0 LINE",
"645 637 LINE SMOOTH",
"645 662 OFFCURVE",
"665 673 OFFCURVE",
"703 673 CURVE SMOOTH",
"733 673 LINE",
"733 700 LINE",
"508 700 LINE",
"508 673 LINE",
"537 673 LINE SMOOTH",
"576 673 OFFCURVE",
"595 662 OFFCURVE",
"595 637 CURVE SMOOTH",
"595 126 LINE",
"217 700 LINE",
"22 700 LINE",
"22 673 LINE",
"51 673 LINE SMOOTH",
"90 673 OFFCURVE",
"109 662 OFFCURVE",
"109 637 CURVE SMOOTH",
"109 62 LINE SMOOTH",
"109 37 OFFCURVE",
"90 26 OFFCURVE",
"51 26 CURVE SMOOTH",
"22 26 LINE",
"22 0 LINE"
);
},
{
closed = 1;
nodes = (
"403 782 LINE",
"527 911 LINE",
"508 932 LINE",
"400 847 LINE",
"392 840 OFFCURVE",
"383 836 OFFCURVE",
"377 836 CURVE SMOOTH",
"371 836 OFFCURVE",
"363 840 OFFCURVE",
"353 847 CURVE",
"245 932 LINE",
"226 911 LINE",
"350 782 LINE"
);
}
);
};
components = (
{
name = N;
},
{
name = caron;
transform = "{1, 0, 0, 1, 132, 230}";
}
);
layerId = "0B1DFD06-3317-40CA-B510-4969A0718C16";
width = 755;
}
);
note = Ncaron;
unicode = 0147;
},
{
glyphname = Ncommaaccent;
lastChange = "2017-12-18 11:14:18 +0000";
layers = (
{
background = {
paths = (
{
closed = 1;
nodes = (
"247 0 LINE",
"247 26 LINE",
"217 26 LINE SMOOTH",
"179 26 OFFCURVE",
"159 37 OFFCURVE",
"159 62 CURVE SMOOTH",
"159 642 LINE",
"587 0 LINE",
"645 0 LINE",
"645 637 LINE SMOOTH",
"645 662 OFFCURVE",
"665 673 OFFCURVE",
"703 673 CURVE SMOOTH",
"733 673 LINE",
"733 700 LINE",
"508 700 LINE",
"508 673 LINE",
"537 673 LINE SMOOTH",
"576 673 OFFCURVE",
"595 662 OFFCURVE",
"595 637 CURVE SMOOTH",
"595 126 LINE",
"217 700 LINE",
"22 700 LINE",
"22 673 LINE",
"51 673 LINE SMOOTH",
"90 673 OFFCURVE",
"109 662 OFFCURVE",
"109 637 CURVE SMOOTH",
"109 62 LINE SMOOTH",
"109 37 OFFCURVE",
"90 26 OFFCURVE",
"51 26 CURVE SMOOTH",
"22 26 LINE",
"22 0 LINE"
);
},
{
closed = 1;
nodes = (
"369 -258 OFFCURVE",
"413 -198 OFFCURVE",
"413 -135 CURVE SMOOTH",
"413 -87 OFFCURVE",
"389 -67 OFFCURVE",
"360 -67 CURVE SMOOTH",
"331 -67 OFFCURVE",
"314 -87 OFFCURVE",
"314 -111 CURVE SMOOTH",
"314 -145 OFFCURVE",
"349 -152 OFFCURVE",
"349 -187 CURVE SMOOTH",
"349 -223 OFFCURVE",
"323 -256 OFFCURVE",
"296 -282 CURVE",
"313 -299 LINE"
);
}
);
};
components = (
{
name = N;
},
{
name = commaaccentcomb;
}
);
layerId = "0B1DFD06-3317-40CA-B510-4969A0718C16";
width = 719;
}
);
note = Ncommaaccent;
unicode = 0145;
},
{
glyphname = Ndotaccent;
lastChange = "2017-12-18 10:26:13 +0000";
layers = (
{
background = {
paths = (
{
closed = 1;
nodes = (
"247 0 LINE",
"247 26 LINE",
"217 26 LINE SMOOTH",
"179 26 OFFCURVE",
"159 37 OFFCURVE",
"159 62 CURVE SMOOTH",
"159 642 LINE",
"587 0 LINE",
"645 0 LINE",
"645 637 LINE SMOOTH",
"645 662 OFFCURVE",
"665 673 OFFCURVE",
"703 673 CURVE SMOOTH",
"733 673 LINE",
"733 700 LINE",
"508 700 LINE",
"508 673 LINE",
"537 673 LINE SMOOTH",
"576 673 OFFCURVE",
"595 662 OFFCURVE",
"595 637 CURVE SMOOTH",
"595 126 LINE",
"217 700 LINE",
"22 700 LINE",
"22 673 LINE",
"51 673 LINE SMOOTH",
"90 673 OFFCURVE",
"109 662 OFFCURVE",
"109 637 CURVE SMOOTH",
"109 62 LINE SMOOTH",
"109 37 OFFCURVE",
"90 26 OFFCURVE",
"51 26 CURVE SMOOTH",
"22 26 LINE",
"22 0 LINE"
);
},
{
closed = 1;
nodes = (
"405 765 OFFCURVE",
"423 784 OFFCURVE",
"423 811 CURVE SMOOTH",
"423 839 OFFCURVE",
"405 858 OFFCURVE",
"377 858 CURVE SMOOTH",
"348 858 OFFCURVE",
"330 839 OFFCURVE",
"330 811 CURVE SMOOTH",
"330 784 OFFCURVE",
"348 765 OFFCURVE",
"377 765 CURVE SMOOTH"
);
}
);
};
components = (
{
name = N;
},
{
name = dotaccent;
transform = "{1, 0, 0, 1, 132, 230}";
}
);
layerId = "0B1DFD06-3317-40CA-B510-4969A0718C16";
width = 755;
}
);
note = Ndotaccent;
unicode = 1E44;
},
{
glyphname = Ndotbelow;
lastChange = "2017-12-18 10:26:13 +0000";
layers = (
{
background = {
paths = (
{
closed = 1;
nodes = (
"247 0 LINE",
"247 26 LINE",
"217 26 LINE SMOOTH",
"179 26 OFFCURVE",
"159 37 OFFCURVE",
"159 62 CURVE SMOOTH",
"159 642 LINE",
"587 0 LINE",
"645 0 LINE",
"645 637 LINE SMOOTH",
"645 662 OFFCURVE",
"665 673 OFFCURVE",
"703 673 CURVE SMOOTH",
"733 673 LINE",
"733 700 LINE",
"508 700 LINE",
"508 673 LINE",
"537 673 LINE SMOOTH",
"576 673 OFFCURVE",
"595 662 OFFCURVE",
"595 637 CURVE SMOOTH",
"595 126 LINE",
"217 700 LINE",
"22 700 LINE",
"22 673 LINE",
"51 673 LINE SMOOTH",
"90 673 OFFCURVE",
"109 662 OFFCURVE",
"109 637 CURVE SMOOTH",
"109 62 LINE SMOOTH",
"109 37 OFFCURVE",
"90 26 OFFCURVE",
"51 26 CURVE SMOOTH",
"22 26 LINE",
"22 0 LINE"
);
},
{
closed = 1;
nodes = (
"415 -159 OFFCURVE",
"433 -140 OFFCURVE",
"433 -112 CURVE SMOOTH",
"433 -84 OFFCURVE",
"415 -64 OFFCURVE",
"387 -64 CURVE SMOOTH",
"359 -64 OFFCURVE",
"340 -84 OFFCURVE",
"340 -112 CURVE SMOOTH",
"340 -140 OFFCURVE",
"359 -159 OFFCURVE",
"387 -159 CURVE SMOOTH"
);
}
);
};
components = (
{
name = N;
},
{
name = dotbelowcomb;
transform = "{1, 0, 0, 1, 629, 0}";
}
);
layerId = "0B1DFD06-3317-40CA-B510-4969A0718C16";
width = 755;
}
);
note = uni1E46;
unicode = 1E46;
},
{
color = 0;
glyphname = Eng;
lastChange = "2017-12-18 11:13:06 +0000";
layers = (
{
background = {
paths = (
{
closed = 1;
nodes = (
"592 -259 OFFCURVE",
"645 -182 OFFCURVE",
"645 -36 CURVE SMOOTH",
"645 637 LINE SMOOTH",
"645 662 OFFCURVE",
"665 673 OFFCURVE",
"703 673 CURVE SMOOTH",
"733 673 LINE",
"733 700 LINE",
"508 700 LINE",
"508 673 LINE",
"537 673 LINE SMOOTH",
"576 673 OFFCURVE",
"595 662 OFFCURVE",
"595 637 CURVE SMOOTH",
"595 125 LINE",
"219 700 LINE",
"22 700 LINE",
"22 673 LINE",
"51 673 LINE SMOOTH",
"90 673 OFFCURVE",
"109 662 OFFCURVE",
"109 637 CURVE SMOOTH",
"109 62 LINE SMOOTH",
"109 37 OFFCURVE",
"93 26 OFFCURVE",
"51 26 CURVE SMOOTH",
"22 26 LINE",
"22 0 LINE",
"247 0 LINE",
"247 26 LINE",
"217 26 LINE SMOOTH",
"179 26 OFFCURVE",
"159 37 OFFCURVE",
"159 62 CURVE SMOOTH",
"159 647 LINE",
"586 0 LINE",
"586 -76 LINE SMOOTH",
"586 -173 OFFCURVE",
"510 -238 OFFCURVE",
"423 -243 CURVE",
"427 -268 LINE"
);
}
);
};
layerId = "0B1DFD06-3317-40CA-B510-4969A0718C16";
paths = (
{
closed = 1;
nodes = (
"592 -259 OFFCURVE",
"645 -182 OFFCURVE",
"645 -36 CURVE SMOOTH",
"645 637 LINE SMOOTH",
"645 662 OFFCURVE",
"665 673 OFFCURVE",
"703 673 CURVE SMOOTH",
"733 673 LINE",
"733 700 LINE",
"508 700 LINE",
"508 673 LINE",
"537 673 LINE SMOOTH",
"576 673 OFFCURVE",
"595 662 OFFCURVE",
"595 637 CURVE SMOOTH",
"595 125 LINE",
"219 700 LINE",
"22 700 LINE",
"22 673 LINE",
"51 673 LINE SMOOTH",
"90 673 OFFCURVE",
"109 662 OFFCURVE",
"109 637 CURVE SMOOTH",
"109 62 LINE SMOOTH",
"109 37 OFFCURVE",
"93 26 OFFCURVE",
"51 26 CURVE SMOOTH",
"22 26 LINE",
"22 0 LINE",
"247 0 LINE",
"247 26 LINE",
"217 26 LINE SMOOTH",
"179 26 OFFCURVE",
"159 37 OFFCURVE",
"159 62 CURVE SMOOTH",
"159 647 LINE",
"586 0 LINE",
"586 -76 LINE SMOOTH",
"586 -173 OFFCURVE",
"510 -238 OFFCURVE",
"423 -243 CURVE",
"427 -268 LINE"
);
}
);
width = 755;
}
);
note = Eng;
unicode = 014A;
},
{
glyphname = Nlinebelow;
lastChange = "2017-12-18 10:26:13 +0000";
layers = (
{
background = {
paths = (
{
closed = 1;
nodes = (
"247 0 LINE",
"247 26 LINE",
"217 26 LINE SMOOTH",
"179 26 OFFCURVE",
"159 37 OFFCURVE",
"159 62 CURVE SMOOTH",
"159 642 LINE",
"587 0 LINE",
"645 0 LINE",
"645 637 LINE SMOOTH",
"645 662 OFFCURVE",
"665 673 OFFCURVE",
"703 673 CURVE SMOOTH",
"733 673 LINE",
"733 700 LINE",
"508 700 LINE",
"508 673 LINE",
"537 673 LINE SMOOTH",
"576 673 OFFCURVE",
"595 662 OFFCURVE",
"595 637 CURVE SMOOTH",
"595 126 LINE",
"217 700 LINE",
"22 700 LINE",
"22 673 LINE",
"51 673 LINE SMOOTH",
"90 673 OFFCURVE",
"109 662 OFFCURVE",
"109 637 CURVE SMOOTH",
"109 62 LINE SMOOTH",
"109 37 OFFCURVE",
"90 26 OFFCURVE",
"51 26 CURVE SMOOTH",
"22 26 LINE",
"22 0 LINE"
);
},
{
closed = 1;
nodes = (
"542 -110 LINE",
"542 -72 LINE",
"210 -72 LINE",
"210 -110 LINE"
);
}
);
};
components = (
{
name = N;
},
{
name = macronbelowcomb;
transform = "{1, 0, 0, 1, 378, 0}";
}
);
layerId = "0B1DFD06-3317-40CA-B510-4969A0718C16";
width = 755;
}
);
note = Nlinebelow;
unicode = 1E48;
},
{
glyphname = Ntilde;
lastChange = "2017-12-18 10:26:13 +0000";
layers = (
{
background = {
paths = (
{
closed = 1;
nodes = (
"247 0 LINE",
"247 26 LINE",
"217 26 LINE SMOOTH",
"179 26 OFFCURVE",
"159 37 OFFCURVE",
"159 62 CURVE SMOOTH",
"159 642 LINE",
"587 0 LINE",
"645 0 LINE",
"645 637 LINE SMOOTH",
"645 662 OFFCURVE",
"665 673 OFFCURVE",
"703 673 CURVE SMOOTH",
"733 673 LINE",
"733 700 LINE",
"508 700 LINE",
"508 673 LINE",
"537 673 LINE SMOOTH",
"576 673 OFFCURVE",
"595 662 OFFCURVE",
"595 637 CURVE SMOOTH",
"595 126 LINE",
"217 700 LINE",
"22 700 LINE",
"22 673 LINE",
"51 673 LINE SMOOTH",
"90 673 OFFCURVE",
"109 662 OFFCURVE",
"109 637 CURVE SMOOTH",
"109 62 LINE SMOOTH",
"109 37 OFFCURVE",
"90 26 OFFCURVE",
"51 26 CURVE SMOOTH",
"22 26 LINE",
"22 0 LINE"
);
},
{
closed = 1;
nodes = (
"254 818 OFFCURVE",
"272 839 OFFCURVE",
"305 839 CURVE SMOOTH",
"356 839 OFFCURVE",
"405 785 OFFCURVE",
"456 785 CURVE SMOOTH",
"514 785 OFFCURVE",
"544 833 OFFCURVE",
"556 885 CURVE",
"535 896 LINE",
"519 856 OFFCURVE",
"503 834 OFFCURVE",
"469 834 CURVE SMOOTH",
"420 834 OFFCURVE",
"368 887 OFFCURVE",
"317 887 CURVE SMOOTH",
"263 887 OFFCURVE",
"230 843 OFFCURVE",
"218 791 CURVE",
"240 780 LINE"
);
}
);
};
components = (
{
name = N;
},
{
name = tilde;
transform = "{1, 0, 0, 1, 132, 230}";
}
);
layerId = "0B1DFD06-3317-40CA-B510-4969A0718C16";
width = 755;
}
);
note = Ntilde;
unicode = 00D1;
},
{
glyphname = Oacute;
lastChange = "2017-12-18 10:26:13 +0000";
layers = (
{
background = {
paths = (
{
closed = 1;
nodes = (
"601 -10 OFFCURVE",
"719 124 OFFCURVE",
"719 350 CURVE SMOOTH",
"719 574 OFFCURVE",
"601 710 OFFCURVE",
"378 710 CURVE SMOOTH",
"154 710 OFFCURVE",
"36 574 OFFCURVE",
"36 350 CURVE SMOOTH",
"36 124 OFFCURVE",
"154 -10 OFFCURVE",
"378 -10 CURVE SMOOTH"
);
},
{
closed = 1;
nodes = (
"215 32 OFFCURVE",
"135 158 OFFCURVE",
"135 350 CURVE SMOOTH",
"135 541 OFFCURVE",
"215 668 OFFCURVE",
"377 668 CURVE SMOOTH",
"541 668 OFFCURVE",
"620 541 OFFCURVE",
"620 350 CURVE SMOOTH",
"620 158 OFFCURVE",
"541 32 OFFCURVE",
"377 32 CURVE SMOOTH"
);
},
{
closed = 1;
nodes = (
"440 865 LINE SMOOTH",
"462 877 OFFCURVE",
"474 890 OFFCURVE",
"474 907 CURVE SMOOTH",
"474 922 OFFCURVE",
"462 937 OFFCURVE",
"440 937 CURVE SMOOTH",
"419 937 OFFCURVE",
"404 921 OFFCURVE",
"396 914 CURVE SMOOTH",
"281 807 LINE",
"298 782 LINE"
);
}
);
};
components = (
{
name = O;
},
{
name = acute;
transform = "{1, 0, 0, 1, 120, 230}";
}
);
layerId = "0B1DFD06-3317-40CA-B510-4969A0718C16";
width = 755;
}
);
leftKerningGroup = O;
note = Oacute;
rightKerningGroup = O;
unicode = 00D3;
},
{
glyphname = Obreve;
lastChange = "2017-12-18 10:26:13 +0000";
layers = (
{
background = {
paths = (
{
closed = 1;
nodes = (
"601 -10 OFFCURVE",
"719 124 OFFCURVE",
"719 350 CURVE SMOOTH",
"719 574 OFFCURVE",
"601 710 OFFCURVE",
"378 710 CURVE SMOOTH",
"154 710 OFFCURVE",
"36 574 OFFCURVE",
"36 350 CURVE SMOOTH",
"36 124 OFFCURVE",
"154 -10 OFFCURVE",
"378 -10 CURVE SMOOTH"
);
},
{
closed = 1;
nodes = (
"215 32 OFFCURVE",
"135 158 OFFCURVE",
"135 350 CURVE SMOOTH",
"135 541 OFFCURVE",
"215 668 OFFCURVE",
"377 668 CURVE SMOOTH",
"541 668 OFFCURVE",
"620 541 OFFCURVE",
"620 350 CURVE SMOOTH",
"620 158 OFFCURVE",
"541 32 OFFCURVE",
"377 32 CURVE SMOOTH"
);
},
{
closed = 1;
nodes = (
"477 774 OFFCURVE",
"519 830 OFFCURVE",
"523 905 CURVE",
"490 905 LINE",
"484 846 OFFCURVE",
"442 820 OFFCURVE",
"378 820 CURVE SMOOTH",
"314 820 OFFCURVE",
"271 846 OFFCURVE",
"264 905 CURVE",
"231 905 LINE",
"235 827 OFFCURVE",
"277 774 OFFCURVE",
"378 774 CURVE SMOOTH"
);
}
);
};
components = (
{
name = O;
},
{
name = breve;
transform = "{1, 0, 0, 1, 132, 230}";
}
);
layerId = "0B1DFD06-3317-40CA-B510-4969A0718C16";
width = 755;
}
);
leftKerningGroup = O;
note = Obreve;
rightKerningGroup = O;
unicode = 014E;
},
{
glyphname = Ocaron;
lastChange = "2017-12-18 10:26:13 +0000";
layers = (
{
background = {
paths = (
{
closed = 1;
nodes = (
"601 -10 OFFCURVE",
"719 124 OFFCURVE",
"719 350 CURVE SMOOTH",
"719 574 OFFCURVE",
"601 710 OFFCURVE",
"378 710 CURVE SMOOTH",
"154 710 OFFCURVE",
"36 574 OFFCURVE",
"36 350 CURVE SMOOTH",
"36 124 OFFCURVE",
"154 -10 OFFCURVE",
"378 -10 CURVE SMOOTH"
);
},
{
closed = 1;
nodes = (
"215 32 OFFCURVE",
"135 158 OFFCURVE",
"135 350 CURVE SMOOTH",
"135 541 OFFCURVE",
"215 668 OFFCURVE",
"377 668 CURVE SMOOTH",
"541 668 OFFCURVE",
"620 541 OFFCURVE",
"620 350 CURVE SMOOTH",
"620 158 OFFCURVE",
"541 32 OFFCURVE",
"377 32 CURVE SMOOTH"
);
},
{
closed = 1;
nodes = (
"404 782 LINE",
"528 911 LINE",
"509 932 LINE",
"401 847 LINE",
"393 840 OFFCURVE",
"384 836 OFFCURVE",
"378 836 CURVE SMOOTH",
"372 836 OFFCURVE",
"364 840 OFFCURVE",
"354 847 CURVE",
"246 932 LINE",
"227 911 LINE",
"351 782 LINE"
);
}
);
};
components = (
{
name = O;
},
{
name = caron;
transform = "{1, 0, 0, 1, 132, 230}";
}
);
layerId = "0B1DFD06-3317-40CA-B510-4969A0718C16";
width = 755;
}
);
leftKerningGroup = O;
note = Ocaron;
rightKerningGroup = O;
unicode = 01D1;
},
{
glyphname = Ocircumflex;
lastChange = "2017-12-18 10:26:13 +0000";
layers = (
{
background = {
paths = (
{
closed = 1;
nodes = (
"601 -10 OFFCURVE",
"719 124 OFFCURVE",
"719 350 CURVE SMOOTH",
"719 574 OFFCURVE",
"601 710 OFFCURVE",
"378 710 CURVE SMOOTH",
"154 710 OFFCURVE",
"36 574 OFFCURVE",
"36 350 CURVE SMOOTH",
"36 124 OFFCURVE",
"154 -10 OFFCURVE",
"378 -10 CURVE SMOOTH"
);
},
{
closed = 1;
nodes = (
"215 32 OFFCURVE",
"135 158 OFFCURVE",
"135 350 CURVE SMOOTH",
"135 541 OFFCURVE",
"215 668 OFFCURVE",
"377 668 CURVE SMOOTH",
"541 668 OFFCURVE",
"620 541 OFFCURVE",
"620 350 CURVE SMOOTH",
"620 158 OFFCURVE",
"541 32 OFFCURVE",
"377 32 CURVE SMOOTH"
);
},
{
closed = 1;
nodes = (
"354 868 LINE SMOOTH",
"362 874 OFFCURVE",
"372 879 OFFCURVE",
"378 879 CURVE SMOOTH",
"384 879 OFFCURVE",
"392 874 OFFCURVE",
"401 868 CURVE",
"509 782 LINE",
"528 803 LINE",
"404 932 LINE",
"351 932 LINE",
"227 803 LINE",
"246 782 LINE"
);
}
);
};
components = (
{
name = O;
},
{
name = circumflex;
transform = "{1, 0, 0, 1, 132, 230}";
}
);
layerId = "0B1DFD06-3317-40CA-B510-4969A0718C16";
width = 755;
}
);
leftKerningGroup = O;
note = Ocircumflex;
rightKerningGroup = O;
unicode = 00D4;
},
{
glyphname = Ocircumflexacute;
lastChange = "2017-12-18 10:26:13 +0000";
layers = (
{
background = {
paths = (
{
closed = 1;
nodes = (
"601 -10 OFFCURVE",
"719 124 OFFCURVE",
"719 350 CURVE SMOOTH",
"719 574 OFFCURVE",
"601 710 OFFCURVE",
"378 710 CURVE SMOOTH",
"154 710 OFFCURVE",
"36 574 OFFCURVE",
"36 350 CURVE SMOOTH",
"36 124 OFFCURVE",
"154 -10 OFFCURVE",
"378 -10 CURVE SMOOTH"
);
},
{
closed = 1;
nodes = (
"215 32 OFFCURVE",
"135 158 OFFCURVE",
"135 350 CURVE SMOOTH",
"135 541 OFFCURVE",
"215 668 OFFCURVE",
"377 668 CURVE SMOOTH",
"541 668 OFFCURVE",
"620 541 OFFCURVE",
"620 350 CURVE SMOOTH",
"620 158 OFFCURVE",
"541 32 OFFCURVE",
"377 32 CURVE SMOOTH"
);
},
{
closed = 1;
nodes = (
"348 861 LINE SMOOTH",
"358 869 OFFCURVE",
"368 877 OFFCURVE",
"376 877 CURVE SMOOTH",
"382 877 OFFCURVE",
"390 872 OFFCURVE",
"399 866 CURVE",
"505 780 LINE",
"524 802 LINE",
"402 931 LINE",
"351 931 LINE",
"229 802 LINE",
"247 780 LINE"
);
},
{
closed = 1;
nodes = (
"613 959 LINE SMOOTH",
"636 971 OFFCURVE",
"649 987 OFFCURVE",
"649 1002 CURVE SMOOTH",
"649 1016 OFFCURVE",
"638 1033 OFFCURVE",
"615 1033 CURVE SMOOTH",
"596 1033 OFFCURVE",
"579 1017 OFFCURVE",
"569 1007 CURVE SMOOTH",
"473 914 LINE",
"491 892 LINE"
);
}
);
};
components = (
{
name = O;
},
{
name = circumflexacute;
transform = "{1, 0, 0, 1, 628, 230}";
}
);
layerId = "0B1DFD06-3317-40CA-B510-4969A0718C16";
width = 755;
}
);
leftKerningGroup = O;
note = Ocircumflexacute;
rightKerningGroup = O;
unicode = 1ED0;
},
{
glyphname = Ocircumflexdotbelow;
lastChange = "2017-12-18 10:26:13 +0000";
layers = (
{
background = {
paths = (
{
closed = 1;
nodes = (
"36 124 OFFCURVE",
"154 -10 OFFCURVE",
"378 -10 CURVE SMOOTH",
"601 -10 OFFCURVE",
"719 124 OFFCURVE",
"719 350 CURVE SMOOTH",
"719 574 OFFCURVE",
"601 710 OFFCURVE",
"378 710 CURVE SMOOTH",
"154 710 OFFCURVE",
"36 574 OFFCURVE",
"36 350 CURVE SMOOTH"
);
},
{
closed = 1;
nodes = (
"135 541 OFFCURVE",
"215 668 OFFCURVE",
"377 668 CURVE SMOOTH",
"541 668 OFFCURVE",
"620 541 OFFCURVE",
"620 350 CURVE SMOOTH",
"620 158 OFFCURVE",
"541 32 OFFCURVE",
"377 32 CURVE SMOOTH",
"215 32 OFFCURVE",
"135 158 OFFCURVE",
"135 350 CURVE SMOOTH"
);
},
{
closed = 1;
nodes = (
"245 782 LINE",
"353 868 LINE SMOOTH",
"361 874 OFFCURVE",
"371 879 OFFCURVE",
"377 879 CURVE SMOOTH",
"383 879 OFFCURVE",
"391 874 OFFCURVE",
"400 868 CURVE",
"508 782 LINE",
"527 803 LINE",
"403 932 LINE",
"350 932 LINE",
"226 803 LINE"
);
},
{
closed = 1;
nodes = (
"330 -140 OFFCURVE",
"349 -159 OFFCURVE",
"377 -159 CURVE SMOOTH",
"405 -159 OFFCURVE",
"423 -140 OFFCURVE",
"423 -112 CURVE SMOOTH",
"423 -84 OFFCURVE",
"405 -64 OFFCURVE",
"377 -64 CURVE SMOOTH",
"349 -64 OFFCURVE",
"330 -84 OFFCURVE",
"330 -112 CURVE SMOOTH"
);
}
);
};
components = (
{
name = O;
},
{
name = dotbelowcomb;
transform = "{1, 0, 0, 1, 629, 0}";
},
{
name = circumflex;
transform = "{1, 0, 0, 1, 132, 230}";
}
);
layerId = "0B1DFD06-3317-40CA-B510-4969A0718C16";
width = 755;
}
);
leftKerningGroup = O;
note = Ocircumflexdotbelow;
rightKerningGroup = O;
unicode = 1ED8;
},
{
glyphname = Ocircumflexgrave;
lastChange = "2017-12-18 10:26:13 +0000";
layers = (
{
background = {
paths = (
{
closed = 1;
nodes = (
"601 -10 OFFCURVE",
"719 124 OFFCURVE",
"719 350 CURVE SMOOTH",
"719 574 OFFCURVE",
"601 710 OFFCURVE",
"378 710 CURVE SMOOTH",
"154 710 OFFCURVE",
"36 574 OFFCURVE",
"36 350 CURVE SMOOTH",
"36 124 OFFCURVE",
"154 -10 OFFCURVE",
"378 -10 CURVE SMOOTH"
);
},
{
closed = 1;
nodes = (
"215 32 OFFCURVE",
"135 158 OFFCURVE",
"135 350 CURVE SMOOTH",
"135 541 OFFCURVE",
"215 668 OFFCURVE",
"377 668 CURVE SMOOTH",
"541 668 OFFCURVE",
"620 541 OFFCURVE",
"620 350 CURVE SMOOTH",
"620 158 OFFCURVE",
"541 32 OFFCURVE",
"377 32 CURVE SMOOTH"
);
},
{
closed = 1;
nodes = (
"285 914 LINE",
"190 1007 LINE SMOOTH",
"180 1017 OFFCURVE",
"163 1033 OFFCURVE",
"143 1033 CURVE SMOOTH",
"121 1033 OFFCURVE",
"110 1016 OFFCURVE",
"110 1002 CURVE SMOOTH",
"110 987 OFFCURVE",
"123 971 OFFCURVE",
"146 959 CURVE SMOOTH",
"268 892 LINE"
);
},
{
closed = 1;
nodes = (
"348 861 LINE SMOOTH",
"358 869 OFFCURVE",
"368 877 OFFCURVE",
"376 877 CURVE SMOOTH",
"382 877 OFFCURVE",
"390 872 OFFCURVE",
"399 866 CURVE",
"505 780 LINE",
"524 802 LINE",
"402 931 LINE",
"351 931 LINE",
"229 802 LINE",
"247 780 LINE"
);
}
);
};
components = (
{
name = O;
},
{
name = circumflexgrave;
transform = "{1, 0, 0, 1, 628, 230}";
}
);
layerId = "0B1DFD06-3317-40CA-B510-4969A0718C16";
width = 755;
}
);
leftKerningGroup = O;
note = Ocircumflexgrave;
rightKerningGroup = O;
unicode = 1ED2;
},
{
glyphname = Ocircumflexhookabove;
lastChange = "2017-12-18 10:26:13 +0000";
layers = (
{
background = {
paths = (
{
closed = 1;
nodes = (
"601 -10 OFFCURVE",
"719 124 OFFCURVE",
"719 350 CURVE SMOOTH",
"719 574 OFFCURVE",
"601 710 OFFCURVE",
"378 710 CURVE SMOOTH",
"154 710 OFFCURVE",
"36 574 OFFCURVE",
"36 350 CURVE SMOOTH",
"36 124 OFFCURVE",
"154 -10 OFFCURVE",
"378 -10 CURVE SMOOTH"
);
},
{
closed = 1;
nodes = (
"215 32 OFFCURVE",
"135 158 OFFCURVE",
"135 350 CURVE SMOOTH",
"135 541 OFFCURVE",
"215 668 OFFCURVE",
"377 668 CURVE SMOOTH",
"541 668 OFFCURVE",
"620 541 OFFCURVE",
"620 350 CURVE SMOOTH",
"620 158 OFFCURVE",
"541 32 OFFCURVE",
"377 32 CURVE SMOOTH"
);
},
{
closed = 1;
nodes = (
"344 858 LINE",
"355 868 OFFCURVE",
"367 878 OFFCURVE",
"376 878 CURVE SMOOTH",
"382 878 OFFCURVE",
"390 873 OFFCURVE",
"399 867 CURVE",
"505 781 LINE",
"524 803 LINE",
"402 932 LINE",
"351 932 LINE",
"229 803 LINE",
"247 781 LINE"
);
},
{
closed = 1;
nodes = (
"551 898 LINE",
"532 905 OFFCURVE",
"522 912 OFFCURVE",
"522 926 CURVE SMOOTH",
"522 954 OFFCURVE",
"602 965 OFFCURVE",
"602 1010 CURVE SMOOTH",
"602 1047 OFFCURVE",
"560 1063 OFFCURVE",
"518 1063 CURVE SMOOTH",
"487 1063 OFFCURVE",
"442 1053 OFFCURVE",
"442 1022 CURVE SMOOTH",
"442 1010 OFFCURVE",
"453 1001 OFFCURVE",
"463 1001 CURVE SMOOTH",
"492 1001 OFFCURVE",
"479 1040 OFFCURVE",
"522 1040 CURVE SMOOTH",
"541 1040 OFFCURVE",
"552 1028 OFFCURVE",
"552 1013 CURVE SMOOTH",
"552 973 OFFCURVE",
"479 965 OFFCURVE",
"479 925 CURVE SMOOTH",
"479 901 OFFCURVE",
"495 880 OFFCURVE",
"542 880 CURVE"
);
}
);
};
components = (
{
name = O;
},
{
name = circumflexhookabove;
transform = "{1, 0, 0, 1, 628, 230}";
}
);
layerId = "0B1DFD06-3317-40CA-B510-4969A0718C16";
width = 755;
}
);
leftKerningGroup = O;
note = Ocircumflexhookabove;
rightKerningGroup = O;
unicode = 1ED4;
},
{
glyphname = Ocircumflextilde;
lastChange = "2017-12-18 10:26:13 +0000";
layers = (
{
background = {
paths = (
{
closed = 1;
nodes = (
"601 -10 OFFCURVE",
"719 124 OFFCURVE",
"719 350 CURVE SMOOTH",
"719 574 OFFCURVE",
"601 710 OFFCURVE",
"378 710 CURVE SMOOTH",
"154 710 OFFCURVE",
"36 574 OFFCURVE",
"36 350 CURVE SMOOTH",
"36 124 OFFCURVE",
"154 -10 OFFCURVE",
"378 -10 CURVE SMOOTH"
);
},
{
closed = 1;
nodes = (
"215 32 OFFCURVE",
"135 158 OFFCURVE",
"135 350 CURVE SMOOTH",
"135 541 OFFCURVE",
"215 668 OFFCURVE",
"377 668 CURVE SMOOTH",
"541 668 OFFCURVE",
"620 541 OFFCURVE",
"620 350 CURVE SMOOTH",
"620 158 OFFCURVE",
"541 32 OFFCURVE",
"377 32 CURVE SMOOTH"
);
},
{
closed = 1;
nodes = (
"348 862 LINE SMOOTH",
"358 870 OFFCURVE",
"368 878 OFFCURVE",
"376 878 CURVE SMOOTH",
"382 878 OFFCURVE",
"390 873 OFFCURVE",
"399 867 CURVE",
"505 781 LINE",
"524 803 LINE",
"402 932 LINE",
"351 932 LINE",
"229 803 LINE",
"247 781 LINE"
);
},
{
closed = 1;
nodes = (
"251 997 OFFCURVE",
"269 1018 OFFCURVE",
"300 1018 CURVE SMOOTH",
"349 1018 OFFCURVE",
"396 964 OFFCURVE",
"445 964 CURVE SMOOTH",
"498 964 OFFCURVE",
"527 1012 OFFCURVE",
"539 1063 CURVE",
"518 1075 LINE",
"505 1035 OFFCURVE",
"489 1012 OFFCURVE",
"456 1012 CURVE SMOOTH",
"409 1012 OFFCURVE",
"360 1065 OFFCURVE",
"311 1065 CURVE SMOOTH",
"260 1065 OFFCURVE",
"228 1021 OFFCURVE",
"218 970 CURVE",
"238 958 LINE"
);
}
);
};
components = (
{
name = O;
},
{
name = circumflextilde;
transform = "{1, 0, 0, 1, 628, 230}";
}
);
layerId = "0B1DFD06-3317-40CA-B510-4969A0718C16";
width = 755;
}
);
leftKerningGroup = O;
note = Ocircumflextilde;
rightKerningGroup = O;
unicode = 1ED6;
},
{
glyphname = Odieresis;
lastChange = "2017-12-18 10:26:13 +0000";
layers = (
{
background = {
paths = (
{
closed = 1;
nodes = (
"601 -10 OFFCURVE",
"719 124 OFFCURVE",
"719 350 CURVE SMOOTH",
"719 574 OFFCURVE",
"601 710 OFFCURVE",
"378 710 CURVE SMOOTH",
"154 710 OFFCURVE",
"36 574 OFFCURVE",
"36 350 CURVE SMOOTH",
"36 124 OFFCURVE",
"154 -10 OFFCURVE",
"378 -10 CURVE SMOOTH"
);
},
{
closed = 1;
nodes = (
"215 32 OFFCURVE",
"135 158 OFFCURVE",
"135 350 CURVE SMOOTH",
"135 541 OFFCURVE",
"215 668 OFFCURVE",
"377 668 CURVE SMOOTH",
"541 668 OFFCURVE",
"620 541 OFFCURVE",
"620 350 CURVE SMOOTH",
"620 158 OFFCURVE",
"541 32 OFFCURVE",
"377 32 CURVE SMOOTH"
);
},
{
closed = 1;
nodes = (
"298 781 OFFCURVE",
"316 800 OFFCURVE",
"316 827 CURVE SMOOTH",
"316 855 OFFCURVE",
"298 875 OFFCURVE",
"269 875 CURVE SMOOTH",
"241 875 OFFCURVE",
"223 855 OFFCURVE",
"223 827 CURVE SMOOTH",
"223 800 OFFCURVE",
"241 781 OFFCURVE",
"269 781 CURVE SMOOTH"
);
},
{
closed = 1;
nodes = (
"514 781 OFFCURVE",
"532 800 OFFCURVE",
"532 827 CURVE SMOOTH",
"532 855 OFFCURVE",
"514 875 OFFCURVE",
"485 875 CURVE SMOOTH",
"456 875 OFFCURVE",
"438 855 OFFCURVE",
"438 827 CURVE SMOOTH",
"438 800 OFFCURVE",
"456 781 OFFCURVE",
"485 781 CURVE SMOOTH"
);
}
);
};
components = (
{
name = O;
},
{
name = dieresis;
transform = "{1, 0, 0, 1, 132, 230}";
}
);
layerId = "0B1DFD06-3317-40CA-B510-4969A0718C16";
width = 755;
}
);
leftKerningGroup = O;
note = Odieresis;
rightKerningGroup = O;
unicode = 00D6;
},
{
glyphname = Odotbelow;
lastChange = "2017-12-18 10:26:13 +0000";
layers = (
{
background = {
paths = (
{
closed = 1;
nodes = (
"36 124 OFFCURVE",
"154 -10 OFFCURVE",
"378 -10 CURVE SMOOTH",
"601 -10 OFFCURVE",
"719 124 OFFCURVE",
"719 350 CURVE SMOOTH",
"719 574 OFFCURVE",
"601 710 OFFCURVE",
"378 710 CURVE SMOOTH",
"154 710 OFFCURVE",
"36 574 OFFCURVE",
"36 350 CURVE SMOOTH"
);
},
{
closed = 1;
nodes = (
"135 541 OFFCURVE",
"215 668 OFFCURVE",
"377 668 CURVE SMOOTH",
"541 668 OFFCURVE",
"620 541 OFFCURVE",
"620 350 CURVE SMOOTH",
"620 158 OFFCURVE",
"541 32 OFFCURVE",
"377 32 CURVE SMOOTH",
"215 32 OFFCURVE",
"135 158 OFFCURVE",
"135 350 CURVE SMOOTH"
);
},
{
closed = 1;
nodes = (
"330 -140 OFFCURVE",
"349 -159 OFFCURVE",
"377 -159 CURVE SMOOTH",
"405 -159 OFFCURVE",
"423 -140 OFFCURVE",
"423 -112 CURVE SMOOTH",
"423 -84 OFFCURVE",
"405 -64 OFFCURVE",
"377 -64 CURVE SMOOTH",
"349 -64 OFFCURVE",
"330 -84 OFFCURVE",
"330 -112 CURVE SMOOTH"
);
}
);
};
components = (
{
name = O;
},
{
name = dotbelowcomb;
transform = "{1, 0, 0, 1, 629, 0}";
}
);
layerId = "0B1DFD06-3317-40CA-B510-4969A0718C16";
width = 755;
}
);
leftKerningGroup = O;
note = Odotbelow;
rightKerningGroup = O;
unicode = 1ECC;
},
{
glyphname = Ograve;
lastChange = "2017-12-18 10:26:13 +0000";
layers = (
{
background = {
paths = (
{
closed = 1;
nodes = (
"601 -10 OFFCURVE",
"719 124 OFFCURVE",
"719 350 CURVE SMOOTH",
"719 574 OFFCURVE",
"601 710 OFFCURVE",
"378 710 CURVE SMOOTH",
"154 710 OFFCURVE",
"36 574 OFFCURVE",
"36 350 CURVE SMOOTH",
"36 124 OFFCURVE",
"154 -10 OFFCURVE",
"378 -10 CURVE SMOOTH"
);
},
{
closed = 1;
nodes = (
"215 32 OFFCURVE",
"135 158 OFFCURVE",
"135 350 CURVE SMOOTH",
"135 541 OFFCURVE",
"215 668 OFFCURVE",
"377 668 CURVE SMOOTH",
"541 668 OFFCURVE",
"620 541 OFFCURVE",
"620 350 CURVE SMOOTH",
"620 158 OFFCURVE",
"541 32 OFFCURVE",
"377 32 CURVE SMOOTH"
);
},
{
closed = 1;
nodes = (
"459 807 LINE",
"344 913 LINE",
"335 922 OFFCURVE",
"319 937 OFFCURVE",
"299 937 CURVE SMOOTH",
"279 937 OFFCURVE",
"267 924 OFFCURVE",
"267 908 CURVE SMOOTH",
"267 890 OFFCURVE",
"279 876 OFFCURVE",
"298 865 CURVE SMOOTH",
"441 782 LINE"
);
}
);
};
components = (
{
name = O;
},
{
name = grave;
transform = "{1, 0, 0, 1, 132, 230}";
}
);
layerId = "0B1DFD06-3317-40CA-B510-4969A0718C16";
width = 755;
}
);
leftKerningGroup = O;
note = Ograve;
rightKerningGroup = O;
unicode = 00D2;
},
{
glyphname = Ohookabove;
lastChange = "2017-12-18 10:26:13 +0000";
layers = (
{
background = {
paths = (
{
closed = 1;
nodes = (
"601 -10 OFFCURVE",
"719 124 OFFCURVE",
"719 350 CURVE SMOOTH",
"719 574 OFFCURVE",
"601 710 OFFCURVE",
"378 710 CURVE SMOOTH",
"154 710 OFFCURVE",
"36 574 OFFCURVE",
"36 350 CURVE SMOOTH",
"36 124 OFFCURVE",
"154 -10 OFFCURVE",
"378 -10 CURVE SMOOTH"
);
},
{
closed = 1;
nodes = (
"215 32 OFFCURVE",
"135 158 OFFCURVE",
"135 350 CURVE SMOOTH",
"135 541 OFFCURVE",
"215 668 OFFCURVE",
"377 668 CURVE SMOOTH",
"541 668 OFFCURVE",
"620 541 OFFCURVE",
"620 350 CURVE SMOOTH",
"620 158 OFFCURVE",
"541 32 OFFCURVE",
"377 32 CURVE SMOOTH"
);
},
{
closed = 1;
nodes = (
"407 798 LINE",
"388 805 OFFCURVE",
"376 811 OFFCURVE",
"376 828 CURVE SMOOTH",
"376 861 OFFCURVE",
"465 876 OFFCURVE",
"465 927 CURVE SMOOTH",
"465 969 OFFCURVE",
"429 991 OFFCURVE",
"376 991 CURVE SMOOTH",
"329 991 OFFCURVE",
"288 974 OFFCURVE",
"288 940 CURVE SMOOTH",
"288 923 OFFCURVE",
"296 915 OFFCURVE",
"311 915 CURVE SMOOTH",
"334 915 OFFCURVE",
"336 934 OFFCURVE",
"339 942 CURVE SMOOTH",
"344 956 OFFCURVE",
"361 962 OFFCURVE",
"377 962 CURVE SMOOTH",
"398 962 OFFCURVE",
"411 947 OFFCURVE",
"411 930 CURVE SMOOTH",
"411 885 OFFCURVE",
"329 874 OFFCURVE",
"329 828 CURVE SMOOTH",
"329 801 OFFCURVE",
"347 778 OFFCURVE",
"398 778 CURVE"
);
}
);
};
components = (
{
name = O;
},
{
name = hookabovecomb;
transform = "{1, 0, 0, 1, 629, 230}";
}
);
layerId = "0B1DFD06-3317-40CA-B510-4969A0718C16";
width = 755;
}
);
leftKerningGroup = O;
note = Ohookabove;
rightKerningGroup = O;
unicode = 1ECE;
},
{
glyphname = Ohorn;
lastChange = "2017-12-18 12:12:57 +0000";
layers = (
{
layerId = "0B1DFD06-3317-40CA-B510-4969A0718C16";
paths = (
{
closed = 1;
nodes = (
"812 750 LINE",
"812 683 OFFCURVE",
"800 605 OFFCURVE",
"722 589 CURVE",
"722 565 LINE",
"827 578 OFFCURVE",
"893 643 OFFCURVE",
"893 750 CURVE"
);
},
{
closed = 1;
nodes = (
"845 571 OFFCURVE",
"647 722 OFFCURVE",
"437 722 CURVE SMOOTH",
"229 722 OFFCURVE",
"28 568 OFFCURVE",
"28 348 CURVE SMOOTH",
"28 127 OFFCURVE",
"225 -25 OFFCURVE",
"436 -25 CURVE SMOOTH",
"647 -25 OFFCURVE",
"845 127 OFFCURVE",
"845 349 CURVE SMOOTH"
);
},
{
closed = 1;
nodes = (
"745 163 OFFCURVE",
"634 3 OFFCURVE",
"436 3 CURVE SMOOTH",
"238 3 OFFCURVE",
"127 162 OFFCURVE",
"127 348 CURVE SMOOTH",
"127 535 OFFCURVE",
"240 694 OFFCURVE",
"437 694 CURVE SMOOTH",
"634 694 OFFCURVE",
"745 535 OFFCURVE",
"745 349 CURVE SMOOTH"
);
}
);
width = 878;
}
);
note = Ohorn;
unicode = 01A0;
},
{
glyphname = Ohornacute;
lastChange = "2017-12-18 11:13:28 +0000";
layers = (
{
background = {
paths = (
{
closed = 1;
nodes = (
"602 -10 OFFCURVE",
"720 124 OFFCURVE",
"720 350 CURVE SMOOTH",
"720 574 OFFCURVE",
"602 710 OFFCURVE",
"379 710 CURVE SMOOTH",
"155 710 OFFCURVE",
"37 574 OFFCURVE",
"37 350 CURVE SMOOTH",
"37 124 OFFCURVE",
"155 -10 OFFCURVE",
"379 -10 CURVE SMOOTH"
);
},
{
closed = 1;
nodes = (
"216 32 OFFCURVE",
"136 158 OFFCURVE",
"136 350 CURVE SMOOTH",
"136 541 OFFCURVE",
"216 668 OFFCURVE",
"378 668 CURVE SMOOTH",
"542 668 OFFCURVE",
"621 541 OFFCURVE",
"621 350 CURVE SMOOTH",
"621 158 OFFCURVE",
"542 32 OFFCURVE",
"378 32 CURVE SMOOTH"
);
},
{
closed = 1;
nodes = (
"424 864 LINE SMOOTH",
"446 876 OFFCURVE",
"458 889 OFFCURVE",
"458 906 CURVE SMOOTH",
"458 921 OFFCURVE",
"446 936 OFFCURVE",
"424 936 CURVE SMOOTH",
"403 936 OFFCURVE",
"388 920 OFFCURVE",
"380 913 CURVE SMOOTH",
"265 806 LINE",
"282 781 LINE"
);
},
{
closed = 1;
nodes = (
"691 567 OFFCURVE",
"756 632 OFFCURVE",
"756 705 CURVE SMOOTH",
"756 752 OFFCURVE",
"729 772 OFFCURVE",
"701 772 CURVE SMOOTH",
"672 772 OFFCURVE",
"656 752 OFFCURVE",
"656 729 CURVE SMOOTH",
"656 695 OFFCURVE",
"689 688 OFFCURVE",
"689 653 CURVE SMOOTH",
"689 617 OFFCURVE",
"658 588 OFFCURVE",
"623 568 CURVE",
"623 543 LINE"
);
}
);
};
components = (
{
name = acute;
transform = "{1, 0, 0, 1, 120, 230}";
},
{
name = Ohorn;
}
);
layerId = "0B1DFD06-3317-40CA-B510-4969A0718C16";
width = 755;
}
);
leftKerningGroup = O;
note = Ohornacute;
rightKerningGroup = O;
unicode = 1EDA;
},
{
glyphname = Ohorndotbelow;
lastChange = "2017-12-18 11:13:32 +0000";
layers = (
{
background = {
paths = (
{
closed = 1;
nodes = (
"602 -10 OFFCURVE",
"720 124 OFFCURVE",
"720 350 CURVE SMOOTH",
"720 574 OFFCURVE",
"602 710 OFFCURVE",
"379 710 CURVE SMOOTH",
"155 710 OFFCURVE",
"37 574 OFFCURVE",
"37 350 CURVE SMOOTH",
"37 124 OFFCURVE",
"155 -10 OFFCURVE",
"379 -10 CURVE SMOOTH"
);
},
{
closed = 1;
nodes = (
"216 32 OFFCURVE",
"136 158 OFFCURVE",
"136 350 CURVE SMOOTH",
"136 541 OFFCURVE",
"216 668 OFFCURVE",
"378 668 CURVE SMOOTH",
"542 668 OFFCURVE",
"621 541 OFFCURVE",
"621 350 CURVE SMOOTH",
"621 158 OFFCURVE",
"542 32 OFFCURVE",
"378 32 CURVE SMOOTH"
);
},
{
closed = 1;
nodes = (
"691 567 OFFCURVE",
"756 632 OFFCURVE",
"756 705 CURVE SMOOTH",
"756 752 OFFCURVE",
"729 772 OFFCURVE",
"701 772 CURVE SMOOTH",
"672 772 OFFCURVE",
"656 752 OFFCURVE",
"656 729 CURVE SMOOTH",
"656 695 OFFCURVE",
"689 688 OFFCURVE",
"689 653 CURVE SMOOTH",
"689 617 OFFCURVE",
"658 588 OFFCURVE",
"623 568 CURVE",
"623 543 LINE"
);
},
{
closed = 1;
nodes = (
"395 -159 OFFCURVE",
"413 -140 OFFCURVE",
"413 -112 CURVE SMOOTH",
"413 -84 OFFCURVE",
"395 -64 OFFCURVE",
"367 -64 CURVE SMOOTH",
"339 -64 OFFCURVE",
"320 -84 OFFCURVE",
"320 -112 CURVE SMOOTH",
"320 -140 OFFCURVE",
"339 -159 OFFCURVE",
"367 -159 CURVE SMOOTH"
);
}
);
};
components = (
{
name = dotbelowcomb;
transform = "{1, 0, 0, 1, 629, 0}";
},
{
name = Ohorn;
}
);
layerId = "0B1DFD06-3317-40CA-B510-4969A0718C16";
width = 755;
}
);
leftKerningGroup = O;
note = Ohorndotbelow;
rightKerningGroup = O;
unicode = 1EE2;
},
{
glyphname = Ohorngrave;
lastChange = "2017-12-18 11:13:36 +0000";
layers = (
{
background = {
paths = (
{
closed = 1;
nodes = (
"602 -10 OFFCURVE",
"720 124 OFFCURVE",
"720 350 CURVE SMOOTH",
"720 574 OFFCURVE",
"602 710 OFFCURVE",
"379 710 CURVE SMOOTH",
"155 710 OFFCURVE",
"37 574 OFFCURVE",
"37 350 CURVE SMOOTH",
"37 124 OFFCURVE",
"155 -10 OFFCURVE",
"379 -10 CURVE SMOOTH"
);
},
{
closed = 1;
nodes = (
"216 32 OFFCURVE",
"136 158 OFFCURVE",
"136 350 CURVE SMOOTH",
"136 541 OFFCURVE",
"216 668 OFFCURVE",
"378 668 CURVE SMOOTH",
"542 668 OFFCURVE",
"621 541 OFFCURVE",
"621 350 CURVE SMOOTH",
"621 158 OFFCURVE",
"542 32 OFFCURVE",
"378 32 CURVE SMOOTH"
);
},
{
closed = 1;
nodes = (
"464 816 LINE",
"349 922 LINE",
"340 931 OFFCURVE",
"324 946 OFFCURVE",
"304 946 CURVE SMOOTH",
"284 946 OFFCURVE",
"272 933 OFFCURVE",
"272 917 CURVE SMOOTH",
"272 899 OFFCURVE",
"284 885 OFFCURVE",
"303 874 CURVE SMOOTH",
"446 791 LINE"
);
},
{
closed = 1;
nodes = (
"691 567 OFFCURVE",
"756 632 OFFCURVE",
"756 705 CURVE SMOOTH",
"756 752 OFFCURVE",
"729 772 OFFCURVE",
"701 772 CURVE SMOOTH",
"672 772 OFFCURVE",
"656 752 OFFCURVE",
"656 729 CURVE SMOOTH",
"656 695 OFFCURVE",
"689 688 OFFCURVE",
"689 653 CURVE SMOOTH",
"689 617 OFFCURVE",
"658 588 OFFCURVE",
"623 568 CURVE",
"623 543 LINE"
);
}
);
};
components = (
{
name = grave;
transform = "{1, 0, 0, 1, 132, 230}";
},
{
name = Ohorn;
}
);
layerId = "0B1DFD06-3317-40CA-B510-4969A0718C16";
width = 755;
}
);
leftKerningGroup = O;
note = Ohorngrave;
rightKerningGroup = O;
unicode = 1EDC;
},
{
glyphname = Ohornhookabove;
lastChange = "2017-12-18 11:13:38 +0000";
layers = (
{
background = {
paths = (
{
closed = 1;
nodes = (
"602 -10 OFFCURVE",
"720 124 OFFCURVE",
"720 350 CURVE SMOOTH",
"720 574 OFFCURVE",
"602 710 OFFCURVE",
"379 710 CURVE SMOOTH",
"155 710 OFFCURVE",
"37 574 OFFCURVE",
"37 350 CURVE SMOOTH",
"37 124 OFFCURVE",
"155 -10 OFFCURVE",
"379 -10 CURVE SMOOTH"
);
},
{
closed = 1;
nodes = (
"216 32 OFFCURVE",
"136 158 OFFCURVE",
"136 350 CURVE SMOOTH",
"136 541 OFFCURVE",
"216 668 OFFCURVE",
"378 668 CURVE SMOOTH",
"542 668 OFFCURVE",
"621 541 OFFCURVE",
"621 350 CURVE SMOOTH",
"621 158 OFFCURVE",
"542 32 OFFCURVE",
"378 32 CURVE SMOOTH"
);
},
{
closed = 1;
nodes = (
"412 809 LINE",
"393 816 OFFCURVE",
"381 822 OFFCURVE",
"381 839 CURVE SMOOTH",
"381 872 OFFCURVE",
"470 887 OFFCURVE",
"470 938 CURVE SMOOTH",
"470 980 OFFCURVE",
"434 1002 OFFCURVE",
"381 1002 CURVE SMOOTH",
"334 1002 OFFCURVE",
"293 985 OFFCURVE",
"293 951 CURVE SMOOTH",
"293 934 OFFCURVE",
"301 926 OFFCURVE",
"316 926 CURVE SMOOTH",
"339 926 OFFCURVE",
"341 945 OFFCURVE",
"344 953 CURVE SMOOTH",
"349 967 OFFCURVE",
"366 973 OFFCURVE",
"382 973 CURVE SMOOTH",
"403 973 OFFCURVE",
"416 958 OFFCURVE",
"416 941 CURVE SMOOTH",
"416 896 OFFCURVE",
"334 885 OFFCURVE",
"334 839 CURVE SMOOTH",
"334 812 OFFCURVE",
"352 789 OFFCURVE",
"403 789 CURVE"
);
},
{
closed = 1;
nodes = (
"691 567 OFFCURVE",
"756 632 OFFCURVE",
"756 705 CURVE SMOOTH",
"756 752 OFFCURVE",
"729 772 OFFCURVE",
"701 772 CURVE SMOOTH",
"672 772 OFFCURVE",
"656 752 OFFCURVE",
"656 729 CURVE SMOOTH",
"656 695 OFFCURVE",
"689 688 OFFCURVE",
"689 653 CURVE SMOOTH",
"689 617 OFFCURVE",
"658 588 OFFCURVE",
"623 568 CURVE",
"623 543 LINE"
);
}
);
};
components = (
{
name = hookabovecomb;
transform = "{1, 0, 0, 1, 629, 230}";
},
{
name = Ohorn;
}
);
layerId = "0B1DFD06-3317-40CA-B510-4969A0718C16";
width = 755;
}
);
leftKerningGroup = O;
note = Ohornhookabove;
rightKerningGroup = O;
unicode = 1EDE;
},
{
glyphname = Ohorntilde;
lastChange = "2017-12-18 11:13:41 +0000";
layers = (
{
background = {
paths = (
{
closed = 1;
nodes = (
"602 -10 OFFCURVE",
"720 124 OFFCURVE",
"720 350 CURVE SMOOTH",
"720 574 OFFCURVE",
"602 710 OFFCURVE",
"379 710 CURVE SMOOTH",
"155 710 OFFCURVE",
"37 574 OFFCURVE",
"37 350 CURVE SMOOTH",
"37 124 OFFCURVE",
"155 -10 OFFCURVE",
"379 -10 CURVE SMOOTH"
);
},
{
closed = 1;
nodes = (
"216 32 OFFCURVE",
"136 158 OFFCURVE",
"136 350 CURVE SMOOTH",
"136 541 OFFCURVE",
"216 668 OFFCURVE",
"378 668 CURVE SMOOTH",
"542 668 OFFCURVE",
"621 541 OFFCURVE",
"621 350 CURVE SMOOTH",
"621 158 OFFCURVE",
"542 32 OFFCURVE",
"378 32 CURVE SMOOTH"
);
},
{
closed = 1;
nodes = (
"234 828 OFFCURVE",
"252 849 OFFCURVE",
"285 849 CURVE SMOOTH",
"336 849 OFFCURVE",
"385 795 OFFCURVE",
"436 795 CURVE SMOOTH",
"494 795 OFFCURVE",
"524 843 OFFCURVE",
"536 895 CURVE",
"515 906 LINE",
"499 866 OFFCURVE",
"483 844 OFFCURVE",
"449 844 CURVE SMOOTH",
"400 844 OFFCURVE",
"348 897 OFFCURVE",
"297 897 CURVE SMOOTH",
"243 897 OFFCURVE",
"210 853 OFFCURVE",
"198 801 CURVE",
"220 790 LINE"
);
},
{
closed = 1;
nodes = (
"691 567 OFFCURVE",
"756 632 OFFCURVE",
"756 705 CURVE SMOOTH",
"756 752 OFFCURVE",
"729 772 OFFCURVE",
"701 772 CURVE SMOOTH",
"672 772 OFFCURVE",
"656 752 OFFCURVE",
"656 729 CURVE SMOOTH",
"656 695 OFFCURVE",
"689 688 OFFCURVE",
"689 653 CURVE SMOOTH",
"689 617 OFFCURVE",
"658 588 OFFCURVE",
"623 568 CURVE",
"623 543 LINE"
);
}
);
};
components = (
{
name = tilde;
transform = "{1, 0, 0, 1, 132, 230}";
},
{
name = Ohorn;
}
);
layerId = "0B1DFD06-3317-40CA-B510-4969A0718C16";
width = 755;
}
);
leftKerningGroup = O;
note = Ohorntilde;
rightKerningGroup = O;
unicode = 1EE0;
},
{
glyphname = Ohungarumlaut;
lastChange = "2017-12-18 10:26:13 +0000";
layers = (
{
background = {
paths = (
{
closed = 1;
nodes = (
"601 -10 OFFCURVE",
"719 124 OFFCURVE",
"719 350 CURVE SMOOTH",
"719 574 OFFCURVE",
"601 710 OFFCURVE",
"378 710 CURVE SMOOTH",
"154 710 OFFCURVE",
"36 574 OFFCURVE",
"36 350 CURVE SMOOTH",
"36 124 OFFCURVE",
"154 -10 OFFCURVE",
"378 -10 CURVE SMOOTH"
);
},
{
closed = 1;
nodes = (
"215 32 OFFCURVE",
"135 158 OFFCURVE",
"135 350 CURVE SMOOTH",
"135 541 OFFCURVE",
"215 668 OFFCURVE",
"377 668 CURVE SMOOTH",
"541 668 OFFCURVE",
"620 541 OFFCURVE",
"620 350 CURVE SMOOTH",
"620 158 OFFCURVE",
"541 32 OFFCURVE",
"377 32 CURVE SMOOTH"
);
},
{
closed = 1;
nodes = (
"395 864 LINE SMOOTH",
"417 877 OFFCURVE",
"429 891 OFFCURVE",
"429 908 CURVE SMOOTH",
"429 922 OFFCURVE",
"421 937 OFFCURVE",
"399 937 CURVE SMOOTH",
"378 937 OFFCURVE",
"357 919 OFFCURVE",
"350 913 CURVE",
"236 807 LINE",
"253 782 LINE"
);
},
{
closed = 1;
nodes = (
"556 864 LINE SMOOTH",
"577 877 OFFCURVE",
"589 891 OFFCURVE",
"589 908 CURVE SMOOTH",
"589 922 OFFCURVE",
"578 937 OFFCURVE",
"556 937 CURVE SMOOTH",
"534 937 OFFCURVE",
"517 919 OFFCURVE",
"510 913 CURVE",
"396 807 LINE",
"414 782 LINE"
);
}
);
};
components = (
{
name = O;
},
{
name = hungarumlaut;
transform = "{1, 0, 0, 1, 131, 230}";
}
);
layerId = "0B1DFD06-3317-40CA-B510-4969A0718C16";
width = 755;
}
);
leftKerningGroup = O;
note = Ohungarumlaut;
rightKerningGroup = O;
unicode = 0150;
},
{
glyphname = Omacron;
lastChange = "2017-12-18 10:26:13 +0000";
layers = (
{
background = {
paths = (
{
closed = 1;
nodes = (
"601 -10 OFFCURVE",
"719 124 OFFCURVE",
"719 350 CURVE SMOOTH",
"719 574 OFFCURVE",
"601 710 OFFCURVE",
"378 710 CURVE SMOOTH",
"154 710 OFFCURVE",
"36 574 OFFCURVE",
"36 350 CURVE SMOOTH",
"36 124 OFFCURVE",
"154 -10 OFFCURVE",
"378 -10 CURVE SMOOTH"
);
},
{
closed = 1;
nodes = (
"215 32 OFFCURVE",
"135 158 OFFCURVE",
"135 350 CURVE SMOOTH",
"135 541 OFFCURVE",
"215 668 OFFCURVE",
"377 668 CURVE SMOOTH",
"541 668 OFFCURVE",
"620 541 OFFCURVE",
"620 350 CURVE SMOOTH",
"620 158 OFFCURVE",
"541 32 OFFCURVE",
"377 32 CURVE SMOOTH"
);
},
{
closed = 1;
nodes = (
"543 793 LINE",
"543 835 LINE",
"210 835 LINE",
"210 793 LINE"
);
}
);
};
components = (
{
name = O;
},
{
name = macron;
transform = "{1, 0, 0, 1, 132, 230}";
}
);
layerId = "0B1DFD06-3317-40CA-B510-4969A0718C16";
width = 755;
}
);
leftKerningGroup = O;
note = Omacron;
rightKerningGroup = O;
unicode = 014C;
},
{
glyphname = Oslash;
lastChange = "2017-12-18 12:13:07 +0000";
layers = (
{
layerId = "0B1DFD06-3317-40CA-B510-4969A0718C16";
paths = (
{
closed = 1;
nodes = (
"890 773 LINE",
"828 773 LINE",
"713 649 LINE",
"646 695 OFFCURVE",
"560 722 OFFCURVE",
"469 722 CURVE SMOOTH",
"244 722 OFFCURVE",
"60 556 OFFCURVE",
"60 349 CURVE SMOOTH",
"60 244 OFFCURVE",
"106 150 OFFCURVE",
"183 82 CURVE",
"37 -73 LINE",
"99 -73 LINE",
"217 54 LINE",
"286 4 OFFCURVE",
"375 -24 OFFCURVE",
"469 -24 CURVE SMOOTH",
"697 -24 OFFCURVE",
"879 144 OFFCURVE",
"879 349 CURVE SMOOTH",
"879 457 OFFCURVE",
"828 554 OFFCURVE",
"749 623 CURVE"
);
},
{
closed = 1;
nodes = (
"779 160 OFFCURVE",
"634 10 OFFCURVE",
"467 10 CURVE SMOOTH",
"389 10 OFFCURVE",
"316 43 OFFCURVE",
"259 99 CURVE",
"701 572 LINE",
"749 514 OFFCURVE",
"779 437 OFFCURVE",
"779 351 CURVE SMOOTH"
);
},
{
closed = 1;
nodes = (
"159 544 OFFCURVE",
"303 686 OFFCURVE",
"467 686 CURVE SMOOTH",
"544 686 OFFCURVE",
"614 656 OFFCURVE",
"671 604 CURVE",
"231 132 LINE",
"186 192 OFFCURVE",
"159 268 OFFCURVE",
"159 351 CURVE SMOOTH"
);
}
);
width = 927;
}
);
note = Oslash;
unicode = 00D8;
},
{
glyphname = OE;
lastChange = "2017-12-18 12:13:14 +0000";
layers = (
{
layerId = "0B1DFD06-3317-40CA-B510-4969A0718C16";
paths = (
{
closed = 1;
nodes = (
"1236 0 LINE",
"1236 36 LINE",
"788 36 LINE",
"788 358 LINE",
"1128 358 LINE",
"1128 394 LINE",
"788 394 LINE",
"788 662 LINE",
"1236 662 LINE",
"1236 700 LINE",
"707 700 LINE",
"707 598 LINE",
"637 676 OFFCURVE",
"532 722 OFFCURVE",
"415 722 CURVE SMOOTH",
"207 722 OFFCURVE",
"28 568 OFFCURVE",
"28 348 CURVE SMOOTH",
"28 127 OFFCURVE",
"204 -25 OFFCURVE",
"413 -25 CURVE SMOOTH",
"530 -25 OFFCURVE",
"637 21 OFFCURVE",
"707 100 CURVE",
"707 0 LINE"
);
},
{
closed = 1;
nodes = (
"701 163 OFFCURVE",
"613 3 OFFCURVE",
"413 3 CURVE SMOOTH",
"216 3 OFFCURVE",
"127 162 OFFCURVE",
"127 348 CURVE SMOOTH",
"127 535 OFFCURVE",
"217 694 OFFCURVE",
"415 694 CURVE SMOOTH",
"613 694 OFFCURVE",
"701 535 OFFCURVE",
"701 349 CURVE SMOOTH"
);
}
);
width = 1249;
}
);
note = OE;
unicode = 0152;
},
{
glyphname = Thorn;
lastChange = "2017-12-18 12:13:21 +0000";
layers = (
{
layerId = "0B1DFD06-3317-40CA-B510-4969A0718C16";
paths = (
{
closed = 1;
nodes = (
"643 442 OFFCURVE",
"553 484 OFFCURVE",
"451 502 CURVE SMOOTH",
"400 511 OFFCURVE",
"345 514 OFFCURVE",
"295 515 CURVE SMOOTH",
"246 515 OFFCURVE",
"202 514 OFFCURVE",
"172 514 CURVE",
"172 641 LINE",
"93 641 LINE",
"93 0 LINE",
"174 0 LINE",
"174 163 LINE",
"207 163 OFFCURVE",
"250 162 OFFCURVE",
"300 163 CURVE SMOOTH",
"349 163 OFFCURVE",
"404 168 OFFCURVE",
"455 177 CURVE SMOOTH",
"556 196 OFFCURVE",
"643 241 OFFCURVE",
"643 345 CURVE SMOOTH"
);
},
{
closed = 1;
nodes = (
"539 205 OFFCURVE",
"370 201 OFFCURVE",
"262 201 CURVE SMOOTH",
"174 201 LINE",
"174 478 LINE",
"267 478 LINE SMOOTH",
"358 478 OFFCURVE",
"539 469 OFFCURVE",
"539 345 CURVE SMOOTH"
);
}
);
width = 685;
}
);
note = Thorn;
unicode = 00DE;
},
{
color = 0;
glyphname = Germandbls;
lastChange = "2017-12-19 03:47:55 +0000";
layers = (
{
layerId = "0B1DFD06-3317-40CA-B510-4969A0718C16";
paths = (
{
closed = 1;
nodes = (
"606 -10 OFFCURVE",
"674 88 OFFCURVE",
"674 203 CURVE SMOOTH",
"674 313 OFFCURVE",
"592 385 OFFCURVE",
"445 398 CURVE",
"591 553 LINE",
"569 627 OFFCURVE",
"489 710 OFFCURVE",
"354 710 CURVE SMOOTH",
"177 710 OFFCURVE",
"92 616 OFFCURVE",
"92 470 CURVE SMOOTH",
"92 62 LINE SMOOTH",
"92 37 OFFCURVE",
"72 26 OFFCURVE",
"33 26 CURVE SMOOTH",
"5 26 LINE",
"5 0 LINE",
"255 0 LINE",
"255 26 LINE",
"227 26 LINE SMOOTH",
"202 26 OFFCURVE",
"188 44 OFFCURVE",
"188 63 CURVE SMOOTH",
"188 495 LINE SMOOTH",
"188 602 OFFCURVE",
"246 668 OFFCURVE",
"347 668 CURVE SMOOTH",
"431 668 OFFCURVE",
"479 617 OFFCURVE",
"499 555 CURVE",
"344 387 LINE",
"344 361 LINE",
"406 361 LINE SMOOTH",
"520 361 OFFCURVE",
"578 296 OFFCURVE",
"578 203 CURVE SMOOTH",
"578 100 OFFCURVE",
"521 29 OFFCURVE",
"419 29 CURVE SMOOTH",
"374 29 OFFCURVE",
"324 37 OFFCURVE",
"277 56 CURVE",
"277 14 LINE",
"318 -2 OFFCURVE",
"367 -10 OFFCURVE",
"423 -10 CURVE SMOOTH"
);
}
);
width = 703;
}
);
note = uni1E9E;
unicode = 1E9E;
},
{
color = 0;
glyphname = Schwa;
lastChange = "2017-12-18 11:14:42 +0000";
layers = (
{
layerId = "0B1DFD06-3317-40CA-B510-4969A0718C16";
paths = (
{
closed = 1;
nodes = (
"543 -10 OFFCURVE",
"658 120 OFFCURVE",
"658 346 CURVE SMOOTH",
"658 569 OFFCURVE",
"533 710 OFFCURVE",
"323 710 CURVE SMOOTH",
"160 710 OFFCURVE",
"56 618 OFFCURVE",
"41 500 CURVE",
"84 500 LINE",
"111 616 OFFCURVE",
"202 660 OFFCURVE",
"298 660 CURVE SMOOTH",
"479 660 OFFCURVE",
"559 515 OFFCURVE",
"559 341 CURVE SMOOTH",
"559 185 OFFCURVE",
"486 39 OFFCURVE",
"327 39 CURVE SMOOTH",
"181 39 OFFCURVE",
"133 180 OFFCURVE",
"132 283 CURVE",
"573 283 LINE",
"573 333 LINE",
"33 333 LINE",
"33 303 LINE SMOOTH",
"33 132 OFFCURVE",
"119 -10 OFFCURVE",
"330 -10 CURVE SMOOTH"
);
}
);
width = 692;
}
);
note = uni018F;
unicode = 018F;
},
{
glyphname = Tbar;
lastChange = "2017-12-18 10:26:13 +0000";
layers = (
{
components = (
{
name = T;
}
);
layerId = "0B1DFD06-3317-40CA-B510-4969A0718C16";
paths = (
{
closed = 1;
nodes = (
"520 317 LINE",
"520 363 LINE",
"134 363 LINE",
"134 317 LINE"
);
}
);
width = 652;
}
);
leftKerningGroup = T;
note = Tbar;
rightKerningGroup = T;
unicode = 0166;
},
{
glyphname = Uacute;
lastChange = "2017-12-18 10:26:13 +0000";
layers = (
{
background = {
paths = (
{
closed = 1;
nodes = (
"539 -10 OFFCURVE",
"636 51 OFFCURVE",
"636 204 CURVE SMOOTH",
"636 637 LINE SMOOTH",
"636 662 OFFCURVE",
"660 673 OFFCURVE",
"690 673 CURVE SMOOTH",
"713 673 LINE",
"713 700 LINE",
"510 700 LINE",
"510 673 LINE",
"532 673 LINE SMOOTH",
"564 673 OFFCURVE",
"586 662 OFFCURVE",
"586 637 CURVE SMOOTH",
"586 197 LINE SMOOTH",
"586 65 OFFCURVE",
"489 31 OFFCURVE",
"397 31 CURVE SMOOTH",
"290 31 OFFCURVE",
"203 63 OFFCURVE",
"203 197 CURVE SMOOTH",
"203 637 LINE SMOOTH",
"203 662 OFFCURVE",
"226 673 OFFCURVE",
"257 673 CURVE SMOOTH",
"280 673 LINE",
"280 700 LINE",
"28 700 LINE",
"28 673 LINE",
"51 673 LINE SMOOTH",
"82 673 OFFCURVE",
"105 662 OFFCURVE",
"105 637 CURVE SMOOTH",
"105 204 LINE SMOOTH",
"105 46 OFFCURVE",
"208 -10 OFFCURVE",
"375 -10 CURVE SMOOTH"
);
},
{
closed = 1;
nodes = (
"447 865 LINE SMOOTH",
"469 877 OFFCURVE",
"481 890 OFFCURVE",
"481 907 CURVE SMOOTH",
"481 922 OFFCURVE",
"469 937 OFFCURVE",
"447 937 CURVE SMOOTH",
"426 937 OFFCURVE",
"411 921 OFFCURVE",
"403 914 CURVE SMOOTH",
"288 807 LINE",
"305 782 LINE"
);
}
);
};
components = (
{
name = U;
},
{
name = acute;
transform = "{1, 0, 0, 1, 136, 230}";
}
);
layerId = "0B1DFD06-3317-40CA-B510-4969A0718C16";
width = 742;
}
);
leftKerningGroup = U;
note = Uacute;
rightKerningGroup = U;
unicode = 00DA;
},
{
glyphname = Ubreve;
lastChange = "2017-12-18 10:26:13 +0000";
layers = (
{
background = {
paths = (
{
closed = 1;
nodes = (
"539 -10 OFFCURVE",
"636 51 OFFCURVE",
"636 204 CURVE SMOOTH",
"636 637 LINE SMOOTH",
"636 662 OFFCURVE",
"660 673 OFFCURVE",
"690 673 CURVE SMOOTH",
"713 673 LINE",
"713 700 LINE",
"510 700 LINE",
"510 673 LINE",
"532 673 LINE SMOOTH",
"564 673 OFFCURVE",
"586 662 OFFCURVE",
"586 637 CURVE SMOOTH",
"586 197 LINE SMOOTH",
"586 65 OFFCURVE",
"489 31 OFFCURVE",
"397 31 CURVE SMOOTH",
"290 31 OFFCURVE",
"203 63 OFFCURVE",
"203 197 CURVE SMOOTH",
"203 637 LINE SMOOTH",
"203 662 OFFCURVE",
"226 673 OFFCURVE",
"257 673 CURVE SMOOTH",
"280 673 LINE",
"280 700 LINE",
"28 700 LINE",
"28 673 LINE",
"51 673 LINE SMOOTH",
"82 673 OFFCURVE",
"105 662 OFFCURVE",
"105 637 CURVE SMOOTH",
"105 204 LINE SMOOTH",
"105 46 OFFCURVE",
"208 -10 OFFCURVE",
"375 -10 CURVE SMOOTH"
);
},
{
closed = 1;
nodes = (
"483 774 OFFCURVE",
"525 830 OFFCURVE",
"529 905 CURVE",
"496 905 LINE",
"490 846 OFFCURVE",
"448 820 OFFCURVE",
"384 820 CURVE SMOOTH",
"320 820 OFFCURVE",
"277 846 OFFCURVE",
"270 905 CURVE",
"237 905 LINE",
"241 827 OFFCURVE",
"283 774 OFFCURVE",
"384 774 CURVE SMOOTH"
);
}
);
};
components = (
{
name = U;
},
{
name = breve;
transform = "{1, 0, 0, 1, 148, 230}";
}
);
layerId = "0B1DFD06-3317-40CA-B510-4969A0718C16";
width = 742;
}
);
leftKerningGroup = U;
note = Ubreve;
rightKerningGroup = U;
unicode = 016C;
},
{
glyphname = Ucaron;
lastChange = "2017-12-18 10:26:13 +0000";
layers = (
{
background = {
paths = (
{
closed = 1;
nodes = (
"539 -10 OFFCURVE",
"636 51 OFFCURVE",
"636 204 CURVE SMOOTH",
"636 637 LINE SMOOTH",
"636 662 OFFCURVE",
"660 673 OFFCURVE",
"690 673 CURVE SMOOTH",
"713 673 LINE",
"713 700 LINE",
"510 700 LINE",
"510 673 LINE",
"532 673 LINE SMOOTH",
"564 673 OFFCURVE",
"586 662 OFFCURVE",
"586 637 CURVE SMOOTH",
"586 197 LINE SMOOTH",
"586 65 OFFCURVE",
"489 31 OFFCURVE",
"397 31 CURVE SMOOTH",
"290 31 OFFCURVE",
"203 63 OFFCURVE",
"203 197 CURVE SMOOTH",
"203 637 LINE SMOOTH",
"203 662 OFFCURVE",
"226 673 OFFCURVE",
"257 673 CURVE SMOOTH",
"280 673 LINE",
"280 700 LINE",
"28 700 LINE",
"28 673 LINE",
"51 673 LINE SMOOTH",
"82 673 OFFCURVE",
"105 662 OFFCURVE",
"105 637 CURVE SMOOTH",
"105 204 LINE SMOOTH",
"105 46 OFFCURVE",
"208 -10 OFFCURVE",
"375 -10 CURVE SMOOTH"
);
},
{
closed = 1;
nodes = (
"397 782 LINE",
"521 911 LINE",
"502 932 LINE",
"394 847 LINE",
"386 840 OFFCURVE",
"377 836 OFFCURVE",
"371 836 CURVE SMOOTH",
"365 836 OFFCURVE",
"357 840 OFFCURVE",
"347 847 CURVE",
"239 932 LINE",
"220 911 LINE",
"344 782 LINE"
);
}
);
};
components = (
{
name = U;
},
{
name = caron;
transform = "{1, 0, 0, 1, 148, 230}";
}
);
layerId = "0B1DFD06-3317-40CA-B510-4969A0718C16";
width = 742;
}
);
leftKerningGroup = U;
note = Ucaron;
rightKerningGroup = U;
unicode = 01D3;
},
{
glyphname = Ucircumflex;
lastChange = "2017-12-18 10:26:13 +0000";
layers = (
{
background = {
paths = (
{
closed = 1;
nodes = (
"539 -10 OFFCURVE",
"636 51 OFFCURVE",
"636 204 CURVE SMOOTH",
"636 637 LINE SMOOTH",
"636 662 OFFCURVE",
"660 673 OFFCURVE",
"690 673 CURVE SMOOTH",
"713 673 LINE",
"713 700 LINE",
"510 700 LINE",
"510 673 LINE",
"532 673 LINE SMOOTH",
"564 673 OFFCURVE",
"586 662 OFFCURVE",
"586 637 CURVE SMOOTH",
"586 197 LINE SMOOTH",
"586 65 OFFCURVE",
"489 31 OFFCURVE",
"397 31 CURVE SMOOTH",
"290 31 OFFCURVE",
"203 63 OFFCURVE",
"203 197 CURVE SMOOTH",
"203 637 LINE SMOOTH",
"203 662 OFFCURVE",
"226 673 OFFCURVE",
"257 673 CURVE SMOOTH",
"280 673 LINE",
"280 700 LINE",
"28 700 LINE",
"28 673 LINE",
"51 673 LINE SMOOTH",
"82 673 OFFCURVE",
"105 662 OFFCURVE",
"105 637 CURVE SMOOTH",
"105 204 LINE SMOOTH",
"105 46 OFFCURVE",
"208 -10 OFFCURVE",
"375 -10 CURVE SMOOTH"
);
},
{
closed = 1;
nodes = (
"360 868 LINE SMOOTH",
"368 874 OFFCURVE",
"378 879 OFFCURVE",
"384 879 CURVE SMOOTH",
"390 879 OFFCURVE",
"398 874 OFFCURVE",
"407 868 CURVE",
"515 782 LINE",
"534 803 LINE",
"410 932 LINE",
"357 932 LINE",
"233 803 LINE",
"252 782 LINE"
);
}
);
};
components = (
{
name = U;
},
{
name = circumflex;
transform = "{1, 0, 0, 1, 148, 230}";
}
);
layerId = "0B1DFD06-3317-40CA-B510-4969A0718C16";
width = 742;
}
);
leftKerningGroup = U;
note = Ucircumflex;
rightKerningGroup = U;
unicode = 00DB;
},
{
glyphname = Udieresis;
lastChange = "2017-12-18 10:26:13 +0000";
layers = (
{
background = {
paths = (
{
closed = 1;
nodes = (
"539 -10 OFFCURVE",
"636 51 OFFCURVE",
"636 204 CURVE SMOOTH",
"636 637 LINE SMOOTH",
"636 662 OFFCURVE",
"660 673 OFFCURVE",
"690 673 CURVE SMOOTH",
"713 673 LINE",
"713 700 LINE",
"510 700 LINE",
"510 673 LINE",
"532 673 LINE SMOOTH",
"564 673 OFFCURVE",
"586 662 OFFCURVE",
"586 637 CURVE SMOOTH",
"586 197 LINE SMOOTH",
"586 65 OFFCURVE",
"489 31 OFFCURVE",
"397 31 CURVE SMOOTH",
"290 31 OFFCURVE",
"203 63 OFFCURVE",
"203 197 CURVE SMOOTH",
"203 637 LINE SMOOTH",
"203 662 OFFCURVE",
"226 673 OFFCURVE",
"257 673 CURVE SMOOTH",
"280 673 LINE",
"280 700 LINE",
"28 700 LINE",
"28 673 LINE",
"51 673 LINE SMOOTH",
"82 673 OFFCURVE",
"105 662 OFFCURVE",
"105 637 CURVE SMOOTH",
"105 204 LINE SMOOTH",
"105 46 OFFCURVE",
"208 -10 OFFCURVE",
"375 -10 CURVE SMOOTH"
);
},
{
closed = 1;
nodes = (
"304 781 OFFCURVE",
"322 800 OFFCURVE",
"322 827 CURVE SMOOTH",
"322 855 OFFCURVE",
"304 875 OFFCURVE",
"275 875 CURVE SMOOTH",
"247 875 OFFCURVE",
"229 855 OFFCURVE",
"229 827 CURVE SMOOTH",
"229 800 OFFCURVE",
"247 781 OFFCURVE",
"275 781 CURVE SMOOTH"
);
},
{
closed = 1;
nodes = (
"520 781 OFFCURVE",
"538 800 OFFCURVE",
"538 827 CURVE SMOOTH",
"538 855 OFFCURVE",
"520 875 OFFCURVE",
"491 875 CURVE SMOOTH",
"462 875 OFFCURVE",
"444 855 OFFCURVE",
"444 827 CURVE SMOOTH",
"444 800 OFFCURVE",
"462 781 OFFCURVE",
"491 781 CURVE SMOOTH"
);
}
);
};
components = (
{
name = U;
},
{
name = dieresis;
transform = "{1, 0, 0, 1, 148, 230}";
}
);
layerId = "0B1DFD06-3317-40CA-B510-4969A0718C16";
width = 742;
}
);
leftKerningGroup = U;
note = Udieresis;
rightKerningGroup = U;
unicode = 00DC;
},
{
glyphname = Udieresisacute;
lastChange = "2017-12-18 10:26:13 +0000";
layers = (
{
background = {
paths = (
{
closed = 1;
nodes = (
"539 -10 OFFCURVE",
"636 51 OFFCURVE",
"636 204 CURVE SMOOTH",
"636 637 LINE SMOOTH",
"636 662 OFFCURVE",
"660 673 OFFCURVE",
"690 673 CURVE SMOOTH",
"713 673 LINE",
"713 700 LINE",
"510 700 LINE",
"510 673 LINE",
"532 673 LINE SMOOTH",
"564 673 OFFCURVE",
"586 662 OFFCURVE",
"586 637 CURVE SMOOTH",
"586 197 LINE SMOOTH",
"586 65 OFFCURVE",
"489 31 OFFCURVE",
"397 31 CURVE SMOOTH",
"290 31 OFFCURVE",
"203 63 OFFCURVE",
"203 197 CURVE SMOOTH",
"203 637 LINE SMOOTH",
"203 662 OFFCURVE",
"226 673 OFFCURVE",
"257 673 CURVE SMOOTH",
"280 673 LINE",
"280 700 LINE",
"28 700 LINE",
"28 673 LINE",
"51 673 LINE SMOOTH",
"82 673 OFFCURVE",
"105 662 OFFCURVE",
"105 637 CURVE SMOOTH",
"105 204 LINE SMOOTH",
"105 46 OFFCURVE",
"208 -10 OFFCURVE",
"375 -10 CURVE SMOOTH"
);
},
{
closed = 1;
nodes = (
"291 780 OFFCURVE",
"310 799 OFFCURVE",
"310 827 CURVE SMOOTH",
"310 855 OFFCURVE",
"291 875 OFFCURVE",
"262 875 CURVE SMOOTH",
"235 875 OFFCURVE",
"216 855 OFFCURVE",
"216 827 CURVE SMOOTH",
"216 799 OFFCURVE",
"235 780 OFFCURVE",
"262 780 CURVE SMOOTH"
);
},
{
closed = 1;
nodes = (
"507 780 OFFCURVE",
"526 799 OFFCURVE",
"526 827 CURVE SMOOTH",
"526 855 OFFCURVE",
"507 875 OFFCURVE",
"479 875 CURVE SMOOTH",
"451 875 OFFCURVE",
"432 855 OFFCURVE",
"432 827 CURVE SMOOTH",
"432 799 OFFCURVE",
"451 780 OFFCURVE",
"479 780 CURVE SMOOTH"
);
},
{
closed = 1;
nodes = (
"481 969 LINE SMOOTH",
"502 981 OFFCURVE",
"512 993 OFFCURVE",
"512 1009 CURVE SMOOTH",
"512 1024 OFFCURVE",
"503 1037 OFFCURVE",
"481 1037 CURVE SMOOTH",
"460 1037 OFFCURVE",
"442 1020 OFFCURVE",
"435 1013 CURVE SMOOTH",
"344 924 LINE",
"362 899 LINE"
);
}
);
};
components = (
{
name = U;
},
{
name = dieresisacute;
transform = "{1, 0, 0, 1, 149, 230}";
}
);
layerId = "0B1DFD06-3317-40CA-B510-4969A0718C16";
width = 742;
}
);
leftKerningGroup = U;
note = Udieresisacute;
rightKerningGroup = U;
unicode = 01D7;
},
{
glyphname = Udieresiscaron;
lastChange = "2017-12-18 10:26:13 +0000";
layers = (
{
background = {
paths = (
{
closed = 1;
nodes = (
"539 -10 OFFCURVE",
"636 51 OFFCURVE",
"636 204 CURVE SMOOTH",
"636 637 LINE SMOOTH",
"636 662 OFFCURVE",
"660 673 OFFCURVE",
"690 673 CURVE SMOOTH",
"713 673 LINE",
"713 700 LINE",
"510 700 LINE",
"510 673 LINE",
"532 673 LINE SMOOTH",
"564 673 OFFCURVE",
"586 662 OFFCURVE",
"586 637 CURVE SMOOTH",
"586 197 LINE SMOOTH",
"586 65 OFFCURVE",
"489 31 OFFCURVE",
"397 31 CURVE SMOOTH",
"290 31 OFFCURVE",
"203 63 OFFCURVE",
"203 197 CURVE SMOOTH",
"203 637 LINE SMOOTH",
"203 662 OFFCURVE",
"226 673 OFFCURVE",
"257 673 CURVE SMOOTH",
"280 673 LINE",
"280 700 LINE",
"28 700 LINE",
"28 673 LINE",
"51 673 LINE SMOOTH",
"82 673 OFFCURVE",
"105 662 OFFCURVE",
"105 637 CURVE SMOOTH",
"105 204 LINE SMOOTH",
"105 46 OFFCURVE",
"208 -10 OFFCURVE",
"375 -10 CURVE SMOOTH"
);
},
{
closed = 1;
nodes = (
"296 780 OFFCURVE",
"315 799 OFFCURVE",
"315 827 CURVE SMOOTH",
"315 855 OFFCURVE",
"296 875 OFFCURVE",
"267 875 CURVE SMOOTH",
"240 875 OFFCURVE",
"221 855 OFFCURVE",
"221 827 CURVE SMOOTH",
"221 799 OFFCURVE",
"240 780 OFFCURVE",
"267 780 CURVE SMOOTH"
);
},
{
closed = 1;
nodes = (
"512 780 OFFCURVE",
"531 799 OFFCURVE",
"531 827 CURVE SMOOTH",
"531 855 OFFCURVE",
"512 875 OFFCURVE",
"484 875 CURVE SMOOTH",
"456 875 OFFCURVE",
"437 855 OFFCURVE",
"437 827 CURVE SMOOTH",
"437 799 OFFCURVE",
"456 780 OFFCURVE",
"484 780 CURVE SMOOTH"
);
},
{
closed = 1;
nodes = (
"401 911 LINE",
"523 1035 LINE",
"505 1056 LINE",
"404 978 LINE",
"394 971 OFFCURVE",
"385 963 OFFCURVE",
"376 963 CURVE SMOOTH",
"369 963 OFFCURVE",
"357 971 OFFCURVE",
"347 978 CURVE",
"246 1056 LINE",
"228 1035 LINE",
"350 911 LINE"
);
}
);
};
components = (
{
name = U;
},
{
name = dieresiscaron;
transform = "{1, 0, 0, 1, 149, 230}";
}
);
layerId = "0B1DFD06-3317-40CA-B510-4969A0718C16";
width = 742;
}
);
leftKerningGroup = U;
note = Udieresiscaron;
rightKerningGroup = U;
unicode = 01D9;
},
{
glyphname = Udieresisgrave;
lastChange = "2017-12-18 10:26:13 +0000";
layers = (
{
background = {
paths = (
{
closed = 1;
nodes = (
"539 -10 OFFCURVE",
"636 51 OFFCURVE",
"636 204 CURVE SMOOTH",
"636 637 LINE SMOOTH",
"636 662 OFFCURVE",
"660 673 OFFCURVE",
"690 673 CURVE SMOOTH",
"713 673 LINE",
"713 700 LINE",
"510 700 LINE",
"510 673 LINE",
"532 673 LINE SMOOTH",
"564 673 OFFCURVE",
"586 662 OFFCURVE",
"586 637 CURVE SMOOTH",
"586 197 LINE SMOOTH",
"586 65 OFFCURVE",
"489 31 OFFCURVE",
"397 31 CURVE SMOOTH",
"290 31 OFFCURVE",
"203 63 OFFCURVE",
"203 197 CURVE SMOOTH",
"203 637 LINE SMOOTH",
"203 662 OFFCURVE",
"226 673 OFFCURVE",
"257 673 CURVE SMOOTH",
"280 673 LINE",
"280 700 LINE",
"28 700 LINE",
"28 673 LINE",
"51 673 LINE SMOOTH",
"82 673 OFFCURVE",
"105 662 OFFCURVE",
"105 637 CURVE SMOOTH",
"105 204 LINE SMOOTH",
"105 46 OFFCURVE",
"208 -10 OFFCURVE",
"375 -10 CURVE SMOOTH"
);
},
{
closed = 1;
nodes = (
"296 780 OFFCURVE",
"315 799 OFFCURVE",
"315 827 CURVE SMOOTH",
"315 855 OFFCURVE",
"296 875 OFFCURVE",
"267 875 CURVE SMOOTH",
"240 875 OFFCURVE",
"221 855 OFFCURVE",
"221 827 CURVE SMOOTH",
"221 799 OFFCURVE",
"240 780 OFFCURVE",
"267 780 CURVE SMOOTH"
);
},
{
closed = 1;
nodes = (
"403 924 LINE",
"312 1013 LINE SMOOTH",
"305 1020 OFFCURVE",
"288 1036 OFFCURVE",
"267 1036 CURVE SMOOTH",
"245 1036 OFFCURVE",
"235 1024 OFFCURVE",
"235 1009 CURVE SMOOTH",
"235 993 OFFCURVE",
"245 981 OFFCURVE",
"266 969 CURVE SMOOTH",
"385 899 LINE"
);
},
{
closed = 1;
nodes = (
"512 780 OFFCURVE",
"531 799 OFFCURVE",
"531 827 CURVE SMOOTH",
"531 855 OFFCURVE",
"512 875 OFFCURVE",
"484 875 CURVE SMOOTH",
"456 875 OFFCURVE",
"437 855 OFFCURVE",
"437 827 CURVE SMOOTH",
"437 799 OFFCURVE",
"456 780 OFFCURVE",
"484 780 CURVE SMOOTH"
);
}
);
};
components = (
{
name = U;
},
{
name = dieresisgrave;
transform = "{1, 0, 0, 1, 149, 230}";
}
);
layerId = "0B1DFD06-3317-40CA-B510-4969A0718C16";
width = 742;
}
);
leftKerningGroup = U;
note = Udieresisgrave;
rightKerningGroup = U;
unicode = 01DB;
},
{
glyphname = Udieresismacron;
lastChange = "2017-12-18 10:26:13 +0000";
layers = (
{
background = {
paths = (
{
closed = 1;
nodes = (
"539 -10 OFFCURVE",
"636 51 OFFCURVE",
"636 204 CURVE SMOOTH",
"636 637 LINE SMOOTH",
"636 662 OFFCURVE",
"660 673 OFFCURVE",
"690 673 CURVE SMOOTH",
"713 673 LINE",
"713 700 LINE",
"510 700 LINE",
"510 673 LINE",
"532 673 LINE SMOOTH",
"564 673 OFFCURVE",
"586 662 OFFCURVE",
"586 637 CURVE SMOOTH",
"586 197 LINE SMOOTH",
"586 65 OFFCURVE",
"489 31 OFFCURVE",
"397 31 CURVE SMOOTH",
"290 31 OFFCURVE",
"203 63 OFFCURVE",
"203 197 CURVE SMOOTH",
"203 637 LINE SMOOTH",
"203 662 OFFCURVE",
"226 673 OFFCURVE",
"257 673 CURVE SMOOTH",
"280 673 LINE",
"280 700 LINE",
"28 700 LINE",
"28 673 LINE",
"51 673 LINE SMOOTH",
"82 673 OFFCURVE",
"105 662 OFFCURVE",
"105 637 CURVE SMOOTH",
"105 204 LINE SMOOTH",
"105 46 OFFCURVE",
"208 -10 OFFCURVE",
"375 -10 CURVE SMOOTH"
);
},
{
closed = 1;
nodes = (
"291 781 OFFCURVE",
"309 800 OFFCURVE",
"309 827 CURVE SMOOTH",
"309 855 OFFCURVE",
"291 875 OFFCURVE",
"262 875 CURVE SMOOTH",
"234 875 OFFCURVE",
"216 855 OFFCURVE",
"216 827 CURVE SMOOTH",
"216 800 OFFCURVE",
"234 781 OFFCURVE",
"262 781 CURVE SMOOTH"
);
},
{
closed = 1;
nodes = (
"507 781 OFFCURVE",
"525 800 OFFCURVE",
"525 827 CURVE SMOOTH",
"525 855 OFFCURVE",
"507 875 OFFCURVE",
"478 875 CURVE SMOOTH",
"449 875 OFFCURVE",
"431 855 OFFCURVE",
"431 827 CURVE SMOOTH",
"431 800 OFFCURVE",
"449 781 OFFCURVE",
"478 781 CURVE SMOOTH"
);
},
{
closed = 1;
nodes = (
"537 928 LINE",
"537 970 LINE",
"204 970 LINE",
"204 928 LINE"
);
}
);
};
components = (
{
name = U;
},
{
name = dieresis;
transform = "{1, 0, 0, 1, 148, 230}";
},
{
alignment = -1;
name = macron;
transform = "{1, 0, 0, 1, 145, 356}";
}
);
layerId = "0B1DFD06-3317-40CA-B510-4969A0718C16";
width = 742;
}
);
leftKerningGroup = U;
note = Udieresismacron;
rightKerningGroup = U;
unicode = 01D5;
},
{
glyphname = Uhorn;
lastChange = "2017-12-18 12:13:38 +0000";
layers = (
{
layerId = "0B1DFD06-3317-40CA-B510-4969A0718C16";
paths = (
{
closed = 1;
nodes = (
"845 700 LINE",
"845 632 OFFCURVE",
"831 554 OFFCURVE",
"755 538 CURVE",
"755 514 LINE",
"858 527 OFFCURVE",
"924 592 OFFCURVE",
"924 700 CURVE"
);
},
{
closed = 1;
nodes = (
"780 700 LINE",
"701 700 LINE",
"701 268 LINE SMOOTH",
"701 108 OFFCURVE",
"580 9 OFFCURVE",
"425 9 CURVE SMOOTH",
"271 9 OFFCURVE",
"153 108 OFFCURVE",
"153 268 CURVE SMOOTH",
"153 700 LINE",
"72 700 LINE",
"72 285 LINE SMOOTH",
"72 72 OFFCURVE",
"229 -24 OFFCURVE",
"425 -24 CURVE SMOOTH",
"623 -24 OFFCURVE",
"780 70 OFFCURVE",
"780 285 CURVE SMOOTH"
);
}
);
width = 918;
}
);
note = Uhorn;
unicode = 01AF;
},
{
color = 0;
glyphname = "alpha-latin";
lastChange = "2017-12-18 11:15:21 +0000";
layers = (
{
layerId = "0B1DFD06-3317-40CA-B510-4969A0718C16";
paths = (
{
closed = 1;
nodes = (
"304 -10 OFFCURVE",
"357 10 OFFCURVE",
"393 69 CURVE",
"393 37 LINE SMOOTH",
"393 0 OFFCURVE",
"429 -10 OFFCURVE",
"461 -10 CURVE SMOOTH",
"491 -10 OFFCURVE",
"523 -1 OFFCURVE",
"545 17 CURVE",
"545 34 LINE",
"531 29 OFFCURVE",
"519 26 OFFCURVE",
"510 26 CURVE SMOOTH",
"494 26 OFFCURVE",
"486 36 OFFCURVE",
"486 58 CURVE SMOOTH",
"486 403 LINE",
"452 444 OFFCURVE",
"374 480 OFFCURVE",
"279 480 CURVE SMOOTH",
"141 480 OFFCURVE",
"26 405 OFFCURVE",
"26 215 CURVE SMOOTH",
"26 67 OFFCURVE",
"96 -10 OFFCURVE",
"234 -10 CURVE SMOOTH"
);
},
{
closed = 1;
nodes = (
"152 28 OFFCURVE",
"119 116 OFFCURVE",
"119 222 CURVE SMOOTH",
"119 370 OFFCURVE",
"183 441 OFFCURVE",
"279 441 CURVE SMOOTH",
"330 441 OFFCURVE",
"368 421 OFFCURVE",
"392 398 CURVE",
"392 169 LINE SMOOTH",
"392 98 OFFCURVE",
"346 28 OFFCURVE",
"255 28 CURVE SMOOTH"
);
}
);
width = 558;
}
);
leftKerningGroup = a;
note = ascript;
rightKerningGroup = a;
unicode = 0251;
},
{
glyphname = ae;
lastChange = "2017-12-18 12:13:51 +0000";
layers = (
{
layerId = "0B1DFD06-3317-40CA-B510-4969A0718C16";
paths = (
{
closed = 1;
nodes = (
"894 211 LINE",
"878 118 OFFCURVE",
"831 21 OFFCURVE",
"725 21 CURVE SMOOTH",
"589 21 OFFCURVE",
"520 129 OFFCURVE",
"520 256 CURVE SMOOTH",
"520 279 OFFCURVE",
"523 301 OFFCURVE",
"527 325 CURVE",
"965 325 LINE",
"933 475 OFFCURVE",
"851 538 OFFCURVE",
"701 538 CURVE SMOOTH",
"619 538 OFFCURVE",
"538 496 OFFCURVE",
"491 430 CURVE",
"461 512 OFFCURVE",
"364 538 OFFCURVE",
"285 538 CURVE SMOOTH",
"172 538 OFFCURVE",
"85 497 OFFCURVE",
"58 377 CURVE",
"142 377 LINE",
"142 454 OFFCURVE",
"217 497 OFFCURVE",
"285 497 CURVE SMOOTH",
"388 497 OFFCURVE",
"437 446 OFFCURVE",
"437 345 CURVE SMOOTH",
"437 324 LINE",
"310 324 OFFCURVE",
"30 334 OFFCURVE",
"30 147 CURVE SMOOTH",
"30 33 OFFCURVE",
"120 -15 OFFCURVE",
"223 -15 CURVE SMOOTH",
"346 -15 OFFCURVE",
"409 13 OFFCURVE",
"464 123 CURVE",
"509 30 OFFCURVE",
"616 -16 OFFCURVE",
"715 -16 CURVE SMOOTH",
"857 -16 OFFCURVE",
"945 75 OFFCURVE",
"975 211 CURVE"
);
},
{
closed = 1;
nodes = (
"538 363 LINE",
"562 448 OFFCURVE",
"607 499 OFFCURVE",
"701 499 CURVE SMOOTH",
"791 499 OFFCURVE",
"848 446 OFFCURVE",
"873 363 CURVE"
);
},
{
closed = 1;
nodes = (
"437 238 LINE SMOOTH",
"437 118 OFFCURVE",
"380 22 OFFCURVE",
"252 22 CURVE SMOOTH",
"172 22 OFFCURVE",
"118 66 OFFCURVE",
"118 147 CURVE SMOOTH",
"118 267 OFFCURVE",
"243 288 OFFCURVE",
"342 288 CURVE SMOOTH",
"437 288 LINE"
);
}
);
width = 1013;
}
);
note = ae;
unicode = 00E6;
},
{
glyphname = eth;
lastChange = "2017-12-18 10:29:47 +0000";
layers = (
{
layerId = "0B1DFD06-3317-40CA-B510-4969A0718C16";
paths = (
{
closed = 1;
nodes = (
"563 430 OFFCURVE",
"489 553 OFFCURVE",
"373 650 CURVE",
"371 651 OFFCURVE",
"370 654 OFFCURVE",
"367 656 CURVE",
"482 707 LINE",
"458 759 LINE",
"414 735 OFFCURVE",
"364 713 OFFCURVE",
"318 691 CURVE",
"271 726 OFFCURVE",
"220 750 OFFCURVE",
"164 774 CURVE",
"137 719 LINE",
"180 704 OFFCURVE",
"225 682 OFFCURVE",
"259 662 CURVE",
"122 598 LINE",
"143 550 LINE",
"199 573 OFFCURVE",
"255 601 OFFCURVE",
"311 628 CURVE",
"370 582 OFFCURVE",
"418 532 OFFCURVE",
"454 476 CURVE",
"405 513 OFFCURVE",
"354 525 OFFCURVE",
"302 525 CURVE SMOOTH",
"174 525 OFFCURVE",
"44 418 OFFCURVE",
"44 249 CURVE SMOOTH",
"44 100 OFFCURVE",
"147 -13 OFFCURVE",
"298 -13 CURVE SMOOTH",
"426 -13 OFFCURVE",
"563 72 OFFCURVE",
"563 270 CURVE SMOOTH"
);
},
{
closed = 1;
nodes = (
"498 116 OFFCURVE",
"410 41 OFFCURVE",
"296 41 CURVE SMOOTH",
"202 41 OFFCURVE",
"103 115 OFFCURVE",
"103 250 CURVE SMOOTH",
"103 352 OFFCURVE",
"165 470 OFFCURVE",
"302 470 CURVE",
"439 452 OFFCURVE",
"494 405 OFFCURVE",
"498 262 CURVE SMOOTH"
);
}
);
width = 613;
}
);
note = eth;
unicode = 00F0;
},
{
color = 0;
glyphname = dcaron;
lastChange = "2017-12-18 11:15:26 +0000";
layers = (
{
layerId = "0B1DFD06-3317-40CA-B510-4969A0718C16";
paths = (
{
closed = 1;
nodes = (
"321 -10 OFFCURVE",
"381 14 OFFCURVE",
"417 74 CURVE",
"422 -4 LINE",
"564 11 LINE",
"564 34 LINE",
"541 34 LINE SMOOTH",
"513 34 OFFCURVE",
"499 44 OFFCURVE",
"499 69 CURVE SMOOTH",
"499 717 LINE",
"474 717 LINE",
"349 672 LINE",
"355 649 LINE",
"365 653 OFFCURVE",
"377 657 OFFCURVE",
"385 657 CURVE SMOOTH",
"394 657 OFFCURVE",
"405 654 OFFCURVE",
"405 636 CURVE SMOOTH",
"405 410 LINE",
"363 467 OFFCURVE",
"298 480 OFFCURVE",
"242 480 CURVE SMOOTH",
"123 480 OFFCURVE",
"31 401 OFFCURVE",
"31 245 CURVE SMOOTH",
"31 60 OFFCURVE",
"118 -10 OFFCURVE",
"243 -10 CURVE SMOOTH"
);
},
{
closed = 1;
nodes = (
"160 28 OFFCURVE",
"124 120 OFFCURVE",
"124 242 CURVE SMOOTH",
"124 372 OFFCURVE",
"176 440 OFFCURVE",
"275 440 CURVE SMOOTH",
"337 440 OFFCURVE",
"406 392 OFFCURVE",
"406 320 CURVE SMOOTH",
"406 168 LINE SMOOTH",
"406 97 OFFCURVE",
"357 28 OFFCURVE",
"269 28 CURVE SMOOTH"
);
},
{
closed = 1;
nodes = (
"630 523 OFFCURVE",
"674 583 OFFCURVE",
"674 646 CURVE SMOOTH",
"674 694 OFFCURVE",
"650 714 OFFCURVE",
"621 714 CURVE SMOOTH",
"592 714 OFFCURVE",
"575 694 OFFCURVE",
"575 670 CURVE SMOOTH",
"575 636 OFFCURVE",
"610 629 OFFCURVE",
"610 594 CURVE SMOOTH",
"610 558 OFFCURVE",
"584 525 OFFCURVE",
"557 499 CURVE",
"574 482 LINE"
);
}
);
width = 686;
}
);
leftKerningGroup = d;
note = dcaron;
unicode = 010F;
},
{
glyphname = dcroat;
lastChange = "2017-12-18 12:14:14 +0000";
layers = (
{
layerId = "0B1DFD06-3317-40CA-B510-4969A0718C16";
paths = (
{
closed = 1;
nodes = (
"683 611 LINE",
"683 649 LINE",
"583 649 LINE",
"583 725 LINE",
"514 725 LINE",
"514 649 LINE",
"442 649 LINE",
"442 611 LINE",
"514 611 LINE",
"514 415 LINE",
"473 500 OFFCURVE",
"392 539 OFFCURVE",
"297 539 CURVE SMOOTH",
"133 539 OFFCURVE",
"27 421 OFFCURVE",
"27 262 CURVE SMOOTH",
"27 112 OFFCURVE",
"142 -16 OFFCURVE",
"297 -16 CURVE SMOOTH",
"386 -16 OFFCURVE",
"467 18 OFFCURVE",
"514 94 CURVE",
"514 0 LINE",
"583 0 LINE",
"583 611 LINE"
);
},
{
closed = 1;
nodes = (
"514 144 OFFCURVE",
"440 21 OFFCURVE",
"315 21 CURVE SMOOTH",
"184 21 OFFCURVE",
"111 141 OFFCURVE",
"111 259 CURVE SMOOTH",
"111 379 OFFCURVE",
"181 503 OFFCURVE",
"315 503 CURVE SMOOTH",
"440 503 OFFCURVE",
"514 373 OFFCURVE",
"514 259 CURVE SMOOTH"
);
}
);
width = 644;
}
);
note = dslash;
unicode = 0111;
},
{
color = 0;
glyphname = schwa;
lastChange = "2017-12-18 11:15:31 +0000";
layers = (
{
layerId = "0B1DFD06-3317-40CA-B510-4969A0718C16";
paths = (
{
closed = 1;
nodes = (
"396 -10 OFFCURVE",
"487 83 OFFCURVE",
"487 236 CURVE SMOOTH",
"487 393 OFFCURVE",
"392 480 OFFCURVE",
"246 480 CURVE SMOOTH",
"112 480 OFFCURVE",
"47 407 OFFCURVE",
"36 303 CURVE",
"65 303 LINE",
"83 407 OFFCURVE",
"154 444 OFFCURVE",
"225 444 CURVE SMOOTH",
"331 444 OFFCURVE",
"392 360 OFFCURVE",
"392 234 CURVE SMOOTH",
"392 121 OFFCURVE",
"343 28 OFFCURVE",
"242 28 CURVE SMOOTH",
"147 28 OFFCURVE",
"117 112 OFFCURVE",
"115 173 CURVE",
"403 173 LINE",
"403 212 LINE",
"32 212 LINE",
"32 189 LINE SMOOTH",
"32 77 OFFCURVE",
"100 -10 OFFCURVE",
"246 -10 CURVE SMOOTH"
);
}
);
width = 521;
}
);
note = schwa;
unicode = 0259;
},
{
color = 0;
glyphname = hbar;
lastChange = "2017-12-18 11:15:34 +0000";
layers = (
{
layerId = "0B1DFD06-3317-40CA-B510-4969A0718C16";
paths = (
{
closed = 1;
nodes = (
"600 0 LINE",
"600 25 LINE",
"582 25 LINE SMOOTH",
"552 25 OFFCURVE",
"528 34 OFFCURVE",
"528 57 CURVE SMOOTH",
"528 344 LINE SMOOTH",
"528 424 OFFCURVE",
"471 480 OFFCURVE",
"357 480 CURVE SMOOTH",
"265 480 OFFCURVE",
"194 424 OFFCURVE",
"178 373 CURVE",
"178 285 LINE",
"188 285 LINE",
"188 389 OFFCURVE",
"264 439 OFFCURVE",
"330 439 CURVE SMOOTH",
"396 439 OFFCURVE",
"434 404 OFFCURVE",
"434 332 CURVE SMOOTH",
"434 57 LINE SMOOTH",
"434 34 OFFCURVE",
"411 25 OFFCURVE",
"383 25 CURVE SMOOTH",
"367 25 LINE",
"367 0 LINE"
);
},
{
closed = 1;
nodes = (
"255 0 LINE",
"255 25 LINE",
"240 25 LINE SMOOTH",
"212 25 OFFCURVE",
"188 34 OFFCURVE",
"188 57 CURVE SMOOTH",
"188 717 LINE",
"163 717 LINE",
"37 672 LINE",
"44 649 LINE",
"54 653 OFFCURVE",
"66 657 OFFCURVE",
"73 657 CURVE SMOOTH",
"83 657 OFFCURVE",
"94 654 OFFCURVE",
"94 636 CURVE SMOOTH",
"94 57 LINE SMOOTH",
"94 34 OFFCURVE",
"71 25 OFFCURVE",
"41 25 CURVE SMOOTH",
"22 25 LINE",
"22 0 LINE"
);
},
{
closed = 1;
nodes = (
"339 559 LINE",
"339 594 LINE",
"40 594 LINE",
"40 559 LINE"
);
}
);
width = 622;
}
);
note = hbar;
rightKerningGroup = h;
unicode = 0127;
},
{
glyphname = idotless;
lastChange = "2017-12-19 09:43:06 +0000";
layers = (
{
layerId = "0B1DFD06-3317-40CA-B510-4969A0718C16";
paths = (
{
closed = 1;
nodes = (
"166 0 LINE",
"166 523 LINE",
"97 523 LINE",
"97 0 LINE"
);
}
);
width = 193;
}
);
note = dotlessi;
unicode = 0131;
},
{
color = 0;
glyphname = ij;
lastChange = "2017-12-18 11:15:38 +0000";
layers = (
{
layerId = "0B1DFD06-3317-40CA-B510-4969A0718C16";
paths = (
{
closed = 1;
nodes = (
"472 -107 OFFCURVE",
"516 -25 OFFCURVE",
"516 102 CURVE SMOOTH",
"516 473 LINE",
"491 473 LINE",
"365 428 LINE",
"372 406 LINE",
"383 410 OFFCURVE",
"394 414 OFFCURVE",
"402 414 CURVE SMOOTH",
"411 414 OFFCURVE",
"423 410 OFFCURVE",
"423 393 CURVE SMOOTH",
"423 97 LINE SMOOTH",
"423 -4 OFFCURVE",
"418 -72 OFFCURVE",
"326 -110 CURVE",
"331 -132 LINE"
);
},
{
closed = 1;
nodes = (
"265 0 LINE",
"265 25 LINE",
"246 25 LINE SMOOTH",
"217 25 OFFCURVE",
"193 34 OFFCURVE",
"193 57 CURVE SMOOTH",
"193 475 LINE",
"168 475 LINE",
"42 431 LINE",
"49 408 LINE",
"59 411 OFFCURVE",
"71 416 OFFCURVE",
"78 416 CURVE SMOOTH",
"88 416 OFFCURVE",
"99 412 OFFCURVE",
"99 394 CURVE SMOOTH",
"99 57 LINE SMOOTH",
"99 34 OFFCURVE",
"76 25 OFFCURVE",
"46 25 CURVE SMOOTH",
"27 25 LINE",
"27 0 LINE"
);
},
{
closed = 1;
nodes = (
"171 561 OFFCURVE",
"194 584 OFFCURVE",
"194 616 CURVE SMOOTH",
"194 649 OFFCURVE",
"171 671 OFFCURVE",
"138 671 CURVE SMOOTH",
"103 671 OFFCURVE",
"81 649 OFFCURVE",
"81 616 CURVE SMOOTH",
"81 584 OFFCURVE",
"103 561 OFFCURVE",
"138 561 CURVE SMOOTH"
);
},
{
closed = 1;
nodes = (
"499 561 OFFCURVE",
"522 584 OFFCURVE",
"522 616 CURVE SMOOTH",
"522 649 OFFCURVE",
"499 671 OFFCURVE",
"465 671 CURVE SMOOTH",
"431 671 OFFCURVE",
"409 649 OFFCURVE",
"409 616 CURVE SMOOTH",
"409 584 OFFCURVE",
"431 561 OFFCURVE",
"465 561 CURVE SMOOTH"
);
}
);
width = 598;
}
);
note = ij;
unicode = 0133;
},
{
color = 0;
glyphname = jdotless;
lastChange = "2017-12-18 11:15:47 +0000";
layers = (
{
anchors = (
{
name = bottom;
position = "{151, 0}";
},
{
name = top;
position = "{151, 470}";
}
);
layerId = "0B1DFD06-3317-40CA-B510-4969A0718C16";
paths = (
{
closed = 1;
nodes = (
"176 -107 OFFCURVE",
"220 -25 OFFCURVE",
"220 102 CURVE SMOOTH",
"220 473 LINE",
"195 473 LINE",
"69 428 LINE",
"76 406 LINE",
"86 410 OFFCURVE",
"98 414 OFFCURVE",
"106 414 CURVE SMOOTH",
"115 414 OFFCURVE",
"126 410 OFFCURVE",
"126 393 CURVE SMOOTH",
"126 97 LINE SMOOTH",
"126 -3 OFFCURVE",
"123 -71 OFFCURVE",
"31 -110 CURVE",
"35 -132 LINE"
);
}
);
width = 302;
}
);
leftKerningGroup = j;
note = dotlessj;
unicode = 0237;
},
{
color = 0;
glyphname = kgreenlandic;
lastChange = "2017-12-18 11:15:47 +0000";
layers = (
{
layerId = "0B1DFD06-3317-40CA-B510-4969A0718C16";
paths = (
{
closed = 1;
nodes = (
"257 0 LINE",
"257 25 LINE",
"240 25 LINE SMOOTH",
"211 25 OFFCURVE",
"187 35 OFFCURVE",
"187 57 CURVE SMOOTH",
"187 487 LINE",
"162 487 LINE",
"36 442 LINE",
"43 419 LINE",
"54 423 OFFCURVE",
"65 427 OFFCURVE",
"73 427 CURVE SMOOTH",
"82 427 OFFCURVE",
"94 424 OFFCURVE",
"94 406 CURVE SMOOTH",
"94 57 LINE SMOOTH",
"94 34 OFFCURVE",
"70 25 OFFCURVE",
"40 25 CURVE SMOOTH",
"21 25 LINE",
"21 0 LINE"
);
},
{
closed = 1;
nodes = (
"577 0 LINE",
"577 25 LINE",
"550 25 LINE SMOOTH",
"530 25 OFFCURVE",
"496 35 OFFCURVE",
"475 55 CURVE SMOOTH",
"247 266 LINE",
"185 217 LINE",
"421 0 LINE"
);
},
{
closed = 1;
nodes = (
"446 417 LINE SMOOTH",
"463 432 OFFCURVE",
"488 444 OFFCURVE",
"506 444 CURVE SMOOTH",
"528 444 LINE",
"528 470 LINE",
"332 470 LINE",
"332 444 LINE",
"354 444 LINE SMOOTH",
"380 444 OFFCURVE",
"401 428 OFFCURVE",
"380 411 CURVE SMOOTH",
"155 225 LINE",
"155 173 LINE"
);
}
);
width = 591;
}
);
note = kgreenlandic;
rightKerningGroup = k;
unicode = 0138;
},
{
color = 0;
glyphname = lcommaaccent;
lastChange = "2017-12-18 11:15:47 +0000";
layers = (
{
layerId = "0B1DFD06-3317-40CA-B510-4969A0718C16";
paths = (
{
closed = 1;
nodes = (
"269 0 LINE",
"269 25 LINE",
"252 25 LINE SMOOTH",
"222 25 OFFCURVE",
"199 35 OFFCURVE",
"199 57 CURVE SMOOTH",
"199 717 LINE",
"174 717 LINE",
"48 672 LINE",
"55 649 LINE",
"65 653 OFFCURVE",
"76 657 OFFCURVE",
"84 657 CURVE SMOOTH",
"94 657 OFFCURVE",
"105 654 OFFCURVE",
"105 636 CURVE SMOOTH",
"105 57 LINE SMOOTH",
"105 34 OFFCURVE",
"82 25 OFFCURVE",
"51 25 CURVE SMOOTH",
"33 25 LINE",
"33 0 LINE"
);
},
{
closed = 1;
nodes = (
"152 -254 OFFCURVE",
"196 -194 OFFCURVE",
"196 -131 CURVE SMOOTH",
"196 -83 OFFCURVE",
"172 -63 OFFCURVE",
"143 -63 CURVE SMOOTH",
"114 -63 OFFCURVE",
"97 -83 OFFCURVE",
"97 -107 CURVE SMOOTH",
"97 -141 OFFCURVE",
"132 -148 OFFCURVE",
"132 -183 CURVE SMOOTH",
"132 -219 OFFCURVE",
"106 -252 OFFCURVE",
"79 -278 CURVE",
"96 -295 LINE"
);
}
);
width = 302;
}
);
note = lcommaaccent;
unicode = 013C;
},
{
glyphname = lslash;
lastChange = "2017-12-18 11:28:59 +0000";
layers = (
{
layerId = "0B1DFD06-3317-40CA-B510-4969A0718C16";
paths = (
{
closed = 1;
nodes = (
"117 419 LINE",
"117 701 LINE",
"58 701 LINE",
"58 360 LINE",
"0 302 LINE",
"0 221 LINE",
"58 279 LINE",
"58 0 LINE",
"117 0 LINE",
"117 338 LINE",
"175 396 LINE",
"175 477 LINE"
);
}
);
width = 260;
}
);
note = lslash;
unicode = 0142;
},
{
color = 0;
glyphname = eng;
lastChange = "2017-12-18 11:15:53 +0000";
layers = (
{
layerId = "0B1DFD06-3317-40CA-B510-4969A0718C16";
paths = (
{
closed = 1;
nodes = (
"478 -215 OFFCURVE",
"529 -140 OFFCURVE",
"529 -17 CURVE SMOOTH",
"529 344 LINE SMOOTH",
"529 424 OFFCURVE",
"472 480 OFFCURVE",
"358 480 CURVE SMOOTH",
"266 480 OFFCURVE",
"195 424 OFFCURVE",
"178 373 CURVE",
"178 285 LINE",
"188 285 LINE",
"188 389 OFFCURVE",
"264 439 OFFCURVE",
"331 439 CURVE SMOOTH",
"395 439 OFFCURVE",
"435 404 OFFCURVE",
"435 332 CURVE SMOOTH",
"435 -58 LINE SMOOTH",
"435 -128 OFFCURVE",
"413 -186 OFFCURVE",
"339 -215 CURVE",
"344 -238 LINE"
);
},
{
closed = 1;
nodes = (
"255 0 LINE",
"255 25 LINE",
"240 25 LINE SMOOTH",
"205 25 OFFCURVE",
"188 37 OFFCURVE",
"188 66 CURVE SMOOTH",
"188 473 LINE",
"166 473 LINE",
"38 428 LINE",
"44 406 LINE",
"54 410 OFFCURVE",
"66 414 OFFCURVE",
"74 414 CURVE SMOOTH",
"83 414 OFFCURVE",
"94 410 OFFCURVE",
"94 393 CURVE SMOOTH",
"94 66 LINE SMOOTH",
"94 37 OFFCURVE",
"77 25 OFFCURVE",
"41 25 CURVE SMOOTH",
"22 25 LINE",
"22 0 LINE"
);
}
);
width = 609;
}
);
leftKerningGroup = m;
note = eng;
rightKerningGroup = m;
unicode = 014B;
},
{
glyphname = ohorn;
lastChange = "2017-12-18 12:14:53 +0000";
layers = (
{
layerId = "0B1DFD06-3317-40CA-B510-4969A0718C16";
paths = (
{
closed = 1;
nodes = (
"631 544 LINE",
"631 481 OFFCURVE",
"620 412 OFFCURVE",
"550 397 CURVE",
"550 370 LINE",
"650 382 OFFCURVE",
"712 442 OFFCURVE",
"712 544 CURVE"
);
},
{
closed = 1;
nodes = (
"629 430 OFFCURVE",
"500 536 OFFCURVE",
"334 536 CURVE SMOOTH",
"169 536 OFFCURVE",
"37 430 OFFCURVE",
"37 261 CURVE SMOOTH",
"37 91 OFFCURVE",
"169 -15 OFFCURVE",
"333 -15 CURVE SMOOTH",
"496 -15 OFFCURVE",
"629 91 OFFCURVE",
"629 261 CURVE SMOOTH"
);
},
{
closed = 1;
nodes = (
"545 123 OFFCURVE",
"484 22 OFFCURVE",
"336 22 CURVE SMOOTH",
"186 22 OFFCURVE",
"123 124 OFFCURVE",
"123 261 CURVE SMOOTH",
"123 398 OFFCURVE",
"184 499 OFFCURVE",
"334 499 CURVE SMOOTH",
"482 499 OFFCURVE",
"545 397 OFFCURVE",
"545 261 CURVE SMOOTH"
);
}
);
width = 664;
}
);
note = ohorn;
unicode = 01A1;
},
{
glyphname = oslash;
lastChange = "2017-12-18 12:14:43 +0000";
layers = (
{
layerId = "0B1DFD06-3317-40CA-B510-4969A0718C16";
paths = (
{
closed = 1;
nodes = (
"560 449 LINE",
"593 406 OFFCURVE",
"611 349 OFFCURVE",
"611 289 CURVE SMOOTH",
"611 142 OFFCURVE",
"497 24 OFFCURVE",
"370 24 CURVE SMOOTH",
"307 24 OFFCURVE",
"249 52 OFFCURVE",
"204 99 CURVE"
);
},
{
closed = 1;
nodes = (
"180 127 LINE",
"148 172 OFFCURVE",
"129 229 OFFCURVE",
"129 289 CURVE SMOOTH",
"129 437 OFFCURVE",
"243 553 OFFCURVE",
"370 553 CURVE SMOOTH",
"433 553 OFFCURVE",
"491 526 OFFCURVE",
"536 481 CURVE"
);
},
{
closed = 1;
nodes = (
"54 -51 LINE",
"162 54 LINE",
"219 13 OFFCURVE",
"292 -12 OFFCURVE",
"372 -12 CURVE SMOOTH",
"556 -12 OFFCURVE",
"706 123 OFFCURVE",
"706 288 CURVE SMOOTH",
"706 370 OFFCURVE",
"668 445 OFFCURVE",
"610 497 CURVE",
"730 616 LINE",
"674 616 LINE",
"580 521 LINE",
"521 562 OFFCURVE",
"449 587 OFFCURVE",
"372 587 CURVE SMOOTH",
"187 587 OFFCURVE",
"36 454 OFFCURVE",
"36 288 CURVE SMOOTH",
"36 207 OFFCURVE",
"72 133 OFFCURVE",
"130 79 CURVE",
"0 -51 LINE"
);
}
);
width = 730;
}
);
note = oslash;
unicode = 00F8;
},
{
glyphname = oe;
lastChange = "2017-12-18 12:14:37 +0000";
layers = (
{
layerId = "0B1DFD06-3317-40CA-B510-4969A0718C16";
paths = (
{
closed = 1;
nodes = (
"984 325 LINE",
"971 461 OFFCURVE",
"866 538 OFFCURVE",
"734 538 CURVE SMOOTH",
"643 538 OFFCURVE",
"560 493 OFFCURVE",
"514 415 CURVE",
"464 493 OFFCURVE",
"379 535 OFFCURVE",
"286 535 CURVE SMOOTH",
"124 535 OFFCURVE",
"19 416 OFFCURVE",
"19 259 CURVE SMOOTH",
"19 105 OFFCURVE",
"126 -15 OFFCURVE",
"286 -15 CURVE SMOOTH",
"380 -15 OFFCURVE",
"467 27 OFFCURVE",
"515 109 CURVE",
"566 28 OFFCURVE",
"650 -16 OFFCURVE",
"746 -16 CURVE SMOOTH",
"861 -16 OFFCURVE",
"975 61 OFFCURVE",
"980 186 CURVE",
"912 186 LINE",
"905 99 OFFCURVE",
"834 21 OFFCURVE",
"746 21 CURVE SMOOTH",
"617 21 OFFCURVE",
"553 139 OFFCURVE",
"553 256 CURVE SMOOTH",
"553 279 OFFCURVE",
"550 303 OFFCURVE",
"557 325 CURVE"
);
},
{
closed = 1;
nodes = (
"569 363 LINE",
"587 439 OFFCURVE",
"647 502 OFFCURVE",
"730 502 CURVE SMOOTH",
"815 502 OFFCURVE",
"879 442 OFFCURVE",
"902 363 CURVE"
);
},
{
closed = 1;
nodes = (
"478 135 OFFCURVE",
"430 22 OFFCURVE",
"288 22 CURVE SMOOTH",
"147 22 OFFCURVE",
"97 138 OFFCURVE",
"97 261 CURVE SMOOTH",
"97 385 OFFCURVE",
"144 497 OFFCURVE",
"286 497 CURVE SMOOTH",
"428 497 OFFCURVE",
"478 385 OFFCURVE",
"478 259 CURVE SMOOTH"
);
}
);
width = 1019;
}
);
note = oe;
unicode = 0153;
},
{
glyphname = thorn;
lastChange = "2017-12-18 12:15:06 +0000";
layers = (
{
layerId = "0B1DFD06-3317-40CA-B510-4969A0718C16";
paths = (
{
closed = 1;
nodes = (
"661 511 OFFCURVE",
"517 559 OFFCURVE",
"250 559 CURVE SMOOTH",
"147 559 LINE",
"147 700 LINE",
"67 700 LINE",
"67 0 LINE",
"148 0 LINE",
"148 180 LINE",
"247 180 LINE SMOOTH",
"482 180 OFFCURVE",
"661 219 OFFCURVE",
"661 376 CURVE SMOOTH"
);
},
{
closed = 1;
nodes = (
"554 255 OFFCURVE",
"452 214 OFFCURVE",
"249 214 CURVE SMOOTH",
"148 214 LINE",
"148 526 LINE",
"253 526 LINE SMOOTH",
"470 526 OFFCURVE",
"554 466 OFFCURVE",
"554 377 CURVE SMOOTH"
);
}
);
width = 698;
}
);
note = thorn;
unicode = 00FE;
},
{
glyphname = germandbls;
lastChange = "2017-12-18 12:15:18 +0000";
layers = (
{
layerId = "0B1DFD06-3317-40CA-B510-4969A0718C16";
paths = (
{
closed = 1;
nodes = (
"154 523 LINE SMOOTH",
"154 674 OFFCURVE",
"202 758 OFFCURVE",
"322 758 CURVE SMOOTH",
"412 758 OFFCURVE",
"475 713 OFFCURVE",
"475 593 CURVE SMOOTH",
"475 518 OFFCURVE",
"446 437 OFFCURVE",
"373 437 CURVE SMOOTH",
"348 437 OFFCURVE",
"337 434 OFFCURVE",
"315 440 CURVE",
"315 404 LINE",
"339 409 OFFCURVE",
"348 407 OFFCURVE",
"376 407 CURVE SMOOTH",
"485 407 OFFCURVE",
"535 306 OFFCURVE",
"535 205 CURVE SMOOTH",
"535 117 OFFCURVE",
"496 16 OFFCURVE",
"407 16 CURVE SMOOTH",
"354 16 OFFCURVE",
"294 66 OFFCURVE",
"276 99 CURVE",
"238 25 LINE",
"282 -10 OFFCURVE",
"354 -18 OFFCURVE",
"404 -18 CURVE SMOOTH",
"532 -18 OFFCURVE",
"644 81 OFFCURVE",
"641 208 CURVE SMOOTH",
"638 334 OFFCURVE",
"524 424 OFFCURVE",
"409 425 CURVE",
"512 449 OFFCURVE",
"574 508 OFFCURVE",
"574 601 CURVE SMOOTH",
"574 740 OFFCURVE",
"446 792 OFFCURVE",
"322 792 CURVE SMOOTH",
"172 792 OFFCURVE",
"75 692 OFFCURVE",
"75 520 CURVE SMOOTH",
"75 0 LINE",
"154 0 LINE"
);
}
);
width = 680;
}
);
note = uni00DF;
unicode = 00DF;
},
{
glyphname = tbar;
lastChange = "2017-12-18 10:26:13 +0000";
layers = (
{
components = (
{
name = t;
}
);
layerId = "0B1DFD06-3317-40CA-B510-4969A0718C16";
paths = (
{
closed = 1;
nodes = (
"321 260 LINE",
"321 297 LINE",
"33 297 LINE",
"33 260 LINE"
);
}
);
width = 397;
}
);
leftKerningGroup = t;
note = tbar;
rightKerningGroup = t;
unicode = 0167;
},
{
glyphname = uhorn;
lastChange = "2017-12-18 12:15:36 +0000";
layers = (
{
layerId = "0B1DFD06-3317-40CA-B510-4969A0718C16";
paths = (
{
closed = 1;
nodes = (
"598 521 LINE",
"598 458 OFFCURVE",
"587 389 OFFCURVE",
"517 375 CURVE",
"517 348 LINE",
"617 360 OFFCURVE",
"679 419 OFFCURVE",
"679 521 CURVE"
);
},
{
closed = 1;
nodes = (
"553 0 LINE",
"553 521 LINE",
"484 521 LINE",
"484 228 LINE SMOOTH",
"484 123 OFFCURVE",
"412 21 OFFCURVE",
"300 21 CURVE SMOOTH",
"213 21 OFFCURVE",
"132 66 OFFCURVE",
"132 159 CURVE SMOOTH",
"132 521 LINE",
"60 521 LINE",
"60 169 LINE SMOOTH",
"60 31 OFFCURVE",
"183 -16 OFFCURVE",
"300 -16 CURVE SMOOTH",
"372 -16 OFFCURVE",
"449 34 OFFCURVE",
"484 97 CURVE",
"484 0 LINE"
);
}
);
width = 655;
}
);
note = uhorn;
unicode = 01B0;
},
{
glyphname = fi;
lastChange = "2017-12-18 12:15:49 +0000";
layers = (
{
layerId = "0B1DFD06-3317-40CA-B510-4969A0718C16";
paths = (
{
closed = 1;
nodes = (
"428 0 LINE",
"428 497 LINE",
"183 496 LINE",
"183 577 LINE SMOOTH",
"183 632 OFFCURVE",
"226 667 OFFCURVE",
"280 667 CURVE SMOOTH",
"298 667 OFFCURVE",
"316 662 OFFCURVE",
"337 653 CURVE",
"337 724 LINE",
"316 725 LINE SMOOTH",
"178 731 OFFCURVE",
"114 617 OFFCURVE",
"112 496 CURVE",
"42 496 LINE",
"25 457 LINE",
"112 457 LINE",
"112 0 LINE",
"183 0 LINE",
"183 457 LINE",
"360 457 LINE",
"360 0 LINE"
);
}
);
width = 560;
}
);
note = fi;
unicode = FB01;
},
{
glyphname = fl;
lastChange = "2017-12-18 12:15:49 +0000";
layers = (
{
layerId = "0B1DFD06-3317-40CA-B510-4969A0718C16";
paths = (
{
closed = 1;
nodes = (
"424 0 LINE",
"424 725 LINE",
"360 725 LINE",
"316 725 LINE SMOOTH",
"178 725 OFFCURVE",
"114 617 OFFCURVE",
"112 496 CURVE",
"42 496 LINE",
"25 457 LINE",
"112 457 LINE",
"112 0 LINE",
"183 0 LINE",
"183 457 LINE",
"267 457 LINE",
"283 496 LINE",
"183 496 LINE",
"183 577 LINE SMOOTH",
"183 632 OFFCURVE",
"226 667 OFFCURVE",
"280 667 CURVE SMOOTH",
"297 667 OFFCURVE",
"355 667 OFFCURVE",
"355 665 CURVE SMOOTH",
"355 0 LINE"
);
}
);
width = 560;
}
);
note = fl;
unicode = FB02;
},
{
glyphname = ordfeminine;
lastChange = "2017-12-18 12:15:49 +0000";
layers = (
{
layerId = "0B1DFD06-3317-40CA-B510-4969A0718C16";
paths = (
{
closed = 1;
nodes = (
"375 339 LINE",
"363 363 OFFCURVE",
"355 394 OFFCURVE",
"355 428 CURVE SMOOTH",
"355 560 LINE SMOOTH",
"355 641 OFFCURVE",
"306 691 OFFCURVE",
"195 691 CURVE SMOOTH",
"117 691 OFFCURVE",
"51 662 OFFCURVE",
"31 580 CURVE",
"97 580 LINE",
"97 620 OFFCURVE",
"139 665 OFFCURVE",
"195 665 CURVE SMOOTH",
"268 665 OFFCURVE",
"298 617 OFFCURVE",
"298 562 CURVE SMOOTH",
"298 556 LINE",
"277 556 OFFCURVE",
"240 554 OFFCURVE",
"240 554 CURVE SMOOTH",
"147 554 OFFCURVE",
"15 533 OFFCURVE",
"15 437 CURVE SMOOTH",
"15 366 OFFCURVE",
"88 330 OFFCURVE",
"163 330 CURVE SMOOTH",
"219 330 OFFCURVE",
"268 342 OFFCURVE",
"306 385 CURVE",
"306 370 OFFCURVE",
"310 354 OFFCURVE",
"316 339 CURVE"
);
},
{
closed = 1;
nodes = (
"298 529 LINE",
"298 494 LINE SMOOTH",
"298 407 OFFCURVE",
"249 354 OFFCURVE",
"181 354 CURVE SMOOTH",
"127 354 OFFCURVE",
"82 392 OFFCURVE",
"82 436 CURVE SMOOTH",
"82 500 OFFCURVE",
"162 529 OFFCURVE",
"240 529 CURVE SMOOTH"
);
}
);
width = 392;
}
);
note = ordfeminine;
unicode = 00AA;
},
{
glyphname = ordmasculine;
lastChange = "2017-12-18 12:15:49 +0000";
layers = (
{
layerId = "0B1DFD06-3317-40CA-B510-4969A0718C16";
paths = (
{
closed = 1;
nodes = (
"345 327 OFFCURVE",
"430 409 OFFCURVE",
"430 508 CURVE SMOOTH",
"430 607 OFFCURVE",
"339 688 OFFCURVE",
"229 688 CURVE SMOOTH",
"118 688 OFFCURVE",
"28 607 OFFCURVE",
"28 508 CURVE SMOOTH",
"28 409 OFFCURVE",
"114 327 OFFCURVE",
"229 327 CURVE SMOOTH"
);
},
{
closed = 1;
nodes = (
"306 659 OFFCURVE",
"358 602 OFFCURVE",
"358 506 CURVE SMOOTH",
"358 416 OFFCURVE",
"310 355 OFFCURVE",
"229 355 CURVE SMOOTH",
"147 355 OFFCURVE",
"99 416 OFFCURVE",
"99 506 CURVE SMOOTH",
"99 602 OFFCURVE",
"153 659 OFFCURVE",
"229 659 CURVE SMOOTH"
);
}
);
width = 458;
}
);
note = ordmasculine;
unicode = 00BA;
},
{
color = 0;
glyphname = nmod;
lastChange = "2017-12-19 03:47:41 +0000";
layers = (
{
layerId = "0B1DFD06-3317-40CA-B510-4969A0718C16";
paths = (
{
closed = 1;
nodes = (
"410 378 LINE",
"410 397 LINE",
"392 397 LINE SMOOTH",
"368 397 OFFCURVE",
"350 405 OFFCURVE",
"350 424 CURVE SMOOTH",
"350 599 LINE SMOOTH",
"350 660 OFFCURVE",
"323 708 OFFCURVE",
"240 708 CURVE SMOOTH",
"168 708 OFFCURVE",
"128 658 OFFCURVE",
"116 601 CURVE",
"116 548 LINE",
"135 548 LINE",
"135 628 OFFCURVE",
"173 677 OFFCURVE",
"221 677 CURVE SMOOTH",
"266 677 OFFCURVE",
"281 652 OFFCURVE",
"281 595 CURVE SMOOTH",
"281 424 LINE SMOOTH",
"281 405 OFFCURVE",
"264 397 OFFCURVE",
"239 397 CURVE SMOOTH",
"229 397 LINE",
"229 378 LINE"
);
},
{
closed = 1;
nodes = (
"187 378 LINE",
"187 397 LINE",
"177 397 LINE SMOOTH",
"152 397 OFFCURVE",
"135 405 OFFCURVE",
"135 424 CURVE SMOOTH",
"135 706 LINE",
"114 706 LINE",
"17 670 LINE",
"22 652 LINE",
"30 655 OFFCURVE",
"42 659 OFFCURVE",
"50 659 CURVE SMOOTH",
"58 659 OFFCURVE",
"66 656 OFFCURVE",
"66 643 CURVE SMOOTH",
"66 424 LINE SMOOTH",
"66 405 OFFCURVE",
"48 397 OFFCURVE",
"23 397 CURVE SMOOTH",
"6 397 LINE",
"6 378 LINE"
);
}
);
width = 416;
}
);
note = uni207F;
unicode = 207F;
},
{
glyphname = Delta;
lastChange = "2017-12-18 12:40:40 +0000";
layers = (
{
layerId = "0B1DFD06-3317-40CA-B510-4969A0718C16";
paths = (
{
closed = 1;
nodes = (
"643 0 LINE",
"300 728 LINE",
"0 0 LINE"
);
},
{
closed = 1;
nodes = (
"518 54 LINE",
"73 54 LINE",
"283 562 LINE"
);
}
);
width = 643;
}
);
note = Delta;
unicode = 0394;
},
{
glyphname = Omega;
lastChange = "2017-12-18 12:40:44 +0000";
layers = (
{
layerId = "0B1DFD06-3317-40CA-B510-4969A0718C16";
paths = (
{
closed = 1;
nodes = (
"863 64 LINE",
"614 64 LINE",
"730 133 OFFCURVE",
"825 232 OFFCURVE",
"825 376 CURVE SMOOTH",
"825 580 OFFCURVE",
"647 691 OFFCURVE",
"460 691 CURVE SMOOTH",
"273 691 OFFCURVE",
"94 580 OFFCURVE",
"94 376 CURVE SMOOTH",
"94 232 OFFCURVE",
"192 133 OFFCURVE",
"306 64 CURVE",
"57 64 LINE",
"72 0 LINE",
"364 0 LINE",
"373 16 LINE",
"271 139 OFFCURVE",
"205 211 OFFCURVE",
"205 382 CURVE SMOOTH",
"205 544 OFFCURVE",
"292 656 OFFCURVE",
"460 656 CURVE SMOOTH",
"629 656 OFFCURVE",
"715 544 OFFCURVE",
"715 382 CURVE SMOOTH",
"715 219 OFFCURVE",
"650 135 OFFCURVE",
"548 16 CURVE",
"557 0 LINE",
"848 0 LINE"
);
}
);
width = 920;
}
);
note = Omega;
unicode = 03A9;
},
{
glyphname = mu;
lastChange = "2017-12-18 12:40:47 +0000";
layers = (
{
layerId = "0B1DFD06-3317-40CA-B510-4969A0718C16";
paths = (
{
closed = 1;
nodes = (
"592 0 LINE",
"592 568 LINE",
"518 568 LINE",
"518 247 LINE SMOOTH",
"518 127 OFFCURVE",
"443 18 OFFCURVE",
"313 18 CURVE SMOOTH",
"189 18 OFFCURVE",
"151 118 OFFCURVE",
"151 229 CURVE SMOOTH",
"151 568 LINE",
"72 568 LINE",
"72 -205 LINE",
"150 -205 LINE",
"150 43 LINE",
"187 3 OFFCURVE",
"238 -18 OFFCURVE",
"295 -18 CURVE SMOOTH",
"389 -18 OFFCURVE",
"479 28 OFFCURVE",
"518 118 CURVE",
"532 0 LINE"
);
}
);
width = 664;
}
);
note = mu;
unicode = 03BC;
},
{
color = 0;
glyphname = pi;
lastChange = "2017-12-18 11:17:35 +0000";
layers = (
{
layerId = "0B1DFD06-3317-40CA-B510-4969A0718C16";
paths = (
{
closed = 1;
nodes = (
"577 -10 OFFCURVE",
"603 -4 OFFCURVE",
"633 13 CURVE",
"633 54 LINE",
"618 44 OFFCURVE",
"598 36 OFFCURVE",
"581 36 CURVE SMOOTH",
"555 36 OFFCURVE",
"528 49 OFFCURVE",
"528 100 CURVE SMOOTH",
"528 431 LINE",
"647 431 LINE",
"647 470 LINE",
"19 470 LINE",
"19 431 LINE",
"136 431 LINE",
"136 0 LINE",
"231 0 LINE",
"231 431 LINE",
"433 431 LINE",
"433 96 LINE SMOOTH",
"433 32 OFFCURVE",
"466 -10 OFFCURVE",
"540 -10 CURVE SMOOTH"
);
}
);
width = 664;
}
);
note = pi;
unicode = 03C0;
},
{
glyphname = "koKai-thai";
lastChange = "2017-12-18 12:16:19 +0000";
layers = (
{
layerId = "0B1DFD06-3317-40CA-B510-4969A0718C16";
paths = (
{
closed = 1;
nodes = (
"611 0 LINE",
"611 401 LINE SMOOTH",
"611 554 OFFCURVE",
"475 610 OFFCURVE",
"342 610 CURVE SMOOTH",
"198 610 OFFCURVE",
"69 536 OFFCURVE",
"57 382 CURVE",
"189 382 LINE",
"121 364 OFFCURVE",
"90 309 OFFCURVE",
"90 241 CURVE SMOOTH",
"90 0 LINE",
"165 0 LINE",
"165 256 LINE SMOOTH",
"165 307 OFFCURVE",
"184 354 OFFCURVE",
"232 377 CURVE",
"232 407 LINE",
"135 407 LINE",
"144 517 OFFCURVE",
"238 580 OFFCURVE",
"342 580 CURVE SMOOTH",
"443 580 OFFCURVE",
"536 523 OFFCURVE",
"536 412 CURVE SMOOTH",
"536 0 LINE"
);
}
);
width = 701;
}
);
note = uni0E01;
unicode = 0E01;
},
{
glyphname = "thoThung-thai";
lastChange = "2017-12-18 12:16:19 +0000";
layers = (
{
layerId = "0B1DFD06-3317-40CA-B510-4969A0718C16";
paths = (
{
closed = 1;
nodes = (
"611 0 LINE",
"611 401 LINE SMOOTH",
"611 556 OFFCURVE",
"475 610 OFFCURVE",
"342 610 CURVE SMOOTH",
"198 610 OFFCURVE",
"69 536 OFFCURVE",
"57 382 CURVE",
"189 382 LINE",
"121 364 OFFCURVE",
"90 309 OFFCURVE",
"90 241 CURVE SMOOTH",
"90 145 LINE SMOOTH",
"90 55 OFFCURVE",
"144 -7 OFFCURVE",
"237 -7 CURVE SMOOTH",
"309 -7 OFFCURVE",
"366 43 OFFCURVE",
"366 117 CURVE SMOOTH",
"366 184 OFFCURVE",
"312 240 OFFCURVE",
"244 240 CURVE SMOOTH",
"216 240 OFFCURVE",
"186 232 OFFCURVE",
"165 213 CURVE",
"165 280 OFFCURVE",
"162 343 OFFCURVE",
"232 377 CURVE",
"232 407 LINE",
"135 407 LINE",
"144 517 OFFCURVE",
"238 580 OFFCURVE",
"342 580 CURVE SMOOTH",
"443 580 OFFCURVE",
"536 523 OFFCURVE",
"536 412 CURVE SMOOTH",
"536 0 LINE"
);
},
{
closed = 1;
nodes = (
"328 72 OFFCURVE",
"289 33 OFFCURVE",
"244 33 CURVE SMOOTH",
"199 33 OFFCURVE",
"159 70 OFFCURVE",
"159 117 CURVE SMOOTH",
"159 163 OFFCURVE",
"198 202 OFFCURVE",
"244 202 CURVE SMOOTH",
"291 202 OFFCURVE",
"328 162 OFFCURVE",
"328 117 CURVE SMOOTH"
);
}
);
width = 701;
}
);
note = uni0E16;
unicode = 0E16;
},
{
glyphname = "phoSamphao-thai";
lastChange = "2017-12-18 12:16:19 +0000";
layers = (
{
layerId = "0B1DFD06-3317-40CA-B510-4969A0718C16";
paths = (
{
closed = 1;
nodes = (
"737 0 LINE",
"737 401 LINE SMOOTH",
"737 556 OFFCURVE",
"601 610 OFFCURVE",
"467 610 CURVE SMOOTH",
"324 610 OFFCURVE",
"195 536 OFFCURVE",
"183 382 CURVE",
"321 382 LINE",
"219 357 OFFCURVE",
"216 307 OFFCURVE",
"216 213 CURVE",
"195 232 OFFCURVE",
"165 240 OFFCURVE",
"136 240 CURVE SMOOTH",
"69 240 OFFCURVE",
"15 184 OFFCURVE",
"15 117 CURVE SMOOTH",
"15 43 OFFCURVE",
"72 -7 OFFCURVE",
"144 -7 CURVE SMOOTH",
"401 -7 OFFCURVE",
"198 312 OFFCURVE",
"358 377 CURVE",
"358 407 LINE",
"261 407 LINE",
"270 517 OFFCURVE",
"364 580 OFFCURVE",
"467 580 CURVE SMOOTH",
"569 580 OFFCURVE",
"662 523 OFFCURVE",
"662 412 CURVE SMOOTH",
"662 0 LINE"
);
},
{
closed = 1;
nodes = (
"222 70 OFFCURVE",
"181 33 OFFCURVE",
"136 33 CURVE SMOOTH",
"91 33 OFFCURVE",
"52 72 OFFCURVE",
"52 117 CURVE SMOOTH",
"52 162 OFFCURVE",
"90 202 OFFCURVE",
"136 202 CURVE SMOOTH",
"183 202 OFFCURVE",
"222 163 OFFCURVE",
"222 117 CURVE SMOOTH"
);
}
);
width = 827;
}
);
note = uni0E20;
unicode = 0E20;
},
{
glyphname = "ru-thai";
lastChange = "2017-12-18 12:16:19 +0000";
layers = (
{
layerId = "0B1DFD06-3317-40CA-B510-4969A0718C16";
paths = (
{
closed = 1;
nodes = (
"611 -180 LINE",
"611 401 LINE SMOOTH",
"611 556 OFFCURVE",
"475 610 OFFCURVE",
"342 610 CURVE SMOOTH",
"198 610 OFFCURVE",
"69 536 OFFCURVE",
"57 382 CURVE",
"189 382 LINE",
"121 364 OFFCURVE",
"90 309 OFFCURVE",
"90 241 CURVE SMOOTH",
"90 145 LINE SMOOTH",
"90 55 OFFCURVE",
"144 -7 OFFCURVE",
"237 -7 CURVE SMOOTH",
"309 -7 OFFCURVE",
"366 43 OFFCURVE",
"366 117 CURVE SMOOTH",
"366 184 OFFCURVE",
"312 240 OFFCURVE",
"244 240 CURVE SMOOTH",
"216 240 OFFCURVE",
"186 232 OFFCURVE",
"165 213 CURVE",
"165 280 OFFCURVE",
"162 343 OFFCURVE",
"232 377 CURVE",
"232 407 LINE",
"135 407 LINE",
"144 517 OFFCURVE",
"238 580 OFFCURVE",
"342 580 CURVE SMOOTH",
"443 580 OFFCURVE",
"536 523 OFFCURVE",
"536 412 CURVE SMOOTH",
"536 -180 LINE"
);
},
{
closed = 1;
nodes = (
"328 72 OFFCURVE",
"289 33 OFFCURVE",
"244 33 CURVE SMOOTH",
"199 33 OFFCURVE",
"159 70 OFFCURVE",
"159 117 CURVE SMOOTH",
"159 163 OFFCURVE",
"198 202 OFFCURVE",
"244 202 CURVE SMOOTH",
"291 202 OFFCURVE",
"328 162 OFFCURVE",
"328 117 CURVE SMOOTH"
);
}
);
width = 701;
}
);
note = uni0E24;
unicode = 0E24;
},
{
color = 0;
glyphname = "ru-thai.short";
lastChange = "2017-12-18 11:19:07 +0000";
layers = (
{
layerId = "0B1DFD06-3317-40CA-B510-4969A0718C16";
paths = (
{
closed = 1;
nodes = (
"524 -140 LINE",
"524 379 LINE SMOOTH",
"524 505 OFFCURVE",
"416 563 OFFCURVE",
"285 563 CURVE SMOOTH",
"171 563 OFFCURVE",
"50 499 OFFCURVE",
"38 348 CURVE",
"145 348 LINE",
"81 321 OFFCURVE",
"59 268 OFFCURVE",
"59 215 CURVE SMOOTH",
"59 117 LINE SMOOTH",
"59 38 OFFCURVE",
"94 -10 OFFCURVE",
"181 -10 CURVE SMOOTH",
"239 -10 OFFCURVE",
"285 27 OFFCURVE",
"285 87 CURVE SMOOTH",
"285 155 OFFCURVE",
"229 179 OFFCURVE",
"196 179 CURVE SMOOTH",
"181 179 OFFCURVE",
"165 177 OFFCURVE",
"154 169 CURVE",
"154 222 LINE SMOOTH",
"154 288 OFFCURVE",
"176 319 OFFCURVE",
"232 346 CURVE",
"232 381 LINE",
"92 381 LINE",
"107 472 OFFCURVE",
"191 520 OFFCURVE",
"270 520 CURVE SMOOTH",
"373 520 OFFCURVE",
"429 461 OFFCURVE",
"429 396 CURVE SMOOTH",
"429 -140 LINE"
);
},
{
closed = 1;
nodes = (
"146 23 OFFCURVE",
"125 52 OFFCURVE",
"125 87 CURVE SMOOTH",
"125 122 OFFCURVE",
"152 149 OFFCURVE",
"188 149 CURVE SMOOTH",
"223 149 OFFCURVE",
"249 122 OFFCURVE",
"249 87 CURVE SMOOTH",
"249 52 OFFCURVE",
"226 23 OFFCURVE",
"188 23 CURVE SMOOTH"
);
}
);
width = 585;
}
);
note = "ru-thai.short";
},
{
glyphname = "lu-thai";
lastChange = "2017-12-18 12:16:25 +0000";
layers = (
{
layerId = "0B1DFD06-3317-40CA-B510-4969A0718C16";
paths = (
{
closed = 1;
nodes = (
"737 -180 LINE",
"737 401 LINE SMOOTH",
"737 556 OFFCURVE",
"601 610 OFFCURVE",
"467 610 CURVE SMOOTH",
"324 610 OFFCURVE",
"195 536 OFFCURVE",
"183 382 CURVE",
"321 382 LINE",
"219 357 OFFCURVE",
"216 307 OFFCURVE",
"216 213 CURVE",
"195 232 OFFCURVE",
"165 240 OFFCURVE",
"136 240 CURVE SMOOTH",
"69 240 OFFCURVE",
"15 184 OFFCURVE",
"15 117 CURVE SMOOTH",
"15 43 OFFCURVE",
"72 -7 OFFCURVE",
"144 -7 CURVE SMOOTH",
"401 -7 OFFCURVE",
"198 312 OFFCURVE",
"358 377 CURVE",
"358 407 LINE",
"261 407 LINE",
"270 517 OFFCURVE",
"364 580 OFFCURVE",
"467 580 CURVE SMOOTH",
"569 580 OFFCURVE",
"662 523 OFFCURVE",
"662 412 CURVE SMOOTH",
"662 -180 LINE"
);
},
{
closed = 1;
nodes = (
"222 70 OFFCURVE",
"181 33 OFFCURVE",
"136 33 CURVE SMOOTH",
"91 33 OFFCURVE",
"52 72 OFFCURVE",
"52 117 CURVE SMOOTH",
"52 162 OFFCURVE",
"90 202 OFFCURVE",
"136 202 CURVE SMOOTH",
"183 202 OFFCURVE",
"222 163 OFFCURVE",
"222 117 CURVE SMOOTH"
);
}
);
width = 827;
}
);
note = uni0E26;
unicode = 0E26;
},
{
color = 0;
glyphname = "lu-thai.short";
lastChange = "2017-12-18 11:19:07 +0000";
layers = (
{
layerId = "0B1DFD06-3317-40CA-B510-4969A0718C16";
paths = (
{
closed = 1;
nodes = (
"567 -140 LINE",
"567 379 LINE SMOOTH",
"567 505 OFFCURVE",
"459 563 OFFCURVE",
"329 563 CURVE SMOOTH",
"214 563 OFFCURVE",
"94 499 OFFCURVE",
"81 348 CURVE",
"211 348 LINE",
"152 323 OFFCURVE",
"132 275 OFFCURVE",
"132 223 CURVE SMOOTH",
"132 169 LINE",
"120 177 OFFCURVE",
"105 179 OFFCURVE",
"90 179 CURVE SMOOTH",
"56 179 OFFCURVE",
"0 155 OFFCURVE",
"0 87 CURVE SMOOTH",
"0 27 OFFCURVE",
"47 -10 OFFCURVE",
"105 -10 CURVE SMOOTH",
"185 -10 OFFCURVE",
"227 32 OFFCURVE",
"227 103 CURVE SMOOTH",
"227 206 LINE SMOOTH",
"227 277 OFFCURVE",
"241 318 OFFCURVE",
"297 346 CURVE",
"297 381 LINE",
"134 381 LINE",
"149 472 OFFCURVE",
"234 520 OFFCURVE",
"313 520 CURVE SMOOTH",
"416 520 OFFCURVE",
"472 461 OFFCURVE",
"472 396 CURVE SMOOTH",
"472 -140 LINE"
);
},
{
closed = 1;
nodes = (
"60 23 OFFCURVE",
"37 52 OFFCURVE",
"37 87 CURVE SMOOTH",
"37 122 OFFCURVE",
"63 149 OFFCURVE",
"98 149 CURVE SMOOTH",
"134 149 OFFCURVE",
"161 122 OFFCURVE",
"161 87 CURVE SMOOTH",
"161 52 OFFCURVE",
"139 23 OFFCURVE",
"98 23 CURVE SMOOTH"
);
}
);
width = 628;
}
);
note = "lu-thai.short";
},
{
glyphname = "doChada-thai";
lastChange = "2017-12-18 12:16:41 +0000";
layers = (
{
layerId = "0B1DFD06-3317-40CA-B510-4969A0718C16";
paths = (
{
closed = 1;
nodes = (
"737 -240 LINE",
"737 401 LINE SMOOTH",
"737 556 OFFCURVE",
"601 610 OFFCURVE",
"467 610 CURVE SMOOTH",
"324 610 OFFCURVE",
"195 536 OFFCURVE",
"183 382 CURVE",
"321 382 LINE",
"219 357 OFFCURVE",
"216 307 OFFCURVE",
"216 213 CURVE",
"195 232 OFFCURVE",
"165 240 OFFCURVE",
"136 240 CURVE SMOOTH",
"69 240 OFFCURVE",
"15 184 OFFCURVE",
"15 117 CURVE SMOOTH",
"15 43 OFFCURVE",
"72 -7 OFFCURVE",
"144 -7 CURVE SMOOTH",
"401 -7 OFFCURVE",
"198 312 OFFCURVE",
"358 377 CURVE",
"358 407 LINE",
"261 407 LINE",
"270 517 OFFCURVE",
"364 580 OFFCURVE",
"467 580 CURVE SMOOTH",
"569 580 OFFCURVE",
"662 523 OFFCURVE",
"662 412 CURVE SMOOTH",
"662 -189 LINE",
"625 -160 OFFCURVE",
"587 -135 OFFCURVE",
"544 -114 CURVE",
"568 -100 OFFCURVE",
"595 -93 OFFCURVE",
"622 -87 CURVE",
"622 -51 LINE",
"580 -58 OFFCURVE",
"539 -73 OFFCURVE",
"502 -94 CURVE",
"431 -64 OFFCURVE",
"357 -43 OFFCURVE",
"280 -43 CURVE SMOOTH",
"216 -43 OFFCURVE",
"112 -67 OFFCURVE",
"112 -148 CURVE SMOOTH",
"112 -222 OFFCURVE",
"214 -244 OFFCURVE",
"271 -244 CURVE SMOOTH",
"375 -244 OFFCURVE",
"422 -192 OFFCURVE",
"502 -139 CURVE",
"559 -166 OFFCURVE",
"611 -202 OFFCURVE",
"662 -240 CURVE"
);
},
{
closed = 1;
nodes = (
"222 70 OFFCURVE",
"181 33 OFFCURVE",
"136 33 CURVE SMOOTH",
"91 33 OFFCURVE",
"52 72 OFFCURVE",
"52 117 CURVE SMOOTH",
"52 162 OFFCURVE",
"90 202 OFFCURVE",
"136 202 CURVE SMOOTH",
"183 202 OFFCURVE",
"222 163 OFFCURVE",
"222 117 CURVE SMOOTH"
);
},
{
closed = 1;
nodes = (
"403 -159 OFFCURVE",
"348 -205 OFFCURVE",
"276 -205 CURVE SMOOTH",
"241 -205 OFFCURVE",
"180 -193 OFFCURVE",
"180 -148 CURVE SMOOTH",
"180 -97 OFFCURVE",
"244 -81 OFFCURVE",
"285 -81 CURVE SMOOTH",
"345 -81 OFFCURVE",
"404 -96 OFFCURVE",
"460 -120 CURVE"
);
}
);
width = 827;
}
);
note = uni0E0E;
unicode = 0E0E;
},
{
glyphname = "doChada-thai.short";
lastChange = "2017-12-18 12:24:01 +0000";
layers = (
{
layerId = "0B1DFD06-3317-40CA-B510-4969A0718C16";
paths = (
{
closed = 1;
nodes = (
"737 -240 LINE",
"737 401 LINE SMOOTH",
"737 556 OFFCURVE",
"601 610 OFFCURVE",
"467 610 CURVE SMOOTH",
"324 610 OFFCURVE",
"195 536 OFFCURVE",
"183 382 CURVE",
"321 382 LINE",
"219 357 OFFCURVE",
"216 307 OFFCURVE",
"216 213 CURVE",
"195 232 OFFCURVE",
"165 240 OFFCURVE",
"136 240 CURVE SMOOTH",
"69 240 OFFCURVE",
"15 184 OFFCURVE",
"15 117 CURVE SMOOTH",
"15 43 OFFCURVE",
"72 -7 OFFCURVE",
"144 -7 CURVE SMOOTH",
"401 -7 OFFCURVE",
"198 312 OFFCURVE",
"358 377 CURVE",
"358 407 LINE",
"261 407 LINE",
"270 517 OFFCURVE",
"364 580 OFFCURVE",
"467 580 CURVE SMOOTH",
"569 580 OFFCURVE",
"662 523 OFFCURVE",
"662 412 CURVE SMOOTH",
"662 -189 LINE",
"625 -160 OFFCURVE",
"587 -135 OFFCURVE",
"544 -114 CURVE",
"568 -100 OFFCURVE",
"595 -93 OFFCURVE",
"622 -87 CURVE",
"622 -51 LINE",
"580 -58 OFFCURVE",
"539 -73 OFFCURVE",
"502 -94 CURVE",
"431 -64 OFFCURVE",
"357 -43 OFFCURVE",
"280 -43 CURVE SMOOTH",
"216 -43 OFFCURVE",
"112 -67 OFFCURVE",
"112 -148 CURVE SMOOTH",
"112 -222 OFFCURVE",
"214 -244 OFFCURVE",
"271 -244 CURVE SMOOTH",
"375 -244 OFFCURVE",
"422 -192 OFFCURVE",
"502 -139 CURVE",
"559 -166 OFFCURVE",
"611 -202 OFFCURVE",
"662 -240 CURVE"
);
},
{
closed = 1;
nodes = (
"222 70 OFFCURVE",
"181 33 OFFCURVE",
"136 33 CURVE SMOOTH",
"91 33 OFFCURVE",
"52 72 OFFCURVE",
"52 117 CURVE SMOOTH",
"52 162 OFFCURVE",
"90 202 OFFCURVE",
"136 202 CURVE SMOOTH",
"183 202 OFFCURVE",
"222 163 OFFCURVE",
"222 117 CURVE SMOOTH"
);
},
{
closed = 1;
nodes = (
"403 -159 OFFCURVE",
"348 -205 OFFCURVE",
"276 -205 CURVE SMOOTH",
"241 -205 OFFCURVE",
"180 -193 OFFCURVE",
"180 -148 CURVE SMOOTH",
"180 -97 OFFCURVE",
"244 -81 OFFCURVE",
"285 -81 CURVE SMOOTH",
"345 -81 OFFCURVE",
"404 -96 OFFCURVE",
"460 -120 CURVE"
);
}
);
width = 827;
}
);
note = "doChada-thai.short";
},
{
glyphname = "toPatak-thai";
lastChange = "2017-12-18 12:16:41 +0000";
layers = (
{
layerId = "0B1DFD06-3317-40CA-B510-4969A0718C16";
paths = (
{
closed = 1;
nodes = (
"737 -240 LINE",
"737 401 LINE SMOOTH",
"737 554 OFFCURVE",
"601 610 OFFCURVE",
"467 610 CURVE SMOOTH",
"324 610 OFFCURVE",
"195 536 OFFCURVE",
"183 382 CURVE",
"321 382 LINE",
"219 357 OFFCURVE",
"216 307 OFFCURVE",
"216 213 CURVE",
"195 232 OFFCURVE",
"165 240 OFFCURVE",
"136 240 CURVE SMOOTH",
"69 240 OFFCURVE",
"15 184 OFFCURVE",
"15 117 CURVE SMOOTH",
"15 43 OFFCURVE",
"72 -7 OFFCURVE",
"144 -7 CURVE SMOOTH",
"401 -7 OFFCURVE",
"198 312 OFFCURVE",
"358 377 CURVE",
"358 407 LINE",
"261 407 LINE",
"270 517 OFFCURVE",
"364 580 OFFCURVE",
"467 580 CURVE SMOOTH",
"569 580 OFFCURVE",
"662 523 OFFCURVE",
"662 412 CURVE SMOOTH",
"662 -189 LINE",
"560 -94 LINE",
"460 -193 LINE",
"437 -168 OFFCURVE",
"413 -144 OFFCURVE",
"386 -123 CURVE",
"404 -111 OFFCURVE",
"425 -102 OFFCURVE",
"446 -96 CURVE",
"446 -60 LINE",
"413 -67 OFFCURVE",
"383 -82 OFFCURVE",
"355 -102 CURVE",
"303 -72 OFFCURVE",
"253 -52 OFFCURVE",
"193 -52 CURVE SMOOTH",
"133 -52 OFFCURVE",
"60 -90 OFFCURVE",
"60 -157 CURVE SMOOTH",
"60 -223 OFFCURVE",
"121 -253 OFFCURVE",
"180 -253 CURVE SMOOTH",
"262 -253 OFFCURVE",
"300 -199 OFFCURVE",
"355 -148 CURVE",
"392 -177 OFFCURVE",
"427 -210 OFFCURVE",
"455 -247 CURVE",
"560 -144 LINE",
"662 -240 LINE"
);
},
{
closed = 1;
nodes = (
"222 70 OFFCURVE",
"181 33 OFFCURVE",
"136 33 CURVE SMOOTH",
"91 33 OFFCURVE",
"52 72 OFFCURVE",
"52 117 CURVE SMOOTH",
"52 162 OFFCURVE",
"90 202 OFFCURVE",
"136 202 CURVE SMOOTH",
"183 202 OFFCURVE",
"222 163 OFFCURVE",
"222 117 CURVE SMOOTH"
);
},
{
closed = 1;
nodes = (
"282 -166 OFFCURVE",
"246 -214 OFFCURVE",
"186 -214 CURVE SMOOTH",
"151 -214 OFFCURVE",
"112 -196 OFFCURVE",
"112 -157 CURVE SMOOTH",
"112 -114 OFFCURVE",
"160 -90 OFFCURVE",
"199 -90 CURVE SMOOTH",
"244 -90 OFFCURVE",
"285 -105 OFFCURVE",
"322 -129 CURVE"
);
}
);
width = 827;
}
);
note = uni0E0F;
unicode = 0E0F;
},
{
glyphname = "toPatak-thai.short";
lastChange = "2017-12-18 12:24:05 +0000";
layers = (
{
layerId = "0B1DFD06-3317-40CA-B510-4969A0718C16";
paths = (
{
closed = 1;
nodes = (
"737 -240 LINE",
"737 401 LINE SMOOTH",
"737 554 OFFCURVE",
"601 610 OFFCURVE",
"467 610 CURVE SMOOTH",
"324 610 OFFCURVE",
"195 536 OFFCURVE",
"183 382 CURVE",
"321 382 LINE",
"219 357 OFFCURVE",
"216 307 OFFCURVE",
"216 213 CURVE",
"195 232 OFFCURVE",
"165 240 OFFCURVE",
"136 240 CURVE SMOOTH",
"69 240 OFFCURVE",
"15 184 OFFCURVE",
"15 117 CURVE SMOOTH",
"15 43 OFFCURVE",
"72 -7 OFFCURVE",
"144 -7 CURVE SMOOTH",
"401 -7 OFFCURVE",
"198 312 OFFCURVE",
"358 377 CURVE",
"358 407 LINE",
"261 407 LINE",
"270 517 OFFCURVE",
"364 580 OFFCURVE",
"467 580 CURVE SMOOTH",
"569 580 OFFCURVE",
"662 523 OFFCURVE",
"662 412 CURVE SMOOTH",
"662 -189 LINE",
"560 -94 LINE",
"460 -193 LINE",
"437 -168 OFFCURVE",
"413 -144 OFFCURVE",
"386 -123 CURVE",
"404 -111 OFFCURVE",
"425 -102 OFFCURVE",
"446 -96 CURVE",
"446 -60 LINE",
"413 -67 OFFCURVE",
"383 -82 OFFCURVE",
"355 -102 CURVE",
"303 -72 OFFCURVE",
"253 -52 OFFCURVE",
"193 -52 CURVE SMOOTH",
"133 -52 OFFCURVE",
"60 -90 OFFCURVE",
"60 -157 CURVE SMOOTH",
"60 -223 OFFCURVE",
"121 -253 OFFCURVE",
"180 -253 CURVE SMOOTH",
"262 -253 OFFCURVE",
"300 -199 OFFCURVE",
"355 -148 CURVE",
"392 -177 OFFCURVE",
"427 -210 OFFCURVE",
"455 -247 CURVE",
"560 -144 LINE",
"662 -240 LINE"
);
},
{
closed = 1;
nodes = (
"222 70 OFFCURVE",
"181 33 OFFCURVE",
"136 33 CURVE SMOOTH",
"91 33 OFFCURVE",
"52 72 OFFCURVE",
"52 117 CURVE SMOOTH",
"52 162 OFFCURVE",
"90 202 OFFCURVE",
"136 202 CURVE SMOOTH",
"183 202 OFFCURVE",
"222 163 OFFCURVE",
"222 117 CURVE SMOOTH"
);
},
{
closed = 1;
nodes = (
"282 -166 OFFCURVE",
"246 -214 OFFCURVE",
"186 -214 CURVE SMOOTH",
"151 -214 OFFCURVE",
"112 -196 OFFCURVE",
"112 -157 CURVE SMOOTH",
"112 -114 OFFCURVE",
"160 -90 OFFCURVE",
"199 -90 CURVE SMOOTH",
"244 -90 OFFCURVE",
"285 -105 OFFCURVE",
"322 -129 CURVE"
);
}
);
width = 827;
}
);
note = "toPatak-thai.short";
},
{
glyphname = "ru_lakkhangyao-thai";
lastChange = "2017-12-18 12:24:13 +0000";
layers = (
{
layerId = "0B1DFD06-3317-40CA-B510-4969A0718C16";
paths = (
{
closed = 1;
nodes = (
"987 -180 LINE",
"987 403 LINE SMOOTH",
"987 550 OFFCURVE",
"891 610 OFFCURVE",
"750 610 CURVE SMOOTH",
"686 610 OFFCURVE",
"607 581 OFFCURVE",
"563 533 CURVE",
"508 593 OFFCURVE",
"419 610 OFFCURVE",
"342 610 CURVE SMOOTH",
"198 610 OFFCURVE",
"69 536 OFFCURVE",
"57 382 CURVE",
"189 382 LINE",
"121 364 OFFCURVE",
"90 309 OFFCURVE",
"90 241 CURVE SMOOTH",
"90 145 LINE SMOOTH",
"90 55 OFFCURVE",
"144 -7 OFFCURVE",
"237 -7 CURVE SMOOTH",
"309 -7 OFFCURVE",
"366 43 OFFCURVE",
"366 117 CURVE SMOOTH",
"366 184 OFFCURVE",
"312 240 OFFCURVE",
"244 240 CURVE SMOOTH",
"216 240 OFFCURVE",
"186 232 OFFCURVE",
"165 213 CURVE",
"165 280 OFFCURVE",
"163 343 OFFCURVE",
"232 377 CURVE",
"232 407 LINE",
"135 407 LINE",
"144 517 OFFCURVE",
"238 580 OFFCURVE",
"342 580 CURVE SMOOTH",
"443 580 OFFCURVE",
"536 523 OFFCURVE",
"536 412 CURVE SMOOTH",
"536 -180 LINE",
"611 -180 LINE",
"611 401 LINE SMOOTH",
"611 431 OFFCURVE",
"607 460 OFFCURVE",
"593 487 CURVE",
"622 544 OFFCURVE",
"686 580 OFFCURVE",
"750 580 CURVE SMOOTH",
"858 580 OFFCURVE",
"912 512 OFFCURVE",
"912 412 CURVE SMOOTH",
"912 -180 LINE"
);
},
{
closed = 1;
nodes = (
"328 72 OFFCURVE",
"289 33 OFFCURVE",
"244 33 CURVE SMOOTH",
"199 33 OFFCURVE",
"159 70 OFFCURVE",
"159 117 CURVE SMOOTH",
"159 163 OFFCURVE",
"198 202 OFFCURVE",
"244 202 CURVE SMOOTH",
"291 202 OFFCURVE",
"328 162 OFFCURVE",
"328 117 CURVE SMOOTH"
);
}
);
width = 1077;
}
);
note = "ru_lakkhangyao-thai";
},
{
glyphname = "lu_lakkhangyao-thai";
lastChange = "2017-12-18 12:24:17 +0000";
layers = (
{
layerId = "0B1DFD06-3317-40CA-B510-4969A0718C16";
paths = (
{
closed = 1;
nodes = (
"1119 -180 LINE",
"1119 403 LINE SMOOTH",
"1119 548 OFFCURVE",
"1008 610 OFFCURVE",
"867 610 CURVE SMOOTH",
"806 610 OFFCURVE",
"724 584 OFFCURVE",
"680 541 CURVE",
"625 595 OFFCURVE",
"542 610 OFFCURVE",
"467 610 CURVE SMOOTH",
"324 610 OFFCURVE",
"195 536 OFFCURVE",
"183 382 CURVE",
"321 382 LINE",
"219 357 OFFCURVE",
"216 307 OFFCURVE",
"216 213 CURVE",
"195 232 OFFCURVE",
"165 240 OFFCURVE",
"136 240 CURVE SMOOTH",
"69 240 OFFCURVE",
"15 184 OFFCURVE",
"15 117 CURVE SMOOTH",
"15 43 OFFCURVE",
"72 -7 OFFCURVE",
"144 -7 CURVE SMOOTH",
"401 -7 OFFCURVE",
"196 312 OFFCURVE",
"358 377 CURVE",
"358 407 LINE",
"261 407 LINE",
"270 517 OFFCURVE",
"364 580 OFFCURVE",
"467 580 CURVE SMOOTH",
"569 580 OFFCURVE",
"662 523 OFFCURVE",
"662 412 CURVE SMOOTH",
"662 -180 LINE",
"737 -180 LINE",
"737 401 LINE SMOOTH",
"737 436 OFFCURVE",
"730 472 OFFCURVE",
"712 502 CURVE",
"740 551 OFFCURVE",
"810 580 OFFCURVE",
"867 580 CURVE SMOOTH",
"974 580 OFFCURVE",
"1044 512 OFFCURVE",
"1044 412 CURVE SMOOTH",
"1044 -180 LINE"
);
},
{
closed = 1;
nodes = (
"222 70 OFFCURVE",
"181 33 OFFCURVE",
"136 33 CURVE SMOOTH",
"91 33 OFFCURVE",
"52 72 OFFCURVE",
"52 117 CURVE SMOOTH",
"52 162 OFFCURVE",
"90 202 OFFCURVE",
"136 202 CURVE SMOOTH",
"183 202 OFFCURVE",
"222 163 OFFCURVE",
"222 117 CURVE SMOOTH"
);
}
);
width = 1209;
}
);
note = "lu_lakkhangyao-thai";
},
{
glyphname = "yoYing-thai";
lastChange = "2017-12-18 12:17:15 +0000";
layers = (
{
layerId = "0B1DFD06-3317-40CA-B510-4969A0718C16";
paths = (
{
closed = 1;
nodes = (
"954 0 LINE",
"954 599 LINE",
"879 599 LINE",
"879 37 LINE",
"611 37 LINE",
"611 401 LINE SMOOTH",
"611 556 OFFCURVE",
"475 610 OFFCURVE",
"342 610 CURVE SMOOTH",
"198 610 OFFCURVE",
"69 536 OFFCURVE",
"57 382 CURVE",
"189 382 LINE",
"121 364 OFFCURVE",
"90 309 OFFCURVE",
"90 241 CURVE SMOOTH",
"90 145 LINE SMOOTH",
"90 55 OFFCURVE",
"144 -7 OFFCURVE",
"237 -7 CURVE SMOOTH",
"309 -7 OFFCURVE",
"366 43 OFFCURVE",
"366 117 CURVE SMOOTH",
"366 184 OFFCURVE",
"312 240 OFFCURVE",
"244 240 CURVE SMOOTH",
"216 240 OFFCURVE",
"186 232 OFFCURVE",
"165 213 CURVE",
"165 280 OFFCURVE",
"162 343 OFFCURVE",
"232 377 CURVE",
"232 407 LINE",
"135 407 LINE",
"144 517 OFFCURVE",
"238 580 OFFCURVE",
"342 580 CURVE SMOOTH",
"443 580 OFFCURVE",
"536 523 OFFCURVE",
"536 412 CURVE SMOOTH",
"536 0 LINE"
);
},
{
closed = 1;
nodes = (
"879 -48 LINE",
"879 -144 OFFCURVE",
"813 -235 OFFCURVE",
"713 -240 CURVE",
"742 -219 OFFCURVE",
"761 -181 OFFCURVE",
"761 -145 CURVE SMOOTH",
"761 -81 OFFCURVE",
"710 -30 OFFCURVE",
"646 -30 CURVE SMOOTH",
"581 -30 OFFCURVE",
"530 -81 OFFCURVE",
"530 -145 CURVE SMOOTH",
"530 -241 OFFCURVE",
"614 -273 OFFCURVE",
"697 -273 CURVE SMOOTH",
"821 -273 OFFCURVE",
"945 -180 OFFCURVE",
"951 -48 CURVE"
);
},
{
closed = 1;
nodes = (
"724 -190 OFFCURVE",
"689 -225 OFFCURVE",
"646 -225 CURVE SMOOTH",
"602 -225 OFFCURVE",
"568 -190 OFFCURVE",
"568 -147 CURVE SMOOTH",
"568 -103 OFFCURVE",
"602 -69 OFFCURVE",
"646 -69 CURVE SMOOTH",
"689 -69 OFFCURVE",
"724 -103 OFFCURVE",
"724 -147 CURVE SMOOTH"
);
},
{
closed = 1;
nodes = (
"328 72 OFFCURVE",
"289 33 OFFCURVE",
"244 33 CURVE SMOOTH",
"199 33 OFFCURVE",
"159 70 OFFCURVE",
"159 117 CURVE SMOOTH",
"159 163 OFFCURVE",
"198 202 OFFCURVE",
"244 202 CURVE SMOOTH",
"291 202 OFFCURVE",
"328 162 OFFCURVE",
"328 117 CURVE SMOOTH"
);
}
);
width = 1044;
}
);
note = uni0E0D;
unicode = 0E0D;
},
{
glyphname = "yoYing-thai.less";
lastChange = "2017-12-18 12:24:21 +0000";
layers = (
{
layerId = "0B1DFD06-3317-40CA-B510-4969A0718C16";
paths = (
{
closed = 1;
nodes = (
"954 0 LINE",
"954 599 LINE",
"879 599 LINE",
"879 37 LINE",
"611 37 LINE",
"611 401 LINE SMOOTH",
"611 556 OFFCURVE",
"475 610 OFFCURVE",
"342 610 CURVE SMOOTH",
"198 610 OFFCURVE",
"69 536 OFFCURVE",
"57 382 CURVE",
"189 382 LINE",
"121 364 OFFCURVE",
"90 309 OFFCURVE",
"90 241 CURVE SMOOTH",
"90 145 LINE SMOOTH",
"90 55 OFFCURVE",
"144 -7 OFFCURVE",
"237 -7 CURVE SMOOTH",
"309 -7 OFFCURVE",
"366 43 OFFCURVE",
"366 117 CURVE SMOOTH",
"366 184 OFFCURVE",
"312 240 OFFCURVE",
"244 240 CURVE SMOOTH",
"216 240 OFFCURVE",
"186 232 OFFCURVE",
"165 213 CURVE",
"165 280 OFFCURVE",
"162 343 OFFCURVE",
"232 377 CURVE",
"232 407 LINE",
"135 407 LINE",
"144 517 OFFCURVE",
"238 580 OFFCURVE",
"342 580 CURVE SMOOTH",
"443 580 OFFCURVE",
"536 523 OFFCURVE",
"536 412 CURVE SMOOTH",
"536 0 LINE"
);
},
{
closed = 1;
nodes = (
"328 72 OFFCURVE",
"289 33 OFFCURVE",
"244 33 CURVE SMOOTH",
"199 33 OFFCURVE",
"159 70 OFFCURVE",
"159 117 CURVE SMOOTH",
"159 163 OFFCURVE",
"198 202 OFFCURVE",
"244 202 CURVE SMOOTH",
"291 202 OFFCURVE",
"328 162 OFFCURVE",
"328 117 CURVE SMOOTH"
);
}
);
width = 1044;
}
);
note = "yoYing-thai.less";
},
{
glyphname = "khoKhai-thai";
lastChange = "2017-12-18 12:17:24 +0000";
layers = (
{
layerId = "0B1DFD06-3317-40CA-B510-4969A0718C16";
paths = (
{
closed = 1;
nodes = (
"608 0 LINE",
"608 599 LINE",
"533 599 LINE",
"533 37 LINE",
"229 37 LINE",
"229 205 LINE",
"328 238 OFFCURVE",
"409 315 OFFCURVE",
"409 425 CURVE SMOOTH",
"409 533 OFFCURVE",
"319 610 OFFCURVE",
"214 610 CURVE SMOOTH",
"114 610 OFFCURVE",
"15 545 OFFCURVE",
"15 437 CURVE SMOOTH",
"15 357 OFFCURVE",
"67 286 OFFCURVE",
"153 286 CURVE SMOOTH",
"220 286 OFFCURVE",
"276 342 OFFCURVE",
"276 409 CURVE SMOOTH",
"276 476 OFFCURVE",
"220 532 OFFCURVE",
"153 532 CURVE SMOOTH",
"129 532 OFFCURVE",
"105 524 OFFCURVE",
"85 511 CURVE",
"103 557 OFFCURVE",
"154 577 OFFCURVE",
"201 577 CURVE SMOOTH",
"291 577 OFFCURVE",
"343 499 OFFCURVE",
"343 415 CURVE SMOOTH",
"343 301 OFFCURVE",
"250 247 OFFCURVE",
"154 216 CURVE",
"154 0 LINE"
);
},
{
closed = 1;
nodes = (
"238 363 OFFCURVE",
"199 324 OFFCURVE",
"153 324 CURVE SMOOTH",
"106 324 OFFCURVE",
"67 363 OFFCURVE",
"67 409 CURVE SMOOTH",
"67 455 OFFCURVE",
"106 494 OFFCURVE",
"153 494 CURVE SMOOTH",
"199 494 OFFCURVE",
"238 455 OFFCURVE",
"238 409 CURVE SMOOTH"
);
}
);
width = 698;
}
);
note = uni0E02;
unicode = 0E02;
},
{
glyphname = "khoKhuat-thai";
lastChange = "2017-12-18 12:17:24 +0000";
layers = (
{
layerId = "0B1DFD06-3317-40CA-B510-4969A0718C16";
paths = (
{
closed = 1;
nodes = (
"638 0 LINE",
"638 599 LINE",
"563 599 LINE",
"563 37 LINE",
"259 37 LINE",
"259 205 LINE",
"361 240 OFFCURVE",
"460 334 OFFCURVE",
"460 446 CURVE SMOOTH",
"460 530 OFFCURVE",
"419 610 OFFCURVE",
"325 610 CURVE SMOOTH",
"297 610 OFFCURVE",
"267 596 OFFCURVE",
"250 574 CURVE",
"231 599 OFFCURVE",
"202 610 OFFCURVE",
"171 610 CURVE SMOOTH",
"73 610 OFFCURVE",
"15 521 OFFCURVE",
"15 431 CURVE SMOOTH",
"15 351 OFFCURVE",
"67 280 OFFCURVE",
"153 280 CURVE SMOOTH",
"220 280 OFFCURVE",
"276 336 OFFCURVE",
"276 403 CURVE SMOOTH",
"276 470 OFFCURVE",
"220 526 OFFCURVE",
"153 526 CURVE SMOOTH",
"129 526 OFFCURVE",
"105 518 OFFCURVE",
"85 505 CURVE",
"93 545 OFFCURVE",
"135 577 OFFCURVE",
"175 577 CURVE SMOOTH",
"210 577 OFFCURVE",
"229 568 OFFCURVE",
"252 542 CURVE",
"268 562 OFFCURVE",
"286 577 OFFCURVE",
"313 577 CURVE SMOOTH",
"376 577 OFFCURVE",
"392 493 OFFCURVE",
"392 445 CURVE SMOOTH",
"392 316 OFFCURVE",
"289 258 OFFCURVE",
"184 216 CURVE",
"184 0 LINE"
);
},
{
closed = 1;
nodes = (
"238 357 OFFCURVE",
"199 318 OFFCURVE",
"153 318 CURVE SMOOTH",
"106 318 OFFCURVE",
"67 357 OFFCURVE",
"67 403 CURVE SMOOTH",
"67 449 OFFCURVE",
"106 488 OFFCURVE",
"153 488 CURVE SMOOTH",
"199 488 OFFCURVE",
"238 449 OFFCURVE",
"238 403 CURVE SMOOTH"
);
}
);
width = 728;
}
);
note = uni0E03;
unicode = 0E03;
},
{
glyphname = "choChang-thai";
lastChange = "2017-12-18 12:17:24 +0000";
layers = (
{
layerId = "0B1DFD06-3317-40CA-B510-4969A0718C16";
paths = (
{
closed = 1;
nodes = (
"544 599 LINE",
"536 547 OFFCURVE",
"500 500 OFFCURVE",
"455 476 CURVE",
"505 454 OFFCURVE",
"533 425 OFFCURVE",
"533 369 CURVE SMOOTH",
"533 37 LINE",
"229 37 LINE",
"229 205 LINE",
"328 238 OFFCURVE",
"409 315 OFFCURVE",
"409 425 CURVE SMOOTH",
"409 533 OFFCURVE",
"319 610 OFFCURVE",
"214 610 CURVE SMOOTH",
"114 610 OFFCURVE",
"15 545 OFFCURVE",
"15 437 CURVE SMOOTH",
"15 357 OFFCURVE",
"67 286 OFFCURVE",
"153 286 CURVE SMOOTH",
"220 286 OFFCURVE",
"276 342 OFFCURVE",
"276 409 CURVE SMOOTH",
"276 476 OFFCURVE",
"220 532 OFFCURVE",
"153 532 CURVE SMOOTH",
"129 532 OFFCURVE",
"105 524 OFFCURVE",
"85 511 CURVE",
"103 557 OFFCURVE",
"154 577 OFFCURVE",
"201 577 CURVE SMOOTH",
"291 577 OFFCURVE",
"343 499 OFFCURVE",
"343 415 CURVE SMOOTH",
"343 301 OFFCURVE",
"250 247 OFFCURVE",
"154 216 CURVE",
"154 0 LINE",
"608 0 LINE",
"608 370 LINE SMOOTH",
"608 424 OFFCURVE",
"563 458 OFFCURVE",
"517 476 CURVE",
"559 497 OFFCURVE",
"631 550 OFFCURVE",
"635 599 CURVE"
);
},
{
closed = 1;
nodes = (
"238 363 OFFCURVE",
"199 324 OFFCURVE",
"153 324 CURVE SMOOTH",
"106 324 OFFCURVE",
"67 363 OFFCURVE",
"67 409 CURVE SMOOTH",
"67 455 OFFCURVE",
"106 494 OFFCURVE",
"153 494 CURVE SMOOTH",
"199 494 OFFCURVE",
"238 455 OFFCURVE",
"238 409 CURVE SMOOTH"
);
}
);
width = 698;
}
);
note = uni0E0A;
unicode = 0E0A;
},
{
glyphname = "soSo-thai";
lastChange = "2017-12-18 12:17:24 +0000";
layers = (
{
layerId = "0B1DFD06-3317-40CA-B510-4969A0718C16";
paths = (
{
closed = 1;
nodes = (
"574 599 LINE",
"566 547 OFFCURVE",
"530 500 OFFCURVE",
"485 476 CURVE",
"535 454 OFFCURVE",
"563 425 OFFCURVE",
"563 369 CURVE SMOOTH",
"563 37 LINE",
"259 37 LINE",
"259 205 LINE",
"361 240 OFFCURVE",
"460 334 OFFCURVE",
"460 446 CURVE SMOOTH",
"460 530 OFFCURVE",
"419 610 OFFCURVE",
"325 610 CURVE SMOOTH",
"297 610 OFFCURVE",
"267 596 OFFCURVE",
"250 574 CURVE",
"231 599 OFFCURVE",
"202 610 OFFCURVE",
"171 610 CURVE SMOOTH",
"73 610 OFFCURVE",
"15 521 OFFCURVE",
"15 431 CURVE SMOOTH",
"15 351 OFFCURVE",
"67 280 OFFCURVE",
"153 280 CURVE SMOOTH",
"220 280 OFFCURVE",
"276 336 OFFCURVE",
"276 403 CURVE SMOOTH",
"276 470 OFFCURVE",
"220 526 OFFCURVE",
"153 526 CURVE SMOOTH",
"129 526 OFFCURVE",
"105 518 OFFCURVE",
"85 505 CURVE",
"93 545 OFFCURVE",
"135 577 OFFCURVE",
"175 577 CURVE SMOOTH",
"210 577 OFFCURVE",
"229 568 OFFCURVE",
"252 542 CURVE",
"268 562 OFFCURVE",
"286 577 OFFCURVE",
"313 577 CURVE SMOOTH",
"376 577 OFFCURVE",
"392 493 OFFCURVE",
"392 445 CURVE SMOOTH",
"392 316 OFFCURVE",
"289 258 OFFCURVE",
"184 216 CURVE",
"184 0 LINE",
"638 0 LINE",
"638 370 LINE SMOOTH",
"638 424 OFFCURVE",
"593 458 OFFCURVE",
"547 476 CURVE",
"589 497 OFFCURVE",
"661 550 OFFCURVE",
"665 599 CURVE"
);
},
{
closed = 1;
nodes = (
"238 357 OFFCURVE",
"199 318 OFFCURVE",
"153 318 CURVE SMOOTH",
"106 318 OFFCURVE",
"67 357 OFFCURVE",
"67 403 CURVE SMOOTH",
"67 449 OFFCURVE",
"106 488 OFFCURVE",
"153 488 CURVE SMOOTH",
"199 488 OFFCURVE",
"238 449 OFFCURVE",
"238 403 CURVE SMOOTH"
);
}
);
width = 728;
}
);
note = uni0E0B;
unicode = 0E0B;
},
{
glyphname = "khoKhwai-thai";
lastChange = "2017-12-18 12:17:24 +0000";
layers = (
{
layerId = "0B1DFD06-3317-40CA-B510-4969A0718C16";
paths = (
{
closed = 1;
nodes = (
"652 0 LINE",
"652 403 LINE SMOOTH",
"652 554 OFFCURVE",
"499 610 OFFCURVE",
"370 610 CURVE SMOOTH",
"237 610 OFFCURVE",
"75 541 OFFCURVE",
"75 386 CURVE SMOOTH",
"75 276 OFFCURVE",
"97 165 OFFCURVE",
"94 54 CURVE SMOOTH",
"93 0 LINE",
"168 0 LINE",
"253 280 LINE",
"271 237 OFFCURVE",
"319 207 OFFCURVE",
"366 207 CURVE SMOOTH",
"433 207 OFFCURVE",
"488 262 OFFCURVE",
"488 330 CURVE SMOOTH",
"488 398 OFFCURVE",
"434 452 OFFCURVE",
"366 452 CURVE SMOOTH",
"298 452 OFFCURVE",
"255 406 OFFCURVE",
"235 345 CURVE SMOOTH",
"163 114 LINE",
"166 207 OFFCURVE",
"151 297 OFFCURVE",
"151 389 CURVE SMOOTH",
"151 508 OFFCURVE",
"261 580 OFFCURVE",
"370 580 CURVE SMOOTH",
"464 580 OFFCURVE",
"577 518 OFFCURVE",
"577 412 CURVE SMOOTH",
"577 0 LINE"
);
},
{
closed = 1;
nodes = (
"451 283 OFFCURVE",
"412 244 OFFCURVE",
"366 244 CURVE SMOOTH",
"319 244 OFFCURVE",
"280 283 OFFCURVE",
"280 330 CURVE SMOOTH",
"280 376 OFFCURVE",
"319 415 OFFCURVE",
"366 415 CURVE SMOOTH",
"412 415 OFFCURVE",
"451 376 OFFCURVE",
"451 330 CURVE SMOOTH"
);
}
);
width = 742;
}
);
note = uni0E04;
unicode = 0E04;
},
{
glyphname = "khoKhon-thai";
lastChange = "2017-12-18 12:17:24 +0000";
layers = (
{
layerId = "0B1DFD06-3317-40CA-B510-4969A0718C16";
paths = (
{
closed = 1;
nodes = (
"652 0 LINE",
"652 449 LINE SMOOTH",
"652 545 OFFCURVE",
"592 611 OFFCURVE",
"494 611 CURVE SMOOTH",
"443 611 OFFCURVE",
"404 595 OFFCURVE",
"375 553 CURVE",
"352 598 OFFCURVE",
"303 611 OFFCURVE",
"256 611 CURVE SMOOTH",
"133 611 OFFCURVE",
"70 502 OFFCURVE",
"70 391 CURVE SMOOTH",
"70 283 OFFCURVE",
"96 175 OFFCURVE",
"96 67 CURVE SMOOTH",
"96 45 OFFCURVE",
"94 22 OFFCURVE",
"93 0 CURVE",
"168 0 LINE",
"253 280 LINE",
"271 237 OFFCURVE",
"319 207 OFFCURVE",
"366 207 CURVE SMOOTH",
"433 207 OFFCURVE",
"488 262 OFFCURVE",
"488 330 CURVE SMOOTH",
"488 398 OFFCURVE",
"434 452 OFFCURVE",
"366 452 CURVE SMOOTH",
"220 452 OFFCURVE",
"196 217 OFFCURVE",
"168 127 CURVE",
"165 217 OFFCURVE",
"147 304 OFFCURVE",
"147 394 CURVE SMOOTH",
"147 475 OFFCURVE",
"181 574 OFFCURVE",
"277 574 CURVE SMOOTH",
"315 574 OFFCURVE",
"352 551 OFFCURVE",
"366 515 CURVE",
"382 515 LINE",
"400 551 OFFCURVE",
"433 574 OFFCURVE",
"473 574 CURVE SMOOTH",
"550 574 OFFCURVE",
"577 503 OFFCURVE",
"577 437 CURVE SMOOTH",
"577 0 LINE"
);
},
{
closed = 1;
nodes = (
"451 283 OFFCURVE",
"412 244 OFFCURVE",
"366 244 CURVE SMOOTH",
"319 244 OFFCURVE",
"280 283 OFFCURVE",
"280 330 CURVE SMOOTH",
"280 376 OFFCURVE",
"319 415 OFFCURVE",
"366 415 CURVE SMOOTH",
"412 415 OFFCURVE",
"451 376 OFFCURVE",
"451 330 CURVE SMOOTH"
);
}
);
width = 742;
}
);
note = uni0E05;
unicode = 0E05;
},
{
glyphname = "soSala-thai";
lastChange = "2017-12-18 12:17:24 +0000";
layers = (
{
layerId = "0B1DFD06-3317-40CA-B510-4969A0718C16";
paths = (
{
closed = 1;
nodes = (
"575 659 LINE",
"566 629 OFFCURVE",
"548 602 OFFCURVE",
"527 580 CURVE",
"479 604 OFFCURVE",
"424 610 OFFCURVE",
"370 610 CURVE SMOOTH",
"237 610 OFFCURVE",
"75 541 OFFCURVE",
"75 386 CURVE SMOOTH",
"75 276 OFFCURVE",
"97 166 OFFCURVE",
"94 55 CURVE SMOOTH",
"93 0 LINE",
"168 0 LINE",
"253 280 LINE",
"271 237 OFFCURVE",
"319 207 OFFCURVE",
"366 207 CURVE SMOOTH",
"433 207 OFFCURVE",
"488 262 OFFCURVE",
"488 330 CURVE SMOOTH",
"488 386 OFFCURVE",
"452 431 OFFCURVE",
"398 448 CURVE",
"442 470 OFFCURVE",
"485 494 OFFCURVE",
"526 523 CURVE",
"557 494 OFFCURVE",
"577 454 OFFCURVE",
"577 412 CURVE SMOOTH",
"577 0 LINE",
"652 0 LINE",
"652 403 LINE SMOOTH",
"652 467 OFFCURVE",
"622 521 OFFCURVE",
"569 557 CURVE",
"604 583 OFFCURVE",
"640 619 OFFCURVE",
"656 659 CURVE"
);
},
{
closed = 1;
nodes = (
"451 283 OFFCURVE",
"412 244 OFFCURVE",
"366 244 CURVE SMOOTH",
"319 244 OFFCURVE",
"280 283 OFFCURVE",
"280 330 CURVE SMOOTH",
"280 376 OFFCURVE",
"319 415 OFFCURVE",
"366 415 CURVE SMOOTH",
"412 415 OFFCURVE",
"451 376 OFFCURVE",
"451 330 CURVE SMOOTH"
);
},
{
closed = 1;
nodes = (
"452 508 OFFCURVE",
"404 478 OFFCURVE",
"355 452 CURVE",
"292 448 OFFCURVE",
"253 401 OFFCURVE",
"235 345 CURVE SMOOTH",
"163 114 LINE",
"166 207 OFFCURVE",
"151 297 OFFCURVE",
"151 389 CURVE SMOOTH",
"151 508 OFFCURVE",
"261 580 OFFCURVE",
"370 580 CURVE SMOOTH",
"413 580 OFFCURVE",
"455 569 OFFCURVE",
"493 547 CURVE"
);
}
);
width = 742;
}
);
note = uni0E28;
unicode = 0E28;
},
{
glyphname = "doDek-thai";
lastChange = "2017-12-18 12:17:24 +0000";
layers = (
{
layerId = "0B1DFD06-3317-40CA-B510-4969A0718C16";
paths = (
{
closed = 1;
nodes = (
"637 0 LINE",
"637 403 LINE SMOOTH",
"637 556 OFFCURVE",
"493 610 OFFCURVE",
"363 610 CURVE SMOOTH",
"229 610 OFFCURVE",
"75 539 OFFCURVE",
"75 386 CURVE SMOOTH",
"75 282 OFFCURVE",
"96 178 OFFCURVE",
"96 73 CURVE SMOOTH",
"96 49 OFFCURVE",
"94 24 OFFCURVE",
"93 0 CURVE",
"168 0 LINE",
"309 54 OFFCURVE",
"479 181 OFFCURVE",
"479 348 CURVE SMOOTH",
"479 418 OFFCURVE",
"419 470 OFFCURVE",
"351 470 CURVE SMOOTH",
"283 470 OFFCURVE",
"228 415 OFFCURVE",
"228 348 CURVE SMOOTH",
"228 280 OFFCURVE",
"283 225 OFFCURVE",
"351 225 CURVE SMOOTH",
"372 225 OFFCURVE",
"391 231 OFFCURVE",
"409 240 CURVE",
"373 148 OFFCURVE",
"255 70 OFFCURVE",
"166 37 CURVE",
"172 156 OFFCURVE",
"151 271 OFFCURVE",
"151 389 CURVE SMOOTH",
"151 508 OFFCURVE",
"250 580 OFFCURVE",
"363 580 CURVE SMOOTH",
"463 580 OFFCURVE",
"562 523 OFFCURVE",
"562 412 CURVE SMOOTH",
"562 0 LINE"
);
},
{
closed = 1;
nodes = (
"434 303 OFFCURVE",
"395 264 OFFCURVE",
"351 264 CURVE SMOOTH",
"306 264 OFFCURVE",
"267 303 OFFCURVE",
"267 348 CURVE SMOOTH",
"267 392 OFFCURVE",
"306 431 OFFCURVE",
"351 431 CURVE SMOOTH",
"395 431 OFFCURVE",
"434 392 OFFCURVE",
"434 348 CURVE SMOOTH"
);
}
);
width = 727;
}
);
note = uni0E14;
unicode = 0E14;
},
{
glyphname = "toTao-thai";
lastChange = "2017-12-18 12:17:24 +0000";
layers = (
{
layerId = "0B1DFD06-3317-40CA-B510-4969A0718C16";
paths = (
{
closed = 1;
nodes = (
"637 0 LINE",
"637 449 LINE SMOOTH",
"637 542 OFFCURVE",
"584 611 OFFCURVE",
"487 611 CURVE SMOOTH",
"436 611 OFFCURVE",
"397 595 OFFCURVE",
"367 553 CURVE",
"342 596 OFFCURVE",
"304 611 OFFCURVE",
"256 611 CURVE SMOOTH",
"135 611 OFFCURVE",
"75 494 OFFCURVE",
"75 386 CURVE SMOOTH",
"75 282 OFFCURVE",
"96 178 OFFCURVE",
"96 73 CURVE SMOOTH",
"96 49 OFFCURVE",
"94 24 OFFCURVE",
"93 0 CURVE",
"168 0 LINE",
"309 54 OFFCURVE",
"479 181 OFFCURVE",
"479 348 CURVE SMOOTH",
"479 418 OFFCURVE",
"419 470 OFFCURVE",
"351 470 CURVE SMOOTH",
"282 470 OFFCURVE",
"228 415 OFFCURVE",
"228 348 CURVE SMOOTH",
"228 280 OFFCURVE",
"282 225 OFFCURVE",
"351 225 CURVE SMOOTH",
"370 225 OFFCURVE",
"391 231 OFFCURVE",
"409 240 CURVE",
"373 148 OFFCURVE",
"255 70 OFFCURVE",
"166 37 CURVE",
"172 156 OFFCURVE",
"151 271 OFFCURVE",
"151 389 CURVE SMOOTH",
"151 466 OFFCURVE",
"183 574 OFFCURVE",
"277 574 CURVE SMOOTH",
"315 574 OFFCURVE",
"345 551 OFFCURVE",
"358 515 CURVE",
"375 515 LINE",
"395 551 OFFCURVE",
"424 574 OFFCURVE",
"466 574 CURVE SMOOTH",
"542 574 OFFCURVE",
"562 500 OFFCURVE",
"562 437 CURVE SMOOTH",
"562 0 LINE"
);
},
{
closed = 1;
nodes = (
"436 301 OFFCURVE",
"395 262 OFFCURVE",
"351 262 CURVE SMOOTH",
"304 262 OFFCURVE",
"265 301 OFFCURVE",
"265 348 CURVE SMOOTH",
"265 394 OFFCURVE",
"304 433 OFFCURVE",
"351 433 CURVE SMOOTH",
"395 433 OFFCURVE",
"436 394 OFFCURVE",
"436 348 CURVE SMOOTH"
);
}
);
width = 727;
}
);
note = uni0E15;
unicode = 0E15;
},
{
glyphname = "thoThahan-thai";
lastChange = "2017-12-18 12:17:24 +0000";
layers = (
{
layerId = "0B1DFD06-3317-40CA-B510-4969A0718C16";
paths = (
{
closed = 1;
nodes = (
"694 0 LINE",
"694 535 LINE SMOOTH",
"694 586 OFFCURVE",
"653 607 OFFCURVE",
"607 607 CURVE",
"291 69 LINE",
"291 457 LINE SMOOTH",
"291 547 OFFCURVE",
"237 610 OFFCURVE",
"144 610 CURVE SMOOTH",
"72 610 OFFCURVE",
"15 559 OFFCURVE",
"15 485 CURVE SMOOTH",
"15 418 OFFCURVE",
"69 363 OFFCURVE",
"136 363 CURVE SMOOTH",
"165 363 OFFCURVE",
"195 370 OFFCURVE",
"216 389 CURVE",
"216 0 LINE",
"291 0 LINE",
"596 514 LINE",
"614 505 LINE",
"625 487 OFFCURVE",
"619 52 OFFCURVE",
"619 0 CURVE"
);
},
{
closed = 1;
nodes = (
"222 439 OFFCURVE",
"183 400 OFFCURVE",
"136 400 CURVE SMOOTH",
"90 400 OFFCURVE",
"52 440 OFFCURVE",
"52 485 CURVE SMOOTH",
"52 530 OFFCURVE",
"91 569 OFFCURVE",
"136 569 CURVE SMOOTH",
"181 569 OFFCURVE",
"222 532 OFFCURVE",
"222 485 CURVE SMOOTH"
);
}
);
width = 783;
}
);
note = uni0E17;
unicode = 0E17;
},
{
glyphname = "thoNangmontho-thai";
lastChange = "2017-12-18 12:17:24 +0000";
layers = (
{
layerId = "0B1DFD06-3317-40CA-B510-4969A0718C16";
paths = (
{
closed = 1;
nodes = (
"743 0 LINE",
"743 535 LINE SMOOTH",
"743 583 OFFCURVE",
"704 607 OFFCURVE",
"659 607 CURVE",
"304 66 LINE",
"304 232 LINE SMOOTH",
"304 310 OFFCURVE",
"460 346 OFFCURVE",
"460 469 CURVE SMOOTH",
"460 548 OFFCURVE",
"419 610 OFFCURVE",
"334 610 CURVE SMOOTH",
"304 610 OFFCURVE",
"270 599 OFFCURVE",
"250 574 CURVE",
"231 599 OFFCURVE",
"202 610 OFFCURVE",
"171 610 CURVE SMOOTH",
"73 610 OFFCURVE",
"15 521 OFFCURVE",
"15 431 CURVE SMOOTH",
"15 351 OFFCURVE",
"67 280 OFFCURVE",
"153 280 CURVE SMOOTH",
"220 280 OFFCURVE",
"276 336 OFFCURVE",
"276 403 CURVE SMOOTH",
"276 470 OFFCURVE",
"220 526 OFFCURVE",
"153 526 CURVE SMOOTH",
"129 526 OFFCURVE",
"105 518 OFFCURVE",
"85 505 CURVE",
"93 545 OFFCURVE",
"135 577 OFFCURVE",
"175 577 CURVE SMOOTH",
"210 577 OFFCURVE",
"229 568 OFFCURVE",
"252 542 CURVE",
"268 562 OFFCURVE",
"286 577 OFFCURVE",
"313 577 CURVE SMOOTH",
"375 577 OFFCURVE",
"392 518 OFFCURVE",
"392 467 CURVE SMOOTH",
"392 333 OFFCURVE",
"229 297 OFFCURVE",
"229 214 CURVE SMOOTH",
"229 0 LINE",
"306 0 LINE",
"646 514 LINE",
"664 505 LINE",
"674 487 OFFCURVE",
"668 52 OFFCURVE",
"668 0 CURVE"
);
},
{
closed = 1;
nodes = (
"238 357 OFFCURVE",
"199 318 OFFCURVE",
"153 318 CURVE SMOOTH",
"106 318 OFFCURVE",
"67 357 OFFCURVE",
"67 403 CURVE SMOOTH",
"67 449 OFFCURVE",
"106 488 OFFCURVE",
"153 488 CURVE SMOOTH",
"199 488 OFFCURVE",
"238 449 OFFCURVE",
"238 403 CURVE SMOOTH"
);
}
);
width = 833;
}
);
note = uni0E11;
unicode = 0E11;
},
{
glyphname = "noNu-thai";
lastChange = "2017-12-18 12:17:41 +0000";
layers = (
{
layerId = "0B1DFD06-3317-40CA-B510-4969A0718C16";
paths = (
{
closed = 1;
nodes = (
"719 181 OFFCURVE",
"671 234 OFFCURVE",
"608 244 CURVE",
"631 256 OFFCURVE",
"655 265 OFFCURVE",
"679 271 CURVE",
"679 599 LINE",
"604 599 LINE",
"604 279 LINE",
"488 232 OFFCURVE",
"375 156 OFFCURVE",
"291 64 CURVE",
"291 457 LINE SMOOTH",
"291 547 OFFCURVE",
"237 610 OFFCURVE",
"144 610 CURVE SMOOTH",
"72 610 OFFCURVE",
"15 559 OFFCURVE",
"15 485 CURVE SMOOTH",
"15 418 OFFCURVE",
"69 363 OFFCURVE",
"136 363 CURVE SMOOTH",
"165 363 OFFCURVE",
"195 370 OFFCURVE",
"216 389 CURVE",
"216 0 LINE",
"292 0 LINE",
"342 60 OFFCURVE",
"404 114 OFFCURVE",
"467 160 CURVE",
"439 75 OFFCURVE",
"500 -12 OFFCURVE",
"590 -12 CURVE SMOOTH",
"659 -12 OFFCURVE",
"719 48 OFFCURVE",
"719 117 CURVE SMOOTH"
);
},
{
closed = 1;
nodes = (
"683 64 OFFCURVE",
"638 19 OFFCURVE",
"589 19 CURVE SMOOTH",
"539 19 OFFCURVE",
"494 64 OFFCURVE",
"494 114 CURVE SMOOTH",
"494 163 OFFCURVE",
"539 208 OFFCURVE",
"589 208 CURVE SMOOTH",
"638 208 OFFCURVE",
"683 163 OFFCURVE",
"683 114 CURVE SMOOTH"
);
},
{
closed = 1;
nodes = (
"222 439 OFFCURVE",
"183 400 OFFCURVE",
"136 400 CURVE SMOOTH",
"90 400 OFFCURVE",
"52 440 OFFCURVE",
"52 485 CURVE SMOOTH",
"52 530 OFFCURVE",
"91 569 OFFCURVE",
"136 569 CURVE SMOOTH",
"181 569 OFFCURVE",
"222 532 OFFCURVE",
"222 485 CURVE SMOOTH"
);
}
);
width = 768;
}
);
note = uni0E19;
unicode = 0E19;
},
{
glyphname = "moMa-thai";
lastChange = "2017-12-18 12:17:41 +0000";
layers = (
{
layerId = "0B1DFD06-3317-40CA-B510-4969A0718C16";
paths = (
{
closed = 1;
nodes = (
"688 0 LINE",
"688 599 LINE",
"613 599 LINE",
"613 45 LINE",
"336 222 LINE",
"336 346 OFFCURVE",
"392 610 OFFCURVE",
"189 610 CURVE SMOOTH",
"117 610 OFFCURVE",
"60 559 OFFCURVE",
"60 485 CURVE SMOOTH",
"60 418 OFFCURVE",
"114 363 OFFCURVE",
"181 363 CURVE SMOOTH",
"210 363 OFFCURVE",
"240 370 OFFCURVE",
"261 389 CURVE",
"261 243 LINE",
"178 282 OFFCURVE",
"55 217 OFFCURVE",
"55 123 CURVE SMOOTH",
"55 43 OFFCURVE",
"117 -7 OFFCURVE",
"193 -7 CURVE SMOOTH",
"322 -7 OFFCURVE",
"336 72 OFFCURVE",
"336 180 CURVE",
"613 0 LINE"
);
},
{
closed = 1;
nodes = (
"267 439 OFFCURVE",
"228 400 OFFCURVE",
"181 400 CURVE SMOOTH",
"135 400 OFFCURVE",
"97 440 OFFCURVE",
"97 485 CURVE SMOOTH",
"97 530 OFFCURVE",
"136 569 OFFCURVE",
"181 569 CURVE SMOOTH",
"226 569 OFFCURVE",
"267 532 OFFCURVE",
"267 485 CURVE SMOOTH"
);
},
{
closed = 1;
nodes = (
"261 124 LINE SMOOTH",
"261 78 OFFCURVE",
"238 33 OFFCURVE",
"186 33 CURVE SMOOTH",
"133 33 OFFCURVE",
"97 70 OFFCURVE",
"97 123 CURVE SMOOTH",
"97 181 OFFCURVE",
"148 213 OFFCURVE",
"202 213 CURVE SMOOTH",
"222 213 OFFCURVE",
"243 213 OFFCURVE",
"261 205 CURVE"
);
}
);
width = 777;
}
);
note = uni0E21;
unicode = 0E21;
},
{
glyphname = "choChoe-thai";
lastChange = "2017-12-18 12:17:41 +0000";
layers = (
{
layerId = "0B1DFD06-3317-40CA-B510-4969A0718C16";
paths = (
{
closed = 1;
nodes = (
"954 0 LINE",
"954 599 LINE",
"879 599 LINE",
"879 64 LINE",
"801 142 OFFCURVE",
"710 214 OFFCURVE",
"611 264 CURVE",
"611 484 OFFCURVE",
"599 610 OFFCURVE",
"342 610 CURVE SMOOTH",
"198 610 OFFCURVE",
"69 536 OFFCURVE",
"57 382 CURVE",
"189 382 LINE",
"121 364 OFFCURVE",
"90 309 OFFCURVE",
"90 241 CURVE SMOOTH",
"90 145 LINE SMOOTH",
"90 55 OFFCURVE",
"144 -7 OFFCURVE",
"237 -7 CURVE SMOOTH",
"309 -7 OFFCURVE",
"366 43 OFFCURVE",
"366 117 CURVE SMOOTH",
"366 184 OFFCURVE",
"312 240 OFFCURVE",
"244 240 CURVE SMOOTH",
"216 240 OFFCURVE",
"186 232 OFFCURVE",
"165 213 CURVE",
"165 280 OFFCURVE",
"162 343 OFFCURVE",
"232 377 CURVE",
"232 407 LINE",
"135 407 LINE",
"144 517 OFFCURVE",
"238 580 OFFCURVE",
"342 580 CURVE SMOOTH",
"553 580 OFFCURVE",
"536 424 OFFCURVE",
"536 262 CURVE",
"583 235 LINE",
"523 225 OFFCURVE",
"473 174 OFFCURVE",
"473 112 CURVE SMOOTH",
"473 45 OFFCURVE",
"529 -10 OFFCURVE",
"596 -10 CURVE SMOOTH",
"664 -10 OFFCURVE",
"719 45 OFFCURVE",
"719 112 CURVE SMOOTH",
"719 126 OFFCURVE",
"718 139 OFFCURVE",
"713 153 CURVE",
"773 109 OFFCURVE",
"833 58 OFFCURVE",
"878 0 CURVE"
);
},
{
closed = 1;
nodes = (
"682 66 OFFCURVE",
"643 27 OFFCURVE",
"596 27 CURVE SMOOTH",
"550 27 OFFCURVE",
"511 66 OFFCURVE",
"511 112 CURVE SMOOTH",
"511 159 OFFCURVE",
"550 198 OFFCURVE",
"596 198 CURVE SMOOTH",
"643 198 OFFCURVE",
"682 159 OFFCURVE",
"682 112 CURVE SMOOTH"
);
},
{
closed = 1;
nodes = (
"328 72 OFFCURVE",
"289 33 OFFCURVE",
"244 33 CURVE SMOOTH",
"199 33 OFFCURVE",
"159 70 OFFCURVE",
"159 117 CURVE SMOOTH",
"159 163 OFFCURVE",
"198 202 OFFCURVE",
"244 202 CURVE SMOOTH",
"291 202 OFFCURVE",
"328 162 OFFCURVE",
"328 117 CURVE SMOOTH"
);
}
);
width = 1044;
}
);
note = uni0E0C;
unicode = 0E0C;
},
{
glyphname = "noNen-thai";
lastChange = "2017-12-18 12:17:41 +0000";
layers = (
{
layerId = "0B1DFD06-3317-40CA-B510-4969A0718C16";
paths = (
{
closed = 1;
nodes = (
"995 180 OFFCURVE",
"947 234 OFFCURVE",
"885 244 CURVE",
"908 256 OFFCURVE",
"930 265 OFFCURVE",
"954 271 CURVE",
"954 599 LINE",
"879 599 LINE",
"879 279 LINE",
"768 241 OFFCURVE",
"683 180 OFFCURVE",
"611 88 CURVE",
"611 355 OFFCURVE",
"682 610 OFFCURVE",
"342 610 CURVE SMOOTH",
"198 610 OFFCURVE",
"69 536 OFFCURVE",
"57 382 CURVE",
"189 382 LINE",
"121 364 OFFCURVE",
"90 309 OFFCURVE",
"90 241 CURVE SMOOTH",
"90 145 LINE SMOOTH",
"90 55 OFFCURVE",
"144 -7 OFFCURVE",
"237 -7 CURVE SMOOTH",
"309 -7 OFFCURVE",
"366 43 OFFCURVE",
"366 117 CURVE SMOOTH",
"366 184 OFFCURVE",
"312 240 OFFCURVE",
"244 240 CURVE SMOOTH",
"216 240 OFFCURVE",
"186 232 OFFCURVE",
"165 213 CURVE",
"165 280 OFFCURVE",
"163 343 OFFCURVE",
"232 377 CURVE",
"232 407 LINE",
"135 407 LINE",
"144 517 OFFCURVE",
"238 580 OFFCURVE",
"342 580 CURVE SMOOTH",
"443 580 OFFCURVE",
"536 523 OFFCURVE",
"536 412 CURVE SMOOTH",
"536 0 LINE",
"611 0 LINE",
"638 63 OFFCURVE",
"689 120 OFFCURVE",
"743 160 CURVE",
"715 76 OFFCURVE",
"777 -12 OFFCURVE",
"866 -12 CURVE SMOOTH",
"935 -12 OFFCURVE",
"995 48 OFFCURVE",
"995 117 CURVE SMOOTH"
);
},
{
closed = 1;
nodes = (
"959 64 OFFCURVE",
"914 19 OFFCURVE",
"864 19 CURVE SMOOTH",
"813 19 OFFCURVE",
"771 64 OFFCURVE",
"771 114 CURVE SMOOTH",
"771 163 OFFCURVE",
"813 208 OFFCURVE",
"864 208 CURVE SMOOTH",
"914 208 OFFCURVE",
"959 163 OFFCURVE",
"959 114 CURVE SMOOTH"
);
},
{
closed = 1;
nodes = (
"328 72 OFFCURVE",
"289 33 OFFCURVE",
"244 33 CURVE SMOOTH",
"199 33 OFFCURVE",
"159 70 OFFCURVE",
"159 117 CURVE SMOOTH",
"159 163 OFFCURVE",
"198 202 OFFCURVE",
"244 202 CURVE SMOOTH",
"291 202 OFFCURVE",
"328 162 OFFCURVE",
"328 117 CURVE SMOOTH"
);
}
);
width = 1044;
}
);
note = uni0E13;
unicode = 0E13;
},
{
glyphname = "thoPhuthao-thai";
lastChange = "2017-12-18 12:17:41 +0000";
layers = (
{
layerId = "0B1DFD06-3317-40CA-B510-4969A0718C16";
paths = (
{
closed = 1;
nodes = (
"980 0 LINE",
"980 599 LINE",
"905 599 LINE",
"905 64 LINE",
"827 142 OFFCURVE",
"736 214 OFFCURVE",
"637 264 CURVE",
"637 388 OFFCURVE",
"679 611 OFFCURVE",
"487 611 CURVE SMOOTH",
"436 611 OFFCURVE",
"397 595 OFFCURVE",
"367 553 CURVE",
"342 596 OFFCURVE",
"304 611 OFFCURVE",
"256 611 CURVE SMOOTH",
"136 611 OFFCURVE",
"75 494 OFFCURVE",
"75 386 CURVE SMOOTH",
"75 282 OFFCURVE",
"96 178 OFFCURVE",
"96 73 CURVE SMOOTH",
"96 49 OFFCURVE",
"94 24 OFFCURVE",
"93 0 CURVE",
"168 0 LINE",
"309 54 OFFCURVE",
"479 181 OFFCURVE",
"479 348 CURVE SMOOTH",
"479 418 OFFCURVE",
"419 470 OFFCURVE",
"351 470 CURVE SMOOTH",
"283 470 OFFCURVE",
"228 415 OFFCURVE",
"228 348 CURVE SMOOTH",
"228 280 OFFCURVE",
"283 225 OFFCURVE",
"351 225 CURVE SMOOTH",
"372 225 OFFCURVE",
"391 231 OFFCURVE",
"409 240 CURVE",
"373 148 OFFCURVE",
"255 70 OFFCURVE",
"166 37 CURVE",
"172 156 OFFCURVE",
"151 271 OFFCURVE",
"151 389 CURVE SMOOTH",
"151 466 OFFCURVE",
"184 574 OFFCURVE",
"277 574 CURVE SMOOTH",
"316 574 OFFCURVE",
"345 551 OFFCURVE",
"358 515 CURVE",
"375 515 LINE",
"395 550 OFFCURVE",
"424 574 OFFCURVE",
"466 574 CURVE SMOOTH",
"601 574 OFFCURVE",
"562 328 OFFCURVE",
"562 262 CURVE",
"608 235 LINE",
"548 225 OFFCURVE",
"499 174 OFFCURVE",
"499 112 CURVE SMOOTH",
"499 45 OFFCURVE",
"554 -10 OFFCURVE",
"622 -10 CURVE SMOOTH",
"689 -10 OFFCURVE",
"745 45 OFFCURVE",
"745 112 CURVE SMOOTH",
"745 126 OFFCURVE",
"743 139 OFFCURVE",
"739 153 CURVE",
"798 109 OFFCURVE",
"858 58 OFFCURVE",
"903 0 CURVE"
);
},
{
closed = 1;
nodes = (
"707 66 OFFCURVE",
"668 27 OFFCURVE",
"622 27 CURVE SMOOTH",
"575 27 OFFCURVE",
"536 66 OFFCURVE",
"536 112 CURVE SMOOTH",
"536 159 OFFCURVE",
"575 198 OFFCURVE",
"622 198 CURVE SMOOTH",
"668 198 OFFCURVE",
"707 159 OFFCURVE",
"707 112 CURVE SMOOTH"
);
},
{
closed = 1;
nodes = (
"436 301 OFFCURVE",
"397 262 OFFCURVE",
"351 262 CURVE SMOOTH",
"304 262 OFFCURVE",
"265 301 OFFCURVE",
"265 348 CURVE SMOOTH",
"265 394 OFFCURVE",
"304 433 OFFCURVE",
"351 433 CURVE SMOOTH",
"397 433 OFFCURVE",
"436 394 OFFCURVE",
"436 348 CURVE SMOOTH"
);
}
);
width = 1070;
}
);
note = uni0E12;
unicode = 0E12;
},
